<svg width="313" height="236" viewBox="0 0 313 236" fill="none" xmlns="http://www.w3.org/2000/svg">
<g opacity="0.5">
<path d="M75.1196 50.874C75.1196 50.874 41.7616 55.5709 39.3594 93.0362L62.404 98.5159L75.1196 50.874Z" fill="#414134"/>
<path opacity="0.46" d="M75.1196 50.874C75.1196 50.874 41.7616 55.5709 39.3594 93.0362L62.404 98.5159L75.1196 50.874Z" fill="white"/>
<path d="M198.935 18.998H140.662V91.6585H198.935V18.998Z" fill="#E6E6E6"/>
<path d="M223.443 112.912H194.623V117.381H223.443V112.912Z" fill="#FFD200"/>
<path d="M225.931 108.45H197.111V112.92H225.931V108.45Z" fill="#FFD200"/>
<path opacity="0.08" d="M225.931 108.45H197.111V112.92H225.931V108.45Z" fill="black"/>
<path opacity="0.45" d="M168.98 219.554C235.127 219.554 288.75 213.067 288.75 205.064C288.75 197.062 235.127 190.574 168.98 190.574C102.834 190.574 49.2109 197.062 49.2109 205.064C49.2109 213.067 102.834 219.554 168.98 219.554Z" fill="#E6E6E6"/>
<path d="M255.36 117.382H82.3105V203.702H255.36V117.382Z" fill="#C9C9C9"/>
<path d="M255.36 117.382H82.3105V128.732H255.36V117.382Z" fill="#E6E6E6"/>
<path opacity="0.08" d="M168.504 119.08C168.504 119.08 173.199 142.565 155.201 150.917C137.204 159.27 135.834 181.353 149.395 203.71H88.0391L91.7872 137.609L127.782 117.382L159.082 117.773L168.504 119.08Z" fill="black"/>
<path d="M41.3241 93.5215C41.3241 93.5215 31.089 131.574 54.298 131.644L61.9274 112.074L58.1009 97.5295L41.3241 93.5215Z" fill="#F4A28C"/>
<path opacity="0.31" d="M41.3241 93.5215C41.3241 93.5215 31.089 131.574 54.298 131.644L61.9274 112.074L58.1009 97.5295L41.3241 93.5215Z" fill="#CE8172"/>
<path d="M83.6095 200.305C83.6095 200.305 82.3967 203.718 79.3215 203.984C76.2462 204.25 75.4089 207.272 78.2181 208.047C81.0273 208.822 88.1089 205.236 88.1089 205.236L87.8977 200.798L83.6095 200.305Z" fill="#24285B"/>
<path d="M128.691 199.78C128.691 199.78 129.904 203.193 132.979 203.467C136.054 203.741 136.852 206.747 134.082 207.522C131.312 208.297 124.184 204.72 124.184 204.72L124.403 200.273L128.691 199.78Z" fill="#24285B"/>
<path opacity="0.58" d="M219.882 106.61C219.882 106.61 211.337 104.316 209.451 96.3786C209.451 96.3786 222.652 93.6545 223.09 107.338L219.882 106.61Z" fill="#414134"/>
<path opacity="0.73" d="M220.892 105.757C220.892 105.757 214.89 96.3631 220.109 87.5251C220.109 87.5251 230.18 93.8659 225.767 105.757H220.892Z" fill="#414134"/>
<path d="M222.426 105.757C222.426 105.757 225.556 95.7917 235.04 93.866C235.04 93.866 236.847 100.324 228.928 105.757H222.426Z" fill="#414134"/>
<path d="M216.236 105.561L218.02 117.381H228.905L230.462 105.561H216.236Z" fill="#24285B"/>
<path d="M106.005 30.6619L104.072 28.7597C103.744 26.7243 103.345 25.19 103.345 25.19C102.64 21.7378 97.2177 20.0626 94.3928 22.9121C93.5876 23.625 93.0244 24.5714 92.7818 25.6194C92.5392 26.6675 92.6291 27.7651 93.0391 28.7597L95.5744 33.4565C96.709 36.3529 99.3304 37.1827 101.302 37.3706C101.682 37.4028 102.063 37.3598 102.426 37.2442C102.789 37.1286 103.125 36.9426 103.416 36.6969C103.706 36.4511 103.946 36.1504 104.12 35.812C104.295 35.4736 104.401 35.1041 104.432 34.7247C104.476 34.0417 104.476 33.3567 104.432 32.6737L105.637 32.2275C105.794 32.1817 105.936 32.0951 106.049 31.9764C106.161 31.8577 106.24 31.7113 106.278 31.552C106.315 31.3928 106.31 31.2265 106.262 31.0701C106.214 30.9137 106.125 30.7728 106.005 30.6619Z" fill="#F4A28C"/>
<path d="M93.3599 30.8574L91.7871 49.6997L102.226 49.8249L99.2522 36.4075L93.3599 30.8574Z" fill="#F4A28C"/>
<path d="M89.7598 25.5423C91.7082 26.5287 91.9821 28.9397 92.4907 31.022L93.1089 33.6131C94.0016 33.7962 94.9303 33.6618 95.7346 33.2331C96.5389 32.8043 97.1684 32.1082 97.5143 31.2647C97.9623 30.2829 98.0536 29.1754 97.7726 28.1334C97.7032 27.896 97.6876 27.6461 97.7268 27.4019C97.7659 27.1576 97.8589 26.9252 97.999 26.7214C98.1391 26.5175 98.3227 26.3474 98.5367 26.2234C98.7506 26.0993 98.9894 26.0245 99.2358 26.0042L100.097 25.9181C101.212 25.7808 102.282 25.3928 103.227 24.783L102.921 20.7124" fill="#24285B"/>
<path d="M98.0944 31.0611C98.0944 31.0611 97.6875 28.8771 96.0677 29.3233C94.4479 29.7695 95.027 32.9242 97.3119 32.8459L98.0944 31.0611Z" fill="#F4A28C"/>
<path opacity="0.31" d="M99.3768 36.7912C98.1187 36.5507 96.95 35.9715 95.9964 35.116C95.9964 35.116 95.2687 39.1944 100.23 40.5956L99.3768 36.7912Z" fill="#CE8172"/>
<path d="M76.6858 50.506C76.6858 50.506 103.729 42.3805 131.289 53.8486C158.848 65.3168 116.977 139.034 116.977 139.034H74.753C74.753 139.034 35.6124 58.8038 76.6858 50.506Z" fill="#034A23"/>
<path d="M156.086 35.6953C158.117 35.6953 159.764 34.0481 159.764 32.0161C159.764 29.9842 158.117 28.3369 156.086 28.3369C154.055 28.3369 152.408 29.9842 152.408 32.0161C152.408 34.0481 154.055 35.6953 156.086 35.6953Z" fill="#C9C9C9"/>
<path d="M163.238 40.3375C162.761 37.6602 156.391 37.8638 156.055 37.8716C155.718 37.8794 149.356 37.6602 148.879 40.3375C148.48 42.5685 146.993 51.5395 146.445 54.8586C146.378 55.2007 146.446 55.5557 146.636 55.8481C146.826 56.1406 147.123 56.3472 147.463 56.4242C147.635 56.4635 147.814 56.4684 147.989 56.4385C148.163 56.4086 148.33 56.3446 148.48 56.25C148.629 56.1555 148.759 56.0323 148.861 55.8876C148.963 55.7429 149.036 55.5794 149.075 55.4066L151.712 43.6096L152.205 56.7217L151.751 76.0884C151.748 76.473 151.887 76.8452 152.141 77.134C152.395 77.4228 152.746 77.6079 153.128 77.654C153.34 77.6801 153.555 77.6625 153.759 77.6024C153.964 77.5423 154.154 77.441 154.319 77.3046C154.483 77.1682 154.617 76.9997 154.714 76.8094C154.811 76.6191 154.867 76.411 154.881 76.198L155.71 62.8902C155.71 62.7989 155.746 62.7113 155.811 62.6467C155.876 62.5821 155.963 62.5458 156.055 62.5458C156.146 62.5458 156.233 62.5821 156.298 62.6467C156.363 62.7113 156.399 62.7989 156.399 62.8902L157.236 76.198C157.249 76.411 157.306 76.6191 157.403 76.8094C157.5 76.9997 157.634 77.1682 157.798 77.3046C157.962 77.441 158.153 77.5423 158.357 77.6024C158.562 77.6625 158.777 77.6801 158.989 77.654C159.371 77.6079 159.722 77.4228 159.976 77.134C160.23 76.8452 160.369 76.473 160.366 76.0884L159.912 56.7217L160.413 43.5705L163.034 55.3752C163.073 55.5481 163.146 55.7115 163.248 55.8563C163.35 56.001 163.48 56.1242 163.629 56.2187C163.779 56.3133 163.946 56.3773 164.12 56.4072C164.295 56.4371 164.474 56.4322 164.646 56.3929C164.987 56.3159 165.284 56.1095 165.475 55.8174C165.667 55.5253 165.737 55.1703 165.671 54.8273C165.108 51.5395 163.629 42.5685 163.238 40.3375Z" fill="#C9C9C9"/>
<path d="M101.679 30.8575H106.562L104.496 37.7854L96.0684 33.0885V32.4701L98.6819 33.8556C98.8365 33.9396 99.0105 33.9813 99.1863 33.9766C99.3621 33.9719 99.5336 33.921 99.6835 33.8289C99.8334 33.7369 99.9565 33.607 100.04 33.4523C100.124 33.2975 100.166 33.1235 100.161 32.9476C100.139 32.4736 99.9898 32.0143 99.7279 31.6186C99.4661 31.223 99.1019 30.9058 98.6741 30.7009L97.8916 30.3095L97.2343 29.4797L98.8854 30.2625C99.7645 30.6549 100.716 30.8576 101.679 30.8575Z" fill="#034A23"/>
<path opacity="0.08" d="M81.6928 68.9177H91.7167L96.4977 98.1322H83.5239C83.5239 98.1322 78.109 122.188 96.8264 139.034H74.7521C74.7521 139.034 63.2024 110.955 61.0348 100.943L60.0176 79.2508L81.6928 68.9177Z" fill="black"/>
<path d="M91.9277 47.9933L97.0062 57.387L101.764 47.7585C98.5052 47.1425 95.1532 47.2225 91.9277 47.9933Z" fill="#F4A28C"/>
<path d="M55.1348 61.4968H79.8696L83.5239 90.179H59.1412L55.1348 61.4968Z" fill="#FFD200"/>
<path opacity="0.08" d="M62.9991 77.8418C64.4037 78.1005 65.706 78.7528 66.7546 79.7228C67.8033 80.6929 68.5551 81.9408 68.9226 83.3215C70.425 88.308 82.945 85.4272 82.945 85.4272L83.5475 90.1789L61.1445 90.1084L62.9991 77.8418Z" fill="black"/>
<path d="M62.1465 59.3284L63.242 63.6573H72.2955L71.4661 59.3284H62.1465Z" fill="#24285B"/>
<path d="M57.3026 86.9224C57.3026 86.9224 53.5231 79.6422 59.0476 77.0198C64.572 74.3974 65.7692 84.2373 61.1212 90.1084L57.3026 86.9224Z" fill="#207647"/>
<path d="M92.4915 31.061C92.4915 31.061 95.8797 26.7477 103.447 25.691C103.447 25.691 106.389 21.4325 102.601 18.4343C98.8141 15.4361 89.8154 18.4813 87.7339 22.6067C86.568 24.9238 85.7777 31.108 92.4915 31.061Z" fill="#034A23"/>
<path d="M57.3573 85.4507C57.3573 85.4507 37.0984 126.94 51.2147 131.503C65.331 136.067 62.0366 89.3647 62.0366 89.3647L57.3573 85.4507Z" fill="#F4A28C"/>
<path d="M117.821 62.6787C121.592 54.8506 131.906 52.9327 138.541 58.5689C147.853 66.5223 165.006 88.5975 168.136 109.694C173.097 143.097 125.622 146.228 125.622 146.228L124.057 138.924C124.057 138.924 155.201 131.096 146.28 109.178C139.144 91.6427 111.428 75.9395 117.821 62.6787Z" fill="#F4A28C"/>
<path opacity="0.08" d="M140.662 59.2893C140.662 59.2893 167.752 66.4599 173.331 91.6663H159.34L140.662 59.2893Z" fill="black"/>
<path d="M117.665 60.119C117.665 60.119 125.882 50.0756 136.32 56.0719C146.759 62.0682 160.413 84.1278 160.413 84.1278L137.361 100.778C137.361 100.778 103.846 72.1195 117.665 60.119Z" fill="#414134"/>
<path opacity="0.46" d="M117.665 60.119C117.665 60.119 125.882 50.0756 136.32 56.0719C146.759 62.0682 160.413 84.1278 160.413 84.1278L137.361 100.778C137.361 100.778 103.846 72.1195 117.665 60.119Z" fill="white"/>
<path d="M116.952 139.034H74.752L81.8023 201.283H89.7603L96.7715 150.855L123.017 201.283H130.842L116.952 139.034Z" fill="#414134"/>
<path opacity="0.08" d="M116.952 139.034H74.752L81.8023 201.283H89.7603L96.7715 150.855L123.017 201.283H130.842L116.952 139.034Z" fill="#ECFCF2"/>
<path d="M192.112 27.241H171.18V44.1653H192.112V27.241Z" fill="#C9C9C9"/>
<path d="M192.112 50.24H171.18V53.6844H192.112V50.24Z" fill="white"/>
<path opacity="0.5" d="M192.112 56.98H171.18V60.4243H192.112V56.98Z" fill="white"/>
<path opacity="0.5" d="M192.112 64.5183H171.18V67.9627H192.112V64.5183Z" fill="white"/>
<path d="M190.132 86.4527C192.613 86.4527 194.624 84.441 194.624 81.9594C194.624 79.4778 192.613 77.4661 190.132 77.4661C187.652 77.4661 185.641 79.4778 185.641 81.9594C185.641 84.441 187.652 86.4527 190.132 86.4527Z" fill="#24285B"/>
<path d="M124.058 138.925C124.058 138.925 110.231 142.009 114.324 147.489C118.416 152.968 125.623 146.228 125.623 146.228L124.058 138.925Z" fill="#207647"/>
<path d="M86.568 61.5593C86.4976 61.0975 85.003 50.2007 92.0455 46.9834V47.9854C85.5821 50.9522 87.3505 61.2932 87.3505 61.4341L86.568 61.5593Z" fill="#24285B"/>
<path d="M105.919 71.0313L105.137 70.8669C109.221 50.9757 101.678 47.7584 101.6 47.7271V46.866C101.96 46.9912 110.145 50.4747 105.919 71.0313Z" fill="#24285B"/>
<path d="M110.411 82.3743L108.885 81.9985C108.885 81.9437 110.184 76.5189 108.236 73.826C107.917 73.3927 107.503 73.0387 107.025 72.7916C106.547 72.5445 106.019 72.4109 105.481 72.4013C104.944 72.3344 104.399 72.3875 103.885 72.5567C103.371 72.7259 102.9 73.007 102.508 73.3798C100.051 75.7282 100.278 81.3801 100.278 81.4349L98.7127 81.5054C98.7127 81.247 98.4545 75.1411 101.412 72.2604C101.969 71.7268 102.636 71.3225 103.366 71.0762C104.097 70.83 104.872 70.7478 105.638 70.8357C106.404 70.8614 107.154 71.0608 107.832 71.4188C108.509 71.7768 109.097 72.284 109.55 72.9023C111.898 76.1666 110.466 82.116 110.411 82.3743Z" fill="#24285B"/>
<path d="M105.731 72.9963C106.543 72.9963 107.202 72.3374 107.202 71.5247C107.202 70.7119 106.543 70.053 105.731 70.053C104.918 70.053 104.26 70.7119 104.26 71.5247C104.26 72.3374 104.918 72.9963 105.731 72.9963Z" fill="#FFD200"/>
<path d="M87.1002 64.8157C88.6647 64.8157 89.9329 63.547 89.9329 61.982C89.9329 60.4169 88.6647 59.1482 87.1002 59.1482C85.5358 59.1482 84.2676 60.4169 84.2676 61.982C84.2676 63.547 85.5358 64.8157 87.1002 64.8157Z" fill="#FFD200"/>
<path opacity="0.08" d="M87.1002 63.5946C87.9905 63.5946 88.7122 62.8726 88.7122 61.982C88.7122 61.0914 87.9905 60.3694 87.1002 60.3694C86.21 60.3694 85.4883 61.0914 85.4883 61.982C85.4883 62.8726 86.21 63.5946 87.1002 63.5946Z" fill="black"/>
<path d="M101.873 89.3179C98.5477 87.6584 99.0407 80.0651 99.0641 79.7441L99.8466 79.7989C99.8466 79.8772 99.3615 87.1887 102.194 88.6212L101.873 89.3179Z" fill="#24285B"/>
<path d="M102.328 90.1007C103.054 90.1007 103.643 89.5119 103.643 88.7856C103.643 88.0593 103.054 87.4705 102.328 87.4705C101.602 87.4705 101.014 88.0593 101.014 88.7856C101.014 89.5119 101.602 90.1007 102.328 90.1007Z" fill="#FFD200"/>
<path d="M106.17 89.1847L105.92 88.4489C108.956 87.439 109.527 80.1276 109.535 80.0493L110.318 80.1119C110.286 80.4251 109.699 88.0183 106.17 89.1847Z" fill="#24285B"/>
<path d="M105.801 89.9127C106.527 89.9127 107.116 89.3239 107.116 88.5976C107.116 87.8713 106.527 87.2825 105.801 87.2825C105.075 87.2825 104.486 87.8713 104.486 88.5976C104.486 89.3239 105.075 89.9127 105.801 89.9127Z" fill="#FFD200"/>
</g>
</svg>
