<svg width="100" height="100" viewBox="0 0 100 100" fill="none" xmlns="http://www.w3.org/2000/svg">
<g clip-path="url(#clip0_62_1753)">
<path d="M15.5442 100.003C15.9586 100.003 16.356 99.8385 16.6491 99.5454C16.9421 99.2524 17.1067 98.855 17.1067 98.4406V85.0656C17.1067 81.2656 19.0317 77.7937 22.2598 75.7843L34.7192 68.0187C36.6246 70.2009 38.9728 71.9523 41.6076 73.1566C44.2425 74.3609 47.1035 74.9903 50.0005 75.0031C52.8963 74.99 55.7562 74.3611 58.3904 73.158C61.0245 71.9549 63.3725 70.2051 65.2786 68.0249L77.7379 75.7843C79.3194 76.762 80.6238 78.1289 81.5265 79.7543C82.4292 81.3797 82.9001 83.2094 82.8942 85.0687V98.4406C82.8942 98.855 83.0588 99.2524 83.3519 99.5454C83.6449 99.8385 84.0423 100.003 84.4567 100.003C84.8711 100.003 85.2685 99.8385 85.5616 99.5454C85.8546 99.2524 86.0192 98.855 86.0192 98.4406V85.0687C86.0268 82.6783 85.4215 80.3259 84.2611 78.236C83.1007 76.1462 81.424 74.3886 79.3911 73.1312L72.1536 68.6249C74.0098 68.3564 75.7067 67.4264 76.9317 66.0062C77.6663 65.1463 78.2047 64.1367 78.5096 63.0477C78.8145 61.9586 78.8786 60.8163 78.6973 59.7C77.4051 51.6445 76.7551 43.499 76.7536 35.3406V26.5656V26.5593C76.7536 11.9125 64.838 -0.00317383 50.1911 -0.00317383C35.5442 -0.00317383 23.6286 11.9125 23.6286 26.5593V35.3437C23.6286 43.4781 22.9755 51.6749 21.6848 59.7031C21.5053 60.8194 21.5701 61.9613 21.875 63.0501C22.1798 64.1389 22.7174 65.1486 23.4505 66.0093C24.6067 67.3656 26.1786 68.2531 27.8942 68.5906L20.6036 73.1343C18.5719 74.3921 16.8962 76.1493 15.7365 78.2385C14.5767 80.3277 13.9715 82.6792 13.9786 85.0687V98.4437C13.979 98.6489 14.0198 98.852 14.0987 99.0414C14.1776 99.2308 14.293 99.4028 14.4384 99.5476C14.5838 99.6924 14.7563 99.8072 14.946 99.8853C15.1357 99.9635 15.339 100.003 15.5442 100.003ZM50.0005 71.8781C47.6331 71.869 45.2928 71.3737 43.1249 70.4227C40.9569 69.4718 39.0074 68.0855 37.3973 66.35L41.4442 63.8281C41.6655 63.6859 41.8469 63.4896 41.971 63.2577C42.0952 63.0258 42.158 62.7661 42.1536 62.5031H42.1817V55.2562C44.5567 56.3374 47.188 56.9562 49.963 56.9562C52.763 56.9562 55.4129 56.325 57.8067 55.2281V62.5031H57.8348C57.8348 63.0249 58.0692 63.5343 58.5442 63.8281L62.6036 66.3562C60.9924 68.0899 59.0426 69.4745 56.8747 70.4243C54.7069 71.3741 52.3672 71.8689 50.0005 71.8781ZM41.4005 23.7656C47.0789 27.1892 53.5854 28.9949 60.2161 28.9875H60.2192L61.338 29.0187C62.9317 29.0187 64.4067 29.4593 65.7161 30.175C65.7161 30.2031 65.7005 30.2281 65.7005 30.2562V38.0937C65.6955 42.266 64.0358 46.266 61.0856 49.2163C58.1353 52.1666 54.1353 53.8262 49.963 53.8312C45.7909 53.8262 41.7912 52.1665 38.8414 49.2161C35.8917 46.2658 34.2327 42.2657 34.2286 38.0937V34.75C34.2383 32.4226 34.9204 30.1477 36.1928 28.1989C37.4651 26.2501 39.2736 24.7106 41.4005 23.7656ZM74.5505 63.9812C74.1108 64.4983 73.5638 64.9135 72.9476 65.1979C72.3313 65.4823 71.6604 65.6291 70.9817 65.6281H67.338L60.9255 61.6343V53.4093C63.3651 51.6689 65.3541 49.3713 66.7271 46.7075C68.1 44.0436 68.8173 41.0905 68.8192 38.0937V32.8875C69.9506 34.4458 70.5619 36.3211 70.5661 38.2468C70.568 38.5856 70.6798 38.9146 70.8846 39.1844C71.0894 39.4543 71.3762 39.6504 71.702 39.7434C72.0278 39.8363 72.3749 39.8212 72.6913 39.7001C73.0077 39.579 73.2763 39.3585 73.4567 39.0718L73.6942 38.6812C73.8505 45.8781 74.4723 53.0968 75.6067 60.1906C75.718 60.8612 75.6812 61.5481 75.4987 62.2029C75.3162 62.8578 74.9926 63.4648 74.5505 63.9812ZM29.4005 65.6281C28.722 65.6281 28.0516 65.4808 27.4356 65.1964C26.8196 64.912 26.2727 64.4973 25.8326 63.9808C25.3926 63.4644 25.0698 62.8586 24.8868 62.2053C24.7037 61.552 24.6647 60.8667 24.7723 60.1968C26.0848 52.0031 26.7536 43.6406 26.7536 35.3406V26.5593C26.7536 13.6343 37.2661 3.12183 50.1911 3.12183C63.1161 3.12183 73.6286 13.6343 73.6286 26.5593C73.6286 28.8937 73.2942 31.1718 72.6567 33.3031C71.6991 31.1071 70.1231 29.2373 68.1211 27.9217C66.119 26.606 63.7773 25.9014 61.3817 25.8937L60.263 25.8625C53.1348 25.8625 46.3255 23.6562 40.5786 19.4875C40.4332 19.3343 40.258 19.2127 40.0637 19.1301C39.8694 19.0476 39.6602 19.0058 39.4491 19.0074C39.238 19.0091 39.0295 19.0541 38.8365 19.1397C38.6435 19.2253 38.4702 19.3496 38.3273 19.505C38.1843 19.6604 38.0749 19.8435 38.0057 20.0429C37.9364 20.2423 37.9089 20.4539 37.9249 20.6644C37.9408 20.8749 37.9999 21.0799 38.0984 21.2666C38.1968 21.4534 38.3326 21.6179 38.4973 21.75C36.2508 23.0981 34.3898 25.0027 33.0941 27.2799C31.7984 29.5571 31.1117 32.13 31.1005 34.75V38.0968C31.1032 41.1061 31.8266 44.0709 33.2103 46.7431C34.594 49.4153 36.5977 51.7173 39.0536 53.4562V61.6343L32.6473 65.6281H29.4005Z" fill="#034A23"/>
<path d="M29.6869 100.003C30.1013 100.003 30.4988 99.8385 30.7918 99.5455C31.0848 99.2525 31.2494 98.855 31.2494 98.4406V90.9625C31.2494 88.0438 30.1651 85.2531 28.1963 83.0969C27.9166 82.7911 27.5268 82.6089 27.1128 82.5904C26.6987 82.572 26.2943 82.7187 25.9885 82.9985C25.6827 83.2782 25.5005 83.6679 25.482 84.082C25.4636 84.496 25.6103 84.9004 25.8901 85.2063C27.3307 86.7844 28.1244 88.825 28.1244 90.9625V98.4406C28.1244 98.855 28.289 99.2525 28.5821 99.5455C28.8751 99.8385 29.2725 100.003 29.6869 100.003ZM71.7994 83.1C69.8358 85.2475 68.7476 88.0526 68.7494 90.9625V98.4406C68.7494 98.855 68.914 99.2525 69.2071 99.5455C69.5001 99.8385 69.8975 100.003 70.3119 100.003C70.7263 100.003 71.1238 99.8385 71.4168 99.5455C71.7098 99.2525 71.8744 98.855 71.8744 98.4406V90.9625C71.8744 88.8281 72.6682 86.7844 74.1057 85.2063C74.252 85.0563 74.3666 84.8784 74.4428 84.6833C74.5189 84.4881 74.5551 84.2796 74.549 84.0701C74.543 83.8607 74.4949 83.6546 74.4076 83.4642C74.3203 83.2737 74.1956 83.1028 74.0409 82.9615C73.8862 82.8202 73.7046 82.7115 73.5071 82.6418C73.3095 82.572 73.0999 82.5428 72.8908 82.5557C72.6817 82.5686 72.4773 82.6235 72.2898 82.717C72.1023 82.8105 71.9356 82.9408 71.7994 83.1Z" fill="#034A23"/>
</g>
<defs>
<clipPath id="clip0_62_1753">
<rect width="100" height="100" fill="white"/>
</clipPath>
</defs>
</svg>
