<svg width="221" height="110" viewBox="0 0 221 110" fill="none" xmlns="http://www.w3.org/2000/svg">
<g opacity="0.5" clip-path="url(#clip0_477_3228)">
<path d="M60.3399 89.9671C66.3395 89.9671 71.2032 85.1094 71.2032 79.1171C71.2032 73.1248 66.3395 68.2671 60.3399 68.2671C54.3402 68.2671 49.4766 73.1248 49.4766 79.1171C49.4766 85.1094 54.3402 89.9671 60.3399 89.9671Z" fill="#E4E4E4"/>
<path opacity="0.2" d="M52.3191 71.8701C51.3058 74.2375 51.1683 76.8876 51.9312 79.3469C52.6942 81.8062 54.3078 83.9144 56.4838 85.2948C58.6598 86.6753 61.2563 87.2379 63.8094 86.8823C66.3625 86.5266 68.7058 85.2758 70.4206 83.3534C69.8016 84.7998 68.8751 86.0945 67.7054 87.1477C66.5357 88.201 65.1507 88.9877 63.6464 89.4533C62.1421 89.9188 60.5544 90.0522 58.9933 89.8441C57.4322 89.636 55.9352 89.0914 54.6058 88.248C53.2763 87.4047 52.1464 86.2827 51.2942 84.9599C50.4421 83.6371 49.888 82.1451 49.6705 80.5872C49.453 79.0293 49.5772 77.4428 50.0345 75.9376C50.4919 74.4324 51.2714 73.0445 52.3191 71.8701Z" fill="black"/>
<path d="M60.3699 79.1172H60.3996L60.9369 109.879H59.8027L60.3699 79.1172Z" fill="#3F3D56"/>
<path d="M38.3614 69.7335C50.4578 69.7335 60.2639 59.9395 60.2639 47.858C60.2639 35.7764 50.4578 25.9824 38.3614 25.9824C26.265 25.9824 16.459 35.7764 16.459 47.858C16.459 59.9395 26.265 69.7335 38.3614 69.7335Z" fill="#E4E4E4"/>
<path opacity="0.2" d="M22.1886 33.2468C20.1456 38.0199 19.8684 43.363 21.4067 48.3214C22.9449 53.2798 26.1983 57.5303 30.5855 60.3135C34.9726 63.0966 40.2077 64.231 45.3552 63.514C50.5027 62.7969 55.2272 60.2751 58.6845 56.3993C57.4365 59.3154 55.5686 61.9257 53.2103 64.0493C50.8519 66.1729 48.0595 67.7589 45.0265 68.6977C41.9935 69.6364 38.7924 69.9052 35.645 69.4857C32.4976 69.0661 29.4792 67.9681 26.7989 66.2677C24.1186 64.5674 21.8404 62.3053 20.1223 59.6383C18.4042 56.9713 17.2871 53.963 16.8486 50.822C16.41 47.6811 16.6605 44.4824 17.5825 41.4476C18.5046 38.4129 20.0762 35.6147 22.1886 33.2468Z" fill="black"/>
<path d="M38.4205 47.8577H38.4808L39.5639 109.878H37.2773L38.4205 47.8577Z" fill="#3F3D56"/>
<path d="M182.764 77.7771H82.373V107.501H182.764V77.7771Z" fill="#F0F0F0"/>
<path d="M138.421 83.9199H126.715V107.501H138.421V83.9199Z" fill="#CACACA"/>
<path d="M176.91 42.7031H88.2246V70.0489H176.91V42.7031Z" fill="#F0F0F0"/>
<path d="M185.902 44.3874H79.2346C79.0565 44.3874 78.8825 44.3342 78.7349 44.2347C78.5873 44.1351 78.4729 43.9938 78.4064 43.8288C78.3399 43.6638 78.3243 43.4827 78.3616 43.3088C78.399 43.1349 78.4875 42.9761 78.6159 42.8528L107.768 14.8657V2.67514C107.769 2.43872 107.863 2.21207 108.03 2.04489C108.197 1.87772 108.424 1.78369 108.661 1.78342H114.415C114.651 1.78368 114.878 1.87771 115.046 2.04489C115.213 2.21206 115.307 2.43872 115.308 2.67514V7.62792L117.509 5.51398C121.113 2.05471 125.893 0.0857309 130.891 0.00273427C135.888 -0.0802624 140.731 1.72888 144.448 5.06658L186.499 42.8325C186.634 42.9531 186.728 43.1116 186.77 43.287C186.813 43.4624 186.801 43.6464 186.736 43.8149C186.671 43.9833 186.557 44.1282 186.408 44.2304C186.259 44.3326 186.083 44.3874 185.902 44.3874V44.3874Z" fill="#CACACA"/>
<path d="M111.637 49.6387C112.379 49.6387 113.115 49.7847 113.801 50.0686C114.487 50.3524 115.11 50.7684 115.635 51.2928C116.16 51.8172 116.577 52.4398 116.861 53.125C117.145 53.8102 117.291 54.5445 117.291 55.2862V62.9153H105.982V55.2862C105.982 54.5445 106.129 53.8101 106.413 53.125C106.697 52.4398 107.114 51.8172 107.639 51.2928C108.164 50.7684 108.787 50.3524 109.473 50.0686C110.159 49.7847 110.894 49.6387 111.637 49.6387Z" fill="white"/>
<path d="M132.569 49.7375C134.068 49.7375 135.506 50.3326 136.567 51.3917C137.627 52.4508 138.223 53.8872 138.223 55.385V63.0141H126.914V55.385C126.914 53.8872 127.51 52.4508 128.57 51.3917C129.631 50.3326 131.069 49.7375 132.569 49.7375Z" fill="white"/>
<path d="M153.5 49.8367C155 49.8367 156.438 50.4317 157.498 51.4908C158.559 52.5499 159.155 53.9864 159.155 55.4842V63.1133H147.846V55.4842C147.846 53.9864 148.441 52.5499 149.502 51.4908C150.562 50.4317 152.001 49.8367 153.5 49.8367Z" fill="white"/>
<path d="M161.832 83.6226C163.332 83.6226 164.77 84.2176 165.83 85.2767C166.891 86.3358 167.487 87.7722 167.487 89.2701V96.8991H156.178V89.2701C156.178 87.7722 156.773 86.3358 157.834 85.2767C158.894 84.2176 160.333 83.6226 161.832 83.6226Z" fill="white"/>
<path d="M105.883 83.6226C107.383 83.6226 108.821 84.2176 109.881 85.2767C110.942 86.3358 111.537 87.7722 111.537 89.2701V96.8991H100.229V89.2701C100.229 88.5284 100.375 87.794 100.659 87.1088C100.943 86.4237 101.36 85.8011 101.885 85.2767C102.41 84.7522 103.033 84.3363 103.719 84.0524C104.405 83.7686 105.14 83.6226 105.883 83.6226Z" fill="white"/>
<path d="M197.43 78.241L178.598 69.9184C178.496 69.8737 178.387 69.8506 178.276 69.8506H88.5249C88.4225 69.8506 88.321 69.8704 88.2261 69.9089L67.7272 78.2316C67.5567 78.3008 67.4155 78.4271 67.328 78.5888C67.2404 78.7504 67.2119 78.9375 67.2472 79.1179C67.2825 79.2983 67.3795 79.4609 67.5216 79.5777C67.6636 79.6946 67.842 79.7585 68.026 79.7585H73.3445V107.104H72.7493V109.878H192.386V107.104H191.394V79.7585H197.109C197.291 79.7585 197.467 79.696 197.609 79.5815C197.75 79.4671 197.848 79.3076 197.885 79.1297C197.923 78.9519 197.898 78.7666 197.815 78.6048C197.732 78.443 197.596 78.3145 197.43 78.241ZM189.806 107.104H74.9317V79.7585H189.806V107.104Z" fill="#CACACA"/>
<path d="M118.681 61.8252H104.197V64.2031H118.681V61.8252Z" fill="#CACACA"/>
<path d="M139.909 61.8252H125.426V64.2031H139.909V61.8252Z" fill="#CACACA"/>
<path d="M161.138 61.8252H146.654V64.2031H161.138V61.8252Z" fill="#CACACA"/>
<path d="M169.075 96.1067H154.592V98.4846H169.075V96.1067Z" fill="#CACACA"/>
<path d="M112.927 96.1067H98.4434V98.4846H112.927V96.1067Z" fill="#CACACA"/>
<path d="M220.757 110H0.243124C0.178644 110 0.116804 109.974 0.0712093 109.929C0.0256146 109.883 0 109.822 0 109.757C0 109.693 0.0256146 109.631 0.0712093 109.586C0.116804 109.54 0.178644 109.514 0.243124 109.514H220.757C220.821 109.514 220.883 109.54 220.929 109.586C220.974 109.631 221 109.693 221 109.757C221 109.822 220.974 109.883 220.929 109.929C220.883 109.974 220.821 110 220.757 110Z" fill="#3F3D56"/>
<path d="M165.293 42.2953C165.293 42.4507 165.291 42.6085 165.288 42.7639C165.286 42.9509 165.281 43.1355 165.274 43.3224C165.266 43.4851 165.259 43.6454 165.249 43.8056C165.22 44.3423 165.174 44.8765 165.111 45.4132C165.096 45.5491 165.079 45.6827 165.06 45.8187C165.045 45.9231 165.03 46.03 165.013 46.1368C164.996 46.2558 164.979 46.3748 164.96 46.4937C164.921 46.7463 164.877 46.9988 164.829 47.2514C164.804 47.3776 164.78 47.5039 164.753 47.6301C164.702 47.8803 164.646 48.1328 164.588 48.3829C164.583 48.4024 164.578 48.4242 164.573 48.4436C164.544 48.5675 164.515 48.6889 164.483 48.8127C164.474 48.8491 164.466 48.8832 164.454 48.9196C164.432 49.0118 164.408 49.1041 164.384 49.1964C164.35 49.3251 164.316 49.4513 164.279 49.58C164.221 49.7792 164.163 49.9759 164.102 50.175C164.094 50.1957 164.088 50.2167 164.082 50.2381C163.966 50.6145 163.842 50.986 163.705 51.3551C163.635 51.5494 163.56 51.7461 163.484 51.9403C163.409 52.1346 163.331 52.3288 163.251 52.5207C163.173 52.7077 163.093 52.8946 163.013 53.0792C162.993 53.1229 162.974 53.1666 162.952 53.2103C162.867 53.4021 162.779 53.5891 162.689 53.7761C162.687 53.7785 162.687 53.7834 162.684 53.7858C162.614 53.9363 162.538 54.0869 162.463 54.235C162.463 54.2395 162.461 54.2438 162.458 54.2471C162.385 54.3929 162.31 54.5385 162.232 54.6818L162.108 54.9173L162.093 54.9441C161.938 55.233 161.777 55.5196 161.607 55.8037C161.571 55.8668 161.534 55.9299 161.498 55.9906C161.461 56.0538 161.423 56.1169 161.384 56.1776C161.359 56.2213 161.333 56.265 161.303 56.3087C161.252 56.3913 161.201 56.4763 161.148 56.5588C161.138 56.5758 161.126 56.5928 161.116 56.6098C161.024 56.7531 160.931 56.8939 160.839 57.0372C160.725 57.2096 160.608 57.3796 160.489 57.5496L157.849 61.7699L157.734 61.6752L157.703 61.646H157.7L157.596 61.5586L157.309 61.3158C157.221 61.4008 157.136 61.4858 157.049 61.5683C157.015 61.6023 156.978 61.6339 156.944 61.6679C156.917 61.6922 156.893 61.7164 156.866 61.7407C152.302 66.1929 146.23 68.771 139.852 68.9648H139.845C135.018 69.0972 130.239 67.9707 125.98 65.6963C125.885 65.6478 125.793 65.5992 125.7 65.5433C125.146 65.2422 124.604 64.9241 124.071 64.5842C124.069 64.5817 124.066 64.5817 124.064 64.5793C123.446 64.1422 122.844 63.676 122.255 63.1806C119.099 60.5233 116.602 57.1718 114.959 53.389C113.317 49.6062 112.575 45.4948 112.79 41.3773C112.798 41.2146 112.807 41.0544 112.819 40.8917C112.858 40.304 112.918 39.7188 112.999 39.136C113.021 38.9733 113.046 38.8107 113.07 38.6504H165.045C165.147 39.3934 165.218 40.1405 165.257 40.8917C165.281 41.3604 165.293 41.8266 165.293 42.2953Z" fill="#F0F0F0"/>
<path d="M165.044 38.6504C164.108 32.4354 160.971 26.7621 156.202 22.6617C151.433 18.5613 145.349 16.3062 139.056 16.3062C132.764 16.3062 126.68 18.5613 121.911 22.6617C117.142 26.7621 114.005 32.4354 113.069 38.6504C113.045 38.8107 113.02 38.9734 112.998 39.1361C112.918 39.7189 112.858 40.3041 112.818 40.8917H165.255C165.216 40.1414 165.146 39.3943 165.044 38.6504Z" fill="#207647"/>
<path d="M140.76 65.6957H125.701V53.6646C125.979 48.1663 130.684 47.7223 135.105 48.0174C135.848 48.0173 136.583 48.1634 137.269 48.4471C137.955 48.7309 138.579 49.1469 139.104 49.6713C139.629 50.1957 140.045 50.8182 140.329 51.5034C140.613 52.1886 140.76 52.9229 140.76 53.6646V65.6957Z" fill="#207647"/>
<path d="M125.7 57.1417V57.1441C125.7 57.1465 125.703 57.1465 125.705 57.1465L125.7 57.1417ZM119.644 38.6505C119.634 38.7112 119.622 38.7719 119.612 38.8326C119.622 38.7719 119.634 38.7112 119.646 38.6505H119.644ZM119.343 40.8918C119.335 40.9841 119.328 41.0763 119.323 41.1686C119.328 41.0763 119.335 40.9841 119.345 40.8918C119.345 40.8748 119.345 40.8577 119.347 40.8408C119.345 40.8578 119.345 40.8748 119.343 40.8918ZM125.7 57.1441C125.7 57.1465 125.703 57.1465 125.705 57.1465L125.7 57.1417V57.1441ZM119.644 38.6505C119.634 38.7112 119.622 38.7719 119.612 38.8326C119.622 38.7719 119.634 38.7112 119.646 38.6505H119.644ZM119.323 41.1686C119.328 41.0763 119.335 40.9841 119.345 40.8918C119.345 40.8748 119.345 40.8577 119.347 40.8408C119.345 40.8578 119.345 40.8748 119.343 40.8918C119.335 40.9841 119.328 41.0763 119.323 41.1686ZM194.434 85.8388C194.387 85.7887 194.336 85.7417 194.283 85.6979L194.281 85.6955L182.241 75.5479L181.93 75.2856L180.746 74.2876L180.449 74.0375L178.762 72.6145L178.3 72.226L177.345 71.4198L176.856 71.007L172.246 67.1242L169.604 64.8975L169.249 64.5988L161.461 58.0353C161.581 57.8653 161.697 57.6953 161.811 57.5229C161.904 57.3796 161.996 57.2388 162.089 57.0955C162.098 57.0786 162.111 57.0615 162.12 57.0445C162.174 56.962 162.225 56.877 162.276 56.7944C162.305 56.7507 162.332 56.707 162.356 56.6633C162.395 56.6026 162.434 56.5395 162.47 56.4763C162.507 56.4156 162.543 56.3525 162.58 56.2894C162.75 56.0053 162.91 55.7187 163.066 55.4298L163.081 55.403L163.205 55.1675C163.282 55.0242 163.358 54.8786 163.431 54.7328C163.434 54.7295 163.435 54.7252 163.436 54.7207C163.511 54.5726 163.586 54.4221 163.657 54.2715C163.659 54.2691 163.659 54.2642 163.662 54.2618C163.752 54.0748 163.839 53.8878 163.924 53.696C163.946 53.6523 163.966 53.6086 163.985 53.5649C164.065 53.3803 164.145 53.1934 164.223 53.0064C164.304 52.8146 164.381 52.6203 164.457 52.426C164.532 52.2318 164.607 52.0351 164.678 51.8408C164.812 51.4693 164.937 51.097 165.055 50.7238C165.06 50.7024 165.067 50.6814 165.074 50.6607C165.135 50.4616 165.193 50.2649 165.252 50.0657C165.288 49.937 165.322 49.8108 165.356 49.6821C165.381 49.5898 165.405 49.4975 165.427 49.4053C165.439 49.3689 165.446 49.3349 165.456 49.2984C165.488 49.1746 165.517 49.0532 165.546 48.9293C165.551 48.9099 165.556 48.8881 165.56 48.8686C165.619 48.6185 165.675 48.366 165.726 48.1159C165.753 47.9896 165.777 47.8633 165.801 47.7371C165.847 47.4845 165.894 47.232 165.932 46.9795C165.952 46.8605 165.969 46.7415 165.986 46.6225C166.003 46.5157 166.018 46.4088 166.032 46.3044C166.052 46.1684 166.069 46.0348 166.083 45.8989C166.146 45.3622 166.193 44.828 166.222 44.2913C166.231 44.1311 166.239 43.9708 166.246 43.8081C166.253 43.6212 166.258 43.4366 166.261 43.2496C166.263 43.0942 166.266 42.9364 166.266 42.781C166.266 42.3123 166.253 41.8461 166.229 41.3774C166.19 40.6271 166.12 39.88 166.018 39.1362C165.146 32.7777 162.013 26.9447 157.191 22.7033C152.369 18.4619 146.179 16.0955 139.754 16.0365C133.329 15.9776 127.097 18.2301 122.197 22.3823C117.298 26.5345 114.058 32.3091 113.07 38.6505C113.046 38.8108 113.021 38.9735 112.999 39.1362C112.919 39.7189 112.859 40.3042 112.819 40.8918C112.807 41.0545 112.798 41.2148 112.79 41.3774C112.575 45.4949 113.317 49.6063 114.959 53.3891C116.602 57.172 119.099 60.5234 122.255 63.1808C122.844 63.6761 123.446 64.1424 124.064 64.5794C124.066 64.5819 124.069 64.5819 124.071 64.5843C124.278 64.73 124.485 64.8732 124.694 65.0141C125.027 65.2326 125.362 65.4463 125.7 65.6503C125.727 65.6648 125.754 65.6819 125.78 65.6964C126.072 65.8713 126.366 66.0388 126.661 66.2015H126.663C127.758 66.8028 128.895 67.3254 130.064 67.7653C133.496 69.0548 137.156 69.6283 140.818 69.4505H140.825C145.099 69.244 149.261 68.0139 152.959 65.864C153.497 65.5532 154.027 65.2205 154.545 64.866C154.673 64.7785 154.805 64.6887 154.931 64.5989C155.087 64.4896 155.242 64.3755 155.398 64.2613C155.4 64.2613 155.4 64.2589 155.403 64.2589C155.414 64.2492 155.426 64.2403 155.439 64.2322C155.544 64.152 155.651 64.0719 155.753 63.9942C155.78 63.9748 155.806 63.9554 155.833 63.9335C155.84 63.9286 155.847 63.9229 155.852 63.9165C155.913 63.8728 155.972 63.8242 156.032 63.7781C156.093 63.732 156.152 63.6834 156.212 63.6348C156.223 63.6283 156.232 63.621 156.242 63.613C156.31 63.5571 156.378 63.5037 156.446 63.4479C156.516 63.392 156.584 63.3337 156.65 63.2779C156.718 63.222 156.784 63.1662 156.852 63.1079C156.91 63.0593 156.971 63.0083 157.029 62.9549C157.049 62.9403 157.066 62.9233 157.085 62.9063C157.093 62.8992 157.101 62.8926 157.109 62.8869C157.19 62.8189 157.267 62.7485 157.345 62.6781C157.365 62.6611 157.382 62.6441 157.401 62.6271C157.52 62.5202 157.639 62.4134 157.756 62.3017C157.783 62.2774 157.812 62.2507 157.839 62.2264C157.866 62.2021 157.89 62.1779 157.917 62.1536C157.951 62.1196 157.987 62.088 158.021 62.054C158.109 61.9715 158.194 61.8865 158.281 61.8015L158.568 62.0443L158.673 62.1317H158.675L158.707 62.1609L158.821 62.2556L160.518 63.6883L160.555 63.7198L160.584 63.7417L160.776 63.9043L161.16 64.2297L161.544 64.5527L161.6 64.5989L163.387 66.1044L163.635 66.3132L165.359 67.7653L174.281 75.2856L174.593 75.5479L186.805 85.8388L189.936 88.4783L191.101 89.4593C191.348 89.6683 191.634 89.8265 191.942 89.9249C192.251 90.0233 192.576 90.0601 192.898 90.033C193.221 90.006 193.535 89.9156 193.823 89.7672C194.11 89.6188 194.366 89.4151 194.575 89.168C194.75 88.9629 194.889 88.7297 194.986 88.4783C195.162 88.0327 195.204 87.5451 195.106 87.0759C195.008 86.6068 194.774 86.1767 194.434 85.8388ZM124.008 29.5494C126.447 26.6626 129.654 24.5238 133.259 23.3802C136.863 22.2366 140.718 22.1348 144.378 23.0865C148.038 24.0383 151.354 26.0048 153.942 28.7589C156.531 31.5129 158.286 34.9422 159.006 38.6505C159.037 38.8132 159.067 38.9735 159.093 39.1362C159.193 39.7165 159.266 40.3041 159.31 40.8918C159.322 41.0545 159.334 41.2147 159.341 41.3774C159.363 41.7417 159.373 42.1083 159.373 42.4726C159.374 44.682 159.008 46.8763 158.289 48.9657V48.9682C157.485 51.3109 156.25 53.4833 154.649 55.3739C154.615 55.4128 154.581 55.4541 154.545 55.4929C154.224 55.8717 153.886 56.236 153.538 56.5832C153.536 56.5856 153.533 56.5905 153.531 56.5929C153.412 56.7119 153.29 56.8333 153.168 56.945C152.92 57.1854 152.668 57.4137 152.41 57.6322C152.023 57.9697 151.627 58.2862 151.221 58.5817C151.085 58.6812 150.949 58.7784 150.81 58.8755C150.674 58.9726 150.535 59.0649 150.397 59.1572C150.12 59.3417 149.838 59.519 149.553 59.6865C149.412 59.7715 149.266 59.8541 149.123 59.9342C148.979 60.0167 148.834 60.0944 148.688 60.1697C148.542 60.2474 148.396 60.3227 148.248 60.3956C147.953 60.5437 147.657 60.6821 147.355 60.8108C147.205 60.8788 147.054 60.9419 146.903 61.0002C146.808 61.039 146.716 61.0779 146.621 61.1119C146.584 61.129 146.546 61.1436 146.507 61.1556C146.456 61.1775 146.405 61.1969 146.354 61.2139C146.337 61.2214 146.32 61.2279 146.303 61.2333C146.198 61.2746 146.096 61.311 145.989 61.3475C145.836 61.4033 145.683 61.4543 145.527 61.5029C145.371 61.5539 145.218 61.6024 145.063 61.6461C144.907 61.6947 144.749 61.7384 144.593 61.7797C144.435 61.8234 144.28 61.8647 144.122 61.9011C143.954 61.9448 143.786 61.9837 143.616 62.0201C143.468 62.0541 143.322 62.0832 143.174 62.1099C143.035 62.139 142.894 62.1634 142.755 62.1876C142.561 62.2216 142.366 62.2532 142.169 62.2799C142.062 62.2969 141.958 62.3115 141.851 62.3212C141.805 62.3285 141.761 62.3333 141.717 62.3382C141.581 62.3576 141.445 62.3722 141.311 62.3843C141.275 62.3867 141.241 62.3916 141.207 62.394C141.058 62.4086 140.908 62.4208 140.759 62.4329C140.441 62.4547 140.125 62.4693 139.806 62.4766C139.646 62.479 139.483 62.4814 139.322 62.4814C139.162 62.4814 139.002 62.479 138.841 62.4742C138.841 62.4742 138.841 62.4766 138.839 62.4742C138.836 62.4766 138.836 62.4766 138.834 62.4742C138.833 62.4745 138.833 62.4747 138.833 62.4749C138.832 62.4751 138.832 62.4752 138.831 62.4752C138.831 62.4752 138.83 62.4751 138.83 62.4749C138.83 62.4747 138.829 62.4745 138.829 62.4742C138.821 62.4766 138.813 62.4766 138.805 62.4742C138.69 62.4742 138.576 62.4693 138.464 62.462C138.382 62.4596 138.296 62.4572 138.211 62.4499C138.097 62.445 137.983 62.4377 137.869 62.428C137.832 62.428 137.796 62.4232 137.759 62.4208C137.742 62.4203 137.725 62.4187 137.708 62.4159C137.591 62.4062 137.472 62.3965 137.356 62.3843C137.297 62.3795 137.237 62.3746 137.178 62.3673C137.001 62.3479 136.823 62.326 136.648 62.3018C136.449 62.2775 136.249 62.2483 136.052 62.2119C135.96 62.1998 135.87 62.1828 135.78 62.1658C135.661 62.1463 135.542 62.1245 135.423 62.1002C135.299 62.0759 135.175 62.0517 135.051 62.0225C134.951 62.0006 134.849 61.9788 134.749 61.9545C134.701 61.9448 134.652 61.9327 134.606 61.9205C134.351 61.8598 134.098 61.7943 133.847 61.7214C133.689 61.6777 133.531 61.6316 133.376 61.583C133.162 61.5174 132.95 61.447 132.739 61.3717C132.656 61.345 132.576 61.3159 132.493 61.2843C132.41 61.2576 132.33 61.226 132.248 61.1945C132.172 61.1677 132.097 61.1386 132.024 61.1095C131.902 61.0633 131.783 61.0148 131.664 60.9662C131.418 60.8666 131.178 60.7622 130.937 60.6506C130.801 60.585 130.665 60.5219 130.531 60.4563C130.004 60.2013 129.484 59.918 128.973 59.6064C128.846 59.5311 128.72 59.451 128.593 59.3709C128.435 59.2738 128.282 59.1717 128.129 59.0698C128.044 59.0115 127.961 58.9556 127.879 58.8974C127.725 58.7905 127.575 58.6812 127.426 58.572C127.349 58.5161 127.271 58.4578 127.195 58.3996C126.926 58.1956 126.661 57.9819 126.4 57.7633C126.276 57.6589 126.152 57.5521 126.031 57.4428C125.98 57.3991 125.929 57.353 125.878 57.3068C125.819 57.2534 125.761 57.2024 125.705 57.1466L125.7 57.1417C125.615 57.0665 125.53 56.9863 125.447 56.9062C125.319 56.7848 125.192 56.6609 125.071 56.5347C124.944 56.4108 124.823 56.2821 124.703 56.1559C124.582 56.0296 124.465 55.9009 124.351 55.7697C124.234 55.6411 124.12 55.51 124.008 55.3764C123.899 55.2501 123.792 55.119 123.69 54.9903C123.442 54.6843 123.205 54.3727 122.98 54.0554C122.875 53.9097 122.775 53.764 122.678 53.6159C122.574 53.4653 122.474 53.3124 122.379 53.1594C122.279 53.0064 122.185 52.851 122.092 52.6932C122.09 52.6878 122.087 52.6828 122.083 52.6786C121.9 52.3702 121.725 52.0594 121.562 51.7437C121.394 51.4232 121.236 51.0994 121.088 50.7724C121.013 50.6097 120.94 50.4446 120.872 50.2795C120.731 49.9468 120.599 49.6141 120.478 49.2766C120.417 49.1139 120.361 48.9512 120.305 48.7861C120.303 48.7752 120.3 48.7645 120.296 48.7545C120.184 48.4194 120.082 48.0819 119.992 47.7419C119.989 47.7371 119.989 47.7323 119.987 47.7274C119.941 47.5598 119.897 47.3923 119.858 47.2223C119.819 47.0742 119.785 46.926 119.753 46.7755C119.717 46.6079 119.68 46.4404 119.649 46.2704C119.632 46.183 119.615 46.0956 119.6 46.0082C119.586 45.9353 119.573 45.86 119.561 45.7872C119.549 45.7144 119.537 45.6391 119.525 45.5638C119.5 45.4157 119.479 45.2676 119.459 45.1194C119.435 44.9446 119.415 44.7697 119.396 44.5925C119.374 44.3812 119.355 44.1699 119.338 43.9563C119.325 43.813 119.318 43.6673 119.311 43.5216C119.304 43.3881 119.296 43.2545 119.294 43.121C119.291 43.1139 119.291 43.1062 119.294 43.0991C119.294 43.0988 119.293 43.0984 119.293 43.098C119.293 43.0976 119.293 43.0971 119.293 43.0967C119.293 43.0962 119.293 43.0958 119.293 43.0954C119.293 43.0949 119.294 43.0946 119.294 43.0943C119.291 43.0918 119.291 43.0918 119.294 43.0894C119.294 43.0891 119.293 43.0887 119.293 43.0883C119.293 43.0879 119.293 43.0874 119.293 43.087C119.293 43.0865 119.293 43.0861 119.293 43.0857C119.293 43.0852 119.294 43.0849 119.294 43.0845C119.291 43.0311 119.289 42.9777 119.289 42.9243C119.284 42.7665 119.282 42.6086 119.282 42.4508C119.282 42.3075 119.284 42.1667 119.287 42.0234C119.291 41.8243 119.299 41.6252 119.308 41.426C119.308 41.3823 119.313 41.3411 119.316 41.2973C119.318 41.2536 119.321 41.2124 119.323 41.1687C119.328 41.0764 119.335 40.9841 119.345 40.8918C119.345 40.8748 119.345 40.8578 119.347 40.8408C119.355 40.7364 119.364 40.632 119.374 40.5276C119.394 40.3188 119.418 40.1075 119.445 39.8987C119.459 39.7943 119.471 39.6898 119.488 39.5854C119.498 39.5126 119.51 39.4373 119.522 39.362C119.532 39.2868 119.544 39.2115 119.559 39.1362C119.576 39.0366 119.593 38.9347 119.612 38.8327C119.622 38.772 119.634 38.7113 119.646 38.6506C119.693 38.4077 119.744 38.1649 119.8 37.9221C119.855 37.6768 119.919 37.434 119.987 37.1912C120.052 36.9459 120.125 36.7007 120.203 36.4554C120.24 36.3316 120.279 36.2102 120.322 36.0887C120.402 35.8435 120.488 35.6007 120.582 35.3603C120.626 35.2413 120.672 35.1199 120.723 35.0009C120.821 34.7605 120.923 34.5201 121.027 34.2845C121.081 34.1656 121.134 34.0466 121.193 33.9276C121.302 33.6921 121.416 33.4565 121.54 33.2258C121.659 32.9903 121.788 32.7596 121.92 32.5314C122.051 32.3031 122.187 32.0748 122.33 31.849C122.396 31.7373 122.469 31.6232 122.544 31.5139C122.69 31.2905 122.843 31.0671 122.999 30.8486C123.313 30.4066 123.651 29.9719 124.008 29.5494ZM119.343 40.8918C119.335 40.9841 119.328 41.0763 119.323 41.1686C119.328 41.0763 119.335 40.9841 119.345 40.8918C119.345 40.8748 119.345 40.8577 119.347 40.8408C119.345 40.8578 119.345 40.8748 119.343 40.8918ZM119.644 38.6505C119.634 38.7112 119.622 38.7719 119.612 38.8326C119.622 38.7719 119.634 38.7112 119.646 38.6505H119.644ZM125.7 57.1417V57.1441C125.7 57.1465 125.703 57.1465 125.705 57.1465L125.7 57.1417Z" fill="#3F3D56"/>
<path opacity="0.3" d="M126.401 57.7632C122.555 54.5221 120.07 49.955 119.44 44.9689C118.81 39.9828 120.08 34.9423 122.999 30.8484C122.616 31.2339 122.245 31.6377 121.887 32.0596C120.19 34.0691 118.905 36.3928 118.107 38.8981C117.308 41.4035 117.011 44.0413 117.234 46.6612C117.456 49.281 118.193 51.8314 119.402 54.1669C120.611 56.5023 122.269 58.5771 124.281 60.2726C128.344 63.6969 133.603 65.3689 138.9 64.9207C144.197 64.4724 149.1 61.9407 152.528 57.8825C152.885 57.4599 153.221 57.0272 153.537 56.5843C149.987 60.1464 145.226 62.2451 140.199 62.4635C135.172 62.6819 130.246 61.0041 126.401 57.7632Z" fill="black"/>
</g>
<defs>
<clipPath id="clip0_477_3228">
<rect width="221" height="110" fill="white"/>
</clipPath>
</defs>
</svg>
