<svg width="156" height="125" viewBox="0 0 156 125" fill="none" xmlns="http://www.w3.org/2000/svg">
<g opacity="0.5" clip-path="url(#clip0_477_2469)">
<path d="M154.36 9.22099V106.737C158.788 113.869 153.606 113.4 146.5 111.661C130.062 107.629 113.128 105.966 96.2154 106.723C94.1755 106.814 92.1388 106.94 90.1052 107.104C89.1483 107.18 88.1913 107.265 87.2344 107.357C83.5819 107.712 79.9386 108.181 76.3047 108.764C75.6209 108.873 74.9386 108.987 74.2579 109.107C73.6207 109.216 72.9859 109.33 72.3487 109.448C68.8875 110.087 65.4419 110.831 62.0118 111.682C62.0072 111.684 62.0002 111.684 61.9955 111.686L44.7479 115.972L8.40179 125C0.77222 125 -5.41265 118.848 7.35477 110.395V12.8791C-5.41266 6.15192 0.772217 0 8.40179 0L62.0263 14.9542C83.6982 20.9976 106.608 21.1105 128.339 15.281C143.212 11.2913 156.572 7.68726 154.36 9.22099Z" fill="#F1F2F2"/>
<path d="M65.5679 20.2485C67.4043 14.4273 71.5802 9.08833 77.3554 7.12046C83.1309 5.15259 91.5877 8.1503 95.9296 12.4544C103.872 20.3276 104.116 29.9657 98.6596 38.5129C97.5742 38.4558 93.8292 38.4135 92.7307 38.3726L91.1767 33.221V38.3218C82.6027 38.0582 73.0595 45.0729 64.7453 38.3939C63.9448 32.3424 63.7316 26.0696 65.5679 20.2485Z" fill="#2F2E41"/>
<path d="M89.0496 79.7517L90.8215 84.3341L90.4673 88.9167L56.4453 84.6867L57.5084 80.8092L61.4067 76.2266L89.0496 79.7517Z" fill="#FFB6B6"/>
<path d="M78.0854 38.5133C84.926 38.5133 90.4715 32.9974 90.4715 26.1932C90.4715 19.389 84.926 13.873 78.0854 13.873C71.2447 13.873 65.6992 19.389 65.6992 26.1932C65.6992 32.9974 71.2447 38.5133 78.0854 38.5133Z" fill="#FFB7B7"/>
<path d="M64.9521 47.3213L72.04 43.0912L86.2158 41.6812L98.7451 44.5012L98.6196 67.4141L90.6711 87.5215L57.358 83.2914L56.0922 76.199C56.0922 76.199 46.878 63.889 56.801 56.8389L64.9521 47.3213Z" fill="#034A23"/>
<path d="M96.2155 106.723C94.1757 106.814 92.139 106.94 90.1054 107.104C89.1484 107.18 88.1915 107.265 87.2346 107.357C83.5821 107.712 79.9388 108.181 76.3049 108.764C75.6211 108.873 74.9388 108.987 74.2581 109.107C73.6209 109.216 72.9861 109.33 72.3489 109.448C68.8877 110.087 65.4421 110.831 62.012 111.682C62.0073 111.684 62.0003 111.684 61.9957 111.686L44.748 115.972C45.7446 107.034 48.0925 93.2421 53.2575 89.9735L56.6323 84.0027L56.6347 83.998L56.8424 83.6335L63.0926 84.2812L68.3486 84.8268L71.9755 85.2029L74.2417 85.435L74.2767 85.4397L90.6048 87.132L90.8149 87.1552H90.8219V94.9833C90.8219 94.9833 90.9292 95.1202 91.1113 95.3779C91.186 95.4801 91.27 95.6008 91.3633 95.7377C92.0864 96.7883 92.7503 97.8779 93.3518 99.0017C93.4499 99.1828 93.5479 99.3685 93.6436 99.5612C94.2856 100.8 94.8416 102.082 95.3077 103.396C95.6939 104.481 95.9974 105.593 96.2155 106.723Z" fill="#2F2E41"/>
<path d="M69.5753 10.1502C74.3066 7.28106 80.6123 7.19835 85.4185 9.94241C90.2243 12.6865 93.3325 18.1443 93.228 23.6553C86.3045 23.972 79.1229 30.4396 71.6567 24.0687L69.9138 19.8258L68.8862 24.0718C66.6391 24.0716 64.3877 24.0686 62.132 24.063C61.881 18.5567 64.8435 13.0193 69.5753 10.1502Z" fill="#2F2E41"/>
<path d="M99.369 89.2737L111.418 96.3239C114.254 94.9138 113.706 85.7695 111.974 85.2339L110.669 54.7238C109.96 40.6236 98.7453 44.5012 98.7453 44.5012L93.6582 45.5587L97.2022 60.3639L101.052 85.9091C100.529 86.3025 100.105 86.811 99.813 87.3948C99.521 87.9786 99.3691 88.6217 99.369 89.2737Z" fill="#034A23"/>
<path d="M94.9223 96.8334L93.9117 98.9855L93.6433 99.5612L90.8076 105.604L90.1051 107.104C89.1481 107.18 88.1912 107.265 87.2343 107.357C83.5818 107.712 79.9385 108.181 76.3046 108.764L77.3595 104.432L74.2578 109.107C73.6206 109.216 72.9858 109.33 72.3486 109.448C68.8874 110.087 65.4418 110.831 62.0117 111.682L71.4104 90.0199V90.0176L72.2179 88.1558L91.111 95.3779L91.6104 95.5682L94.9223 96.8334Z" fill="#3F3D56"/>
<path d="M70.7516 89.2093C76.8383 96.9884 85.3718 99.6096 95.4833 98.9038L109.881 54.736L103.092 53.5431L100.192 49.7851L92.6124 48.7957L88.8575 50.6154L82.5791 50.4766L77.8023 66.1198L69 81.663L70.7516 89.2093Z" fill="#E6E7E8"/>
<path d="M118.477 52.6307L115.449 55.2479L109.2 48.0937L107.314 47.3185C106.935 47.163 106.599 46.9207 106.333 46.6113C106.066 46.302 105.877 45.9345 105.78 45.5386C105.684 45.1428 105.683 44.7298 105.777 44.3334C105.871 43.937 106.058 43.5684 106.323 43.2576C106.565 42.9732 106.867 42.7442 107.206 42.5864C107.546 42.4286 107.915 42.3456 108.29 42.3433C108.665 42.341 109.036 42.4193 109.377 42.5729C109.719 42.7265 110.023 42.9517 110.269 43.2331L112.228 45.4765L118.477 52.6307Z" fill="#FFB8B8"/>
<path d="M102.176 70.3023L113.732 60.6742L118.428 56.4402C118.764 56.1375 119.033 55.7692 119.218 55.3582C119.404 54.9472 119.502 54.5024 119.507 54.0519C119.511 53.6013 119.422 53.1547 119.245 52.74C119.068 52.3253 118.806 51.9516 118.477 51.6423L118.397 50.2006C118.375 49.8183 118.272 49.4449 118.094 49.1055C117.916 48.7661 117.667 48.4685 117.364 48.2327C117.06 47.9968 116.71 47.8281 116.336 47.7378C115.962 47.6476 115.573 47.6379 115.194 47.7094L111.175 51.6423L113.407 52.9112L110.839 54.4496L104.254 54.8206L102.176 70.3023Z" fill="#E6E7E8"/>
<path d="M99.0722 48.8978C104.196 48.8978 108.349 44.7664 108.349 39.67C108.349 34.5736 104.196 30.4421 99.0722 30.4421C93.9485 30.4421 89.7949 34.5736 89.7949 39.67C89.7949 44.7664 93.9485 48.8978 99.0722 48.8978Z" fill="#FFB8B8"/>
<path d="M106.092 28.8504C111.802 30.9657 115.238 33.9904 113.112 39.6699C110.985 45.3493 105.177 51.0155 99.4675 48.9002C93.7576 46.7849 97.4643 44.7576 91.1773 33.2209C88.2737 27.8927 100.382 26.7351 106.092 28.8504Z" fill="#2F2E41"/>
<path d="M110.615 95.8539C110.569 95.8841 110.52 95.9143 110.471 95.9421C110.375 96.0002 110.277 96.0536 110.177 96.1023L95.3071 103.396L90.8073 105.604L87.2341 107.357C83.5815 107.712 79.9383 108.181 76.3044 108.764C75.6205 108.873 74.9383 108.987 74.2575 109.107C73.6204 109.216 72.9856 109.33 72.3484 109.448C72.2919 109.033 72.2857 108.612 72.3297 108.195C72.4081 107.42 72.6502 106.67 73.0402 105.994C73.4302 105.319 73.9592 104.733 74.5927 104.275C75.2262 103.817 75.9498 103.497 76.7162 103.336C77.4825 103.176 78.2743 103.178 79.0397 103.343C79.3255 103.406 79.6057 103.493 79.8776 103.601L87.1291 98.635L91.3628 95.7378L91.6102 95.5684L97.9958 91.1947L97.9981 91.1924L100.005 89.8204L100.141 89.7275L101.501 88.7966L101.007 82.4729L110.503 80.4834L112.473 91.594C112.617 92.407 112.518 93.2443 112.188 94.0016C111.857 94.759 111.311 95.4031 110.615 95.8539Z" fill="#FFB6B6"/>
<path d="M111.678 85.2338L111.078 76.2266L101.007 82.4723L100.755 85.909C100.232 86.3024 99.8081 86.8109 99.5162 87.3947C99.2242 87.9784 99.0723 88.6216 99.0723 89.2736L111.122 96.3237C113.957 94.9137 113.409 85.7694 111.678 85.2338Z" fill="#034A23"/>
<path d="M52.0324 43.3808C52.1049 43.8396 52.2775 44.277 52.5383 44.6623C52.7991 45.0475 53.1417 45.3712 53.5418 45.6106C53.942 45.8499 54.39 45.999 54.8544 46.0475C55.3188 46.096 55.7882 46.0425 56.2296 45.891L81.9089 59.4866L84.0884 52.9267L58.1611 41.6254C57.8561 40.9047 57.2959 40.3204 56.5866 39.9831C55.8774 39.6458 55.0684 39.579 54.3129 39.7954C53.5575 40.0117 52.908 40.4962 52.4877 41.1571C52.0674 41.8179 51.9054 42.6091 52.0324 43.3808V43.3808Z" fill="#FFB6B6"/>
<path d="M92.289 62.9354C92.289 62.9354 87.4794 66.0598 84.261 64.512C81.6844 63.2729 73.9312 56.6331 70.9392 54.0323C70.4867 54.3554 69.9391 54.5194 69.3826 54.4988C68.826 54.4781 68.2922 54.2739 67.8652 53.9182L72.5708 47.1675C74.426 46.925 74.6906 48.1395 74.675 48.8704L79.459 50.8179L83.5135 50.7495L92.6129 61.7657L92.289 62.9354Z" fill="#E6E7E8"/>
<path d="M91.6036 90.6282C91.1488 91.2719 90.5577 91.8086 89.8718 92.2005C89.1859 92.5924 88.4219 92.8299 87.6338 92.8963C86.8456 92.9628 86.0524 92.8565 85.31 92.5851C84.5675 92.3136 83.894 91.8835 83.3367 91.3251L49.6773 92.4077L45.3736 92.5461C40.9467 92.6885 38.3968 87.5941 41.1792 84.1664L44.1687 80.4834L54.8614 82.1516L58.7277 82.3201L83.6046 83.4044C84.6098 82.5355 85.9005 82.0635 87.2321 82.0778C88.5638 82.0921 89.8439 82.5919 90.8299 83.4823C91.8159 84.3727 92.4392 85.592 92.5818 86.909C92.7244 88.2261 92.3764 89.5494 91.6036 90.6282L91.6036 90.6282Z" fill="#FFB6B6"/>
<path d="M61.9136 48.9003C61.9136 48.9003 55.4975 47.2811 52.4564 52.4901C50.0217 56.6603 41.7398 72.4324 40.0206 78.9057C31.632 99.014 51.1357 91.0064 50.59 92.9032L57.115 82.2497C59.9502 80.8397 54.4928 82.6595 53.7739 81.6485L58.7757 76.2413L64.446 73.4212L66.5266 51.3426L61.9136 48.9003Z" fill="#034A23"/>
</g>
<defs>
<clipPath id="clip0_477_2469">
<rect width="156" height="125" fill="white"/>
</clipPath>
</defs>
</svg>
