<svg width="214" height="109" viewBox="0 0 214 109" fill="none" xmlns="http://www.w3.org/2000/svg">
<g opacity="0.5" clip-path="url(#clip0_477_49)">
<path d="M27.9433 102.451C27.7602 102.459 27.5788 102.411 27.4239 102.312C27.269 102.214 27.148 102.07 27.0772 101.901C27.0065 101.731 26.9895 101.544 27.0285 101.364C27.0675 101.184 27.1606 101.021 27.2952 100.896C27.3178 100.806 27.334 100.742 27.3565 100.652C27.3484 100.632 27.3403 100.613 27.3322 100.593C27.1476 100.156 26.8384 99.7831 26.4434 99.5216C26.0484 99.2602 25.5851 99.1216 25.1118 99.1234C24.6385 99.1252 24.1763 99.2672 23.7832 99.5316C23.3901 99.796 23.0837 100.171 22.9024 100.61C22.1779 102.36 21.2555 104.113 21.0283 105.963C20.9283 106.781 20.9705 107.611 21.1531 108.414C19.4514 104.691 18.5678 100.644 18.5621 96.5486C18.5617 95.5209 18.6186 94.4939 18.7326 93.4725C18.8268 92.6351 18.9574 91.8038 19.1246 90.9784C20.0366 86.4998 21.9949 82.3021 24.8384 78.7299C26.2147 77.9767 27.3278 76.8185 28.0275 75.4113C28.281 74.9054 28.4602 74.3654 28.5595 73.8081C28.4042 73.8285 28.2464 73.8413 28.0912 73.8515C28.0428 73.854 27.9919 73.8566 27.9435 73.8592L27.9253 73.86C27.7547 73.8676 27.5855 73.8257 27.4381 73.7392C27.2906 73.6526 27.1713 73.5252 27.0944 73.3722C27.0175 73.2193 26.9864 73.0473 27.0047 72.8769C27.023 72.7066 27.09 72.5452 27.1976 72.4122C27.2647 72.3294 27.3318 72.2467 27.3989 72.1641C27.5007 72.0364 27.605 71.9113 27.7068 71.7837C27.7186 71.7716 27.7296 71.7588 27.7399 71.7454C27.857 71.5999 27.9741 71.4569 28.0912 71.3114C27.8774 70.9787 27.59 70.7 27.2513 70.4971C26.0779 69.8078 24.4592 70.2852 23.6116 71.3497C22.7616 72.4142 22.6012 73.9077 22.8965 75.2377C23.1868 76.3694 23.6671 77.4433 24.3167 78.4134C24.253 78.4951 24.1869 78.5742 24.1232 78.6559C22.9601 80.1561 21.9463 81.7669 21.0965 83.4655C21.3031 81.5626 21.0565 79.6378 20.3767 77.8492C19.6879 76.1824 18.3966 74.7785 17.2596 73.3375C15.8938 71.6066 13.093 72.362 12.8524 74.5562C12.8501 74.5774 12.8478 74.5987 12.8456 74.6199C13.0145 74.7155 13.1798 74.8169 13.3416 74.9242C13.5448 75.0604 13.7022 75.255 13.7933 75.4824C13.8844 75.7099 13.9048 75.9596 13.852 76.199C13.7991 76.4383 13.6754 76.656 13.4971 76.8236C13.3187 76.9912 13.0941 77.1009 12.8525 77.1382L12.8278 77.1421C12.888 77.7526 12.9943 78.3577 13.1459 78.952C13.5853 80.6113 14.3616 82.1616 15.4263 83.5059C16.491 84.8501 17.8211 85.9592 19.3332 86.7637C19.4325 86.8147 19.5292 86.8658 19.6285 86.9143C18.7746 89.3413 18.2391 91.8693 18.0352 94.4349C17.9198 95.9485 17.9266 97.469 18.0556 98.9815L18.0479 98.9278C17.7221 97.246 16.8276 95.7284 15.5155 94.6314C13.5666 93.0257 10.8133 92.4344 8.7108 91.1437C8.48736 90.9998 8.22755 90.923 7.96202 90.9224C7.69649 90.9217 7.43631 90.9973 7.21217 91.1401C6.98803 91.2829 6.80928 91.487 6.697 91.7283C6.58472 91.9697 6.54359 92.2382 6.57847 92.5022C6.58129 92.521 6.58416 92.5398 6.58707 92.5586C6.90048 92.6866 7.20564 92.8341 7.50077 93.0002C7.66967 93.0958 7.83499 93.1972 7.99675 93.3045C8.19996 93.4406 8.35742 93.6352 8.4485 93.8627C8.53958 94.0902 8.56002 94.3399 8.50716 94.5793C8.4543 94.8186 8.33059 95.0363 8.15225 95.2039C7.97391 95.3715 7.74924 95.4812 7.5077 95.5185L7.48295 95.5223C7.46513 95.5249 7.44987 95.5275 7.43208 95.53C7.96759 96.8125 8.7192 97.993 9.65399 99.0197C10.8088 100.263 12.2045 101.256 13.7555 101.938C15.3066 102.621 16.9803 102.979 18.6741 102.989H18.6766C19.1364 104.993 19.8026 106.944 20.6644 108.81H27.7654C27.7909 108.731 27.8137 108.649 27.8367 108.57C27.1794 108.611 26.5195 108.572 25.8718 108.452C26.3986 107.804 26.9255 107.15 27.4523 106.502C27.4641 106.49 27.4751 106.477 27.4854 106.464C27.7527 106.132 28.0224 105.803 28.2897 105.471L28.2898 105.47C28.3041 104.453 28.1877 103.438 27.9436 102.451L27.9433 102.451Z" fill="#F2F2F2"/>
<path d="M169.529 98.2074C169.664 98.3322 169.834 98.4123 170.015 98.4371C170.197 98.4618 170.382 98.4299 170.545 98.3457C170.708 98.2616 170.841 98.1292 170.927 97.9665C171.012 97.8038 171.046 97.6187 171.023 97.4362C171.063 97.3528 171.092 97.293 171.133 97.2096C171.151 97.1999 171.17 97.1901 171.189 97.1805C171.611 96.9651 172.087 96.8795 172.557 96.9344C173.027 96.9894 173.47 97.1825 173.831 97.4894C174.192 97.7964 174.455 98.2035 174.586 98.6596C174.717 99.1157 174.711 99.6006 174.568 100.053C173.999 101.86 173.58 103.798 172.566 105.36C172.118 106.051 171.553 106.658 170.898 107.155C174.59 105.405 177.863 102.879 180.496 99.7479C181.156 98.9616 181.771 98.139 182.34 97.2837C182.805 96.5822 183.239 95.8616 183.64 95.122C185.817 91.1058 187.012 86.6291 187.129 82.0595C186.559 80.5945 186.45 78.9895 186.818 77.4608C186.949 76.9101 187.158 76.3811 187.44 75.8905C187.546 76.0064 187.658 76.1181 187.77 76.2261C187.806 76.2593 187.843 76.2941 187.878 76.3273L187.892 76.3397C188.018 76.4557 188.174 76.5329 188.342 76.5618C188.511 76.5908 188.684 76.5703 188.841 76.5029C188.998 76.4355 189.132 76.324 189.227 76.1818C189.323 76.0396 189.375 75.8729 189.378 75.7016C189.38 75.595 189.381 75.4884 189.383 75.3818C189.387 75.2184 189.388 75.0553 189.392 74.8919C189.39 74.875 189.39 74.8581 189.391 74.8412C189.395 74.6542 189.397 74.4693 189.401 74.2823C189.778 74.1657 190.176 74.138 190.566 74.2014C191.906 74.4315 192.839 75.842 192.804 77.2038C192.771 78.5673 191.936 79.8137 190.856 80.6409C189.908 81.3195 188.851 81.8312 187.731 82.1542C187.727 82.2578 187.727 82.3611 187.724 82.4647C187.651 84.3637 187.393 86.251 186.953 88.0995C188.016 86.5099 189.44 85.1961 191.108 84.2663C192.705 83.4354 194.594 83.1948 196.389 82.8262C198.545 82.3835 200.204 84.7699 198.98 86.6043C198.968 86.6221 198.956 86.6398 198.944 86.6575C198.754 86.6216 198.562 86.5924 198.369 86.5701C198.126 86.5431 197.881 86.5904 197.665 86.7056C197.45 86.8209 197.274 86.9988 197.161 87.2161C197.047 87.4334 197.002 87.6799 197.031 87.9233C197.06 88.1667 197.162 88.3957 197.323 88.5802L197.339 88.5991C196.901 89.0275 196.432 89.4219 195.934 89.7788C194.533 90.7649 192.944 91.4501 191.266 91.7913C189.589 92.1326 187.859 92.1226 186.186 91.7619C186.077 91.7369 185.97 91.7135 185.863 91.6865C184.959 94.0951 183.746 96.3756 182.256 98.4705C181.373 99.7033 180.392 100.862 179.322 101.937L179.363 101.901C180.691 100.824 182.35 100.24 184.058 100.248C186.58 100.277 189.066 101.602 191.504 101.972C191.767 102.006 192.015 102.115 192.219 102.286C192.422 102.457 192.573 102.683 192.653 102.937C192.733 103.191 192.738 103.463 192.67 103.72C192.601 103.977 192.46 104.209 192.264 104.389C192.249 104.401 192.235 104.414 192.221 104.426C191.899 104.322 191.571 104.238 191.238 104.174C191.048 104.138 190.856 104.109 190.663 104.087C190.42 104.06 190.175 104.107 189.959 104.222C189.744 104.338 189.568 104.516 189.455 104.733C189.341 104.95 189.296 105.197 189.325 105.44C189.354 105.683 189.456 105.912 189.617 106.097L189.633 106.116C189.645 106.129 189.655 106.141 189.667 106.155C188.434 106.79 187.101 107.208 185.727 107.39C184.046 107.596 182.34 107.455 180.715 106.976C179.09 106.497 177.58 105.69 176.277 104.604L176.275 104.603C174.637 105.84 172.875 106.902 171.018 107.774L165.584 103.189C165.615 103.112 165.65 103.034 165.683 102.959C166.16 103.415 166.69 103.811 167.262 104.138C167.275 103.302 167.292 102.461 167.305 101.625C167.303 101.608 167.303 101.591 167.304 101.574C167.312 101.148 167.317 100.722 167.326 100.295L167.326 100.295C167.968 99.5069 168.708 98.8054 169.529 98.2074L169.529 98.2074Z" fill="#F2F2F2"/>
<path d="M52.1408 59.6823C51.942 59.6342 51.756 59.543 51.5961 59.4151C51.4362 59.2872 51.3062 59.1257 51.2153 58.9419C51.1244 58.7581 51.0747 58.5566 51.0699 58.3515C51.065 58.1464 51.105 57.9427 51.1871 57.7548L47.5391 54.3666L50.0482 53.7485L53.1277 57.0608C53.4333 57.2201 53.67 57.4862 53.793 57.8089C53.916 58.1315 53.9168 58.4881 53.7951 58.8113C53.6735 59.1344 53.4379 59.4015 53.133 59.5621C52.8281 59.7226 52.475 59.7654 52.1408 59.6823H52.1408Z" fill="#FFB6B6"/>
<path d="M41.0092 50.4413L37.1855 39.2461C36.8833 38.3584 36.9446 37.3867 37.3559 36.5443C37.7672 35.7018 38.4948 35.0574 39.3792 34.7524V34.7524C39.8691 34.5842 40.3898 34.5261 40.9046 34.5824C41.4193 34.6386 41.9154 34.8079 42.3575 35.0781C42.7997 35.3483 43.1772 35.7128 43.4631 36.1457C43.749 36.5787 43.9364 37.0695 44.012 37.5833L45.5403 47.9773L51.9338 54.5446L50.2522 56.9478L41.0092 50.4413Z" fill="#3F3D56"/>
<path d="M34.6958 103.257H37.4257L38.7243 92.6963H34.6953L34.6958 103.257Z" fill="#FFB6B6"/>
<path d="M33.7726 101.906L38.0877 101.648V103.502L42.1901 106.344C42.3928 106.484 42.5454 106.686 42.6257 106.92C42.706 107.153 42.7098 107.406 42.6365 107.642C42.5632 107.878 42.4167 108.084 42.2183 108.23C42.02 108.377 41.7802 108.456 41.5339 108.456H33.2285L33.7726 101.906Z" fill="#2F2E41"/>
<path d="M37.0807 53.652C37.0807 53.652 36.2297 52.7579 34.5987 54.8704C33.0919 56.7833 33.1668 57.1568 33.3613 59.5869C33.5197 61.3246 31.9675 70.058 33.5144 71.5425L34.7617 99.5139C34.7617 99.5139 38.546 100.579 38.7242 98.7919L48.4951 63.2241L47.3277 54.1303L37.0807 53.652Z" fill="#2F2E41"/>
<path d="M55.1551 102.992L57.5472 101.673L53.6125 91.7915L50.082 93.7384L55.1551 102.992Z" fill="#FFB6B6"/>
<path d="M53.6953 102.255L57.3525 99.9438L58.2432 101.569L63.2032 102.077C63.4482 102.102 63.6787 102.205 63.8613 102.37C64.0438 102.536 64.1687 102.756 64.2177 102.998C64.2668 103.24 64.2374 103.492 64.1339 103.716C64.0304 103.94 63.8582 104.125 63.6424 104.244L59.1406 106.726L58.0617 107.321L56.3644 108.257L53.6953 102.255Z" fill="#2F2E41"/>
<path d="M33.4165 58.3714C33.4165 58.3714 33.3671 62.8773 32.9526 65.5167C32.551 67.9211 33.0714 70.3889 34.409 72.4244C35.3825 73.8706 36.8162 75.2187 38.8848 75.7721L53.4136 99.6804C53.4136 99.6804 57.2414 98.7852 56.5391 97.1329L48.0166 61.2435L42.6255 53.8389L33.4165 58.3714Z" fill="#2F2E41"/>
<path d="M33.2996 45.6234L32.8672 59.5868L47.2845 55.585L47.5382 54.8946L48.1563 52.5435C48.1563 52.5435 46.7268 49.1608 47.0183 41.2842L43.3765 31.5452L37.6079 31.427L37.5757 31.4593C35.7538 33.2835 34.41 35.5313 33.6639 38.0026C32.9178 40.4739 32.7927 43.0919 33.2996 45.6234V45.6234Z" fill="#3F3D56"/>
<path d="M62.302 51.362C62.1063 51.4217 61.8999 51.4377 61.6974 51.4087C61.4949 51.3798 61.3012 51.3067 61.13 51.1945C60.9587 51.0824 60.814 50.9339 60.7062 50.7596C60.5983 50.5853 60.5298 50.3894 60.5056 50.1857L55.6484 49.1205L57.4987 47.3118L61.8275 48.6006C62.1714 48.5825 62.5099 48.6915 62.779 48.907C63.0482 49.1225 63.2291 49.4296 63.2876 49.7699C63.3461 50.1103 63.278 50.4604 63.0964 50.7538C62.9147 51.0473 62.6321 51.2637 62.302 51.3621V51.362Z" fill="#FFB6B6"/>
<path d="M48.0359 49.0583L39.0808 41.3534C38.3716 40.7419 37.9332 39.8732 37.8619 38.9379C37.7905 38.0026 38.0919 37.0771 38.7001 36.3645C39.0372 35.9704 39.4567 35.6555 39.9288 35.4422C40.4009 35.2289 40.914 35.1225 41.4318 35.1305C41.9495 35.1386 42.4591 35.2608 42.9244 35.4886C43.3897 35.7163 43.7993 36.0441 44.1242 36.4485L50.6958 44.6302L59.5263 47.0392L59.2918 49.9659L48.0359 49.0583Z" fill="#3F3D56"/>
<path d="M46.4797 22.0044C46.4789 23.5881 45.8779 25.1122 44.7986 26.2681C43.7192 27.424 42.2422 28.1252 40.6666 28.2296C39.0911 28.334 37.5349 27.8338 36.3134 26.8303C35.0918 25.8269 34.2962 24.3952 34.0877 22.8254C33.8792 21.2556 34.2735 19.6649 35.1906 18.3758C36.1077 17.0866 37.479 16.1953 39.0269 15.8823C40.5747 15.5694 42.1832 15.8583 43.5266 16.6905C44.87 17.5227 45.8478 18.836 46.2619 20.3643C46.4067 20.8989 46.4799 21.4504 46.4797 22.0044V22.0044Z" fill="#FFB8B8"/>
<path d="M44.2128 13.7874C43.7084 13.7724 43.8816 12.8188 43.4752 12.5145C43.4732 12.5238 43.4712 12.533 43.4691 12.5422C43.4158 12.7482 43.298 12.9316 43.133 13.0653C42.968 13.1991 42.7645 13.2762 42.5525 13.2853C42.3405 13.2944 42.1313 13.2349 41.9555 13.1157C41.7797 12.9965 41.6468 12.8239 41.5762 12.6232C41.5088 12.391 41.3868 12.1785 41.2205 12.0035C41.0541 11.8285 40.8483 11.6961 40.6204 11.6174C40.5951 12.5013 39.9285 13.2684 39.1333 13.6502C38.3381 14.0319 37.4314 14.0955 36.5499 14.1085C35.6684 14.1216 34.7742 14.092 33.9194 14.3084C33.0646 14.5247 32.2331 15.0334 31.8679 15.8382C31.5027 16.643 31.7633 17.7511 32.5618 18.1256C31.9432 18.1289 31.4182 18.641 31.2043 19.2233C31.029 19.8205 30.9832 20.4484 31.0702 21.0649C31.244 23.3475 31.6679 25.8049 33.3251 27.3791C34.588 28.5789 36.3958 29.0622 38.1352 29.0552C39.8747 29.0482 39.5688 28.8878 41.2507 28.4425C41.2507 28.4425 42.8497 23.8448 42.4471 23.3925C42.0444 22.9402 41.71 22.3614 41.7829 21.7595C41.8558 21.1576 42.5007 20.6184 43.0604 20.8475C42.9663 20.6062 42.8954 20.5602 42.851 20.5725C42.8792 20.5039 42.9039 20.4339 42.9249 20.3627C43.0303 20 43.22 19.6676 43.4783 19.3928C43.7367 19.118 44.0565 18.9086 44.4112 18.7819C44.7696 18.6652 45.155 18.6613 45.5156 18.7708C45.8762 18.8803 46.1948 19.0978 46.4285 19.3942C48.2701 17.6618 47.1276 13.8742 44.2128 13.7874Z" fill="#2F2E41"/>
<path d="M151.198 59.6823C151.397 59.6342 151.583 59.543 151.743 59.4151C151.903 59.2872 152.033 59.1257 152.124 58.9419C152.215 58.7581 152.264 58.5566 152.269 58.3515C152.274 58.1464 152.234 57.9427 152.152 57.7548L155.8 54.3666L153.291 53.7485L150.211 57.0608C149.906 57.2201 149.669 57.4862 149.546 57.8089C149.423 58.1315 149.422 58.4881 149.544 58.8113C149.665 59.1344 149.901 59.4015 150.206 59.5621C150.511 59.7226 150.864 59.7654 151.198 59.6823H151.198Z" fill="#9E616A"/>
<path d="M153.088 56.9478L151.406 54.5446L157.8 47.9773L159.328 37.5833C159.404 37.0695 159.591 36.5787 159.877 36.1457C160.163 35.7128 160.54 35.3483 160.983 35.0781C161.425 34.8079 161.921 34.6386 162.436 34.5824C162.95 34.5261 163.471 34.5842 163.961 34.7524V34.7524C164.845 35.0574 165.573 35.7018 165.984 36.5443C166.395 37.3867 166.457 38.3584 166.155 39.2461L162.331 50.4413L153.088 56.9478Z" fill="#E6E6E6"/>
<path d="M168.644 103.257H165.914L164.615 92.6963H168.644L168.644 103.257Z" fill="#9E616A"/>
<path d="M170.113 108.456H161.807C161.561 108.456 161.321 108.377 161.123 108.23C160.924 108.084 160.778 107.878 160.705 107.642C160.631 107.406 160.635 107.153 160.715 106.92C160.796 106.686 160.948 106.484 161.151 106.344L165.253 103.502V101.648L169.569 101.906L170.113 108.456Z" fill="#2F2E41"/>
<path d="M166.258 53.6519C166.258 53.6519 168.466 57.5765 170.097 59.689C171.604 61.6019 171.41 62.6178 171.215 65.048C171.057 66.7856 171.371 70.0579 169.825 71.5423L168.577 99.5137C168.577 99.5137 164.793 100.579 164.615 98.7917L154.844 63.2239L156.011 54.1301L166.258 53.6519Z" fill="#2F2E41"/>
<path d="M148.185 102.992L145.793 101.673L149.728 91.7915L153.258 93.7384L148.185 102.992Z" fill="#9E616A"/>
<path d="M146.976 108.257L145.279 107.321L144.2 106.726L139.698 104.244C139.482 104.125 139.31 103.94 139.207 103.716C139.103 103.492 139.074 103.24 139.123 102.998C139.172 102.756 139.297 102.536 139.479 102.37C139.662 102.205 139.892 102.102 140.137 102.077L145.097 101.569L145.988 99.9438L149.645 102.255L146.976 108.257Z" fill="#2F2E41"/>
<path d="M169.923 58.3714C169.923 58.3714 169.973 62.8773 170.387 65.5167C170.789 67.9211 170.269 70.3889 168.931 72.4244C167.957 73.8706 166.524 75.2187 164.455 75.7721L149.926 99.6804C149.926 99.6804 146.099 98.7852 146.801 97.1329L155.323 61.2435L160.714 53.8389L169.923 58.3714Z" fill="#2F2E41"/>
<path d="M165.764 31.4593L165.732 31.427L159.963 31.5452L156.322 41.2842C156.613 49.1608 155.184 52.5435 155.184 52.5435L155.802 54.8946L153.891 66.5374L172.264 62.8088L170.04 45.6234C170.547 43.0919 170.422 40.4739 169.676 38.0026C168.93 35.5313 167.586 33.2835 165.764 31.4593V31.4593Z" fill="#E6E6E6"/>
<path d="M141.037 51.362C141.233 51.4217 141.439 51.4377 141.642 51.4087C141.844 51.3798 142.038 51.3067 142.209 51.1945C142.381 51.0824 142.525 50.9339 142.633 50.7596C142.741 50.5853 142.809 50.3894 142.834 50.1857L147.691 49.1205L145.841 47.3118L141.512 48.6006C141.168 48.5825 140.829 48.6915 140.56 48.907C140.291 49.1225 140.11 49.4296 140.052 49.7699C139.993 50.1103 140.061 50.4604 140.243 50.7538C140.425 51.0473 140.707 51.2637 141.037 51.3621L141.037 51.362Z" fill="#9E616A"/>
<path d="M144.049 49.9659L143.814 47.0392L152.645 44.6302L159.217 36.4485C159.541 36.0441 159.951 35.7163 160.416 35.4886C160.882 35.2608 161.391 35.1386 161.909 35.1305C162.427 35.1225 162.94 35.2289 163.412 35.4422C163.884 35.6555 164.304 35.9704 164.641 36.3645C165.249 37.0771 165.55 38.0026 165.479 38.9379C165.408 39.8732 164.969 40.7419 164.26 41.3534L155.305 49.0583L144.049 49.9659Z" fill="#E6E6E6"/>
<path d="M157.079 20.3643C157.493 18.836 158.471 17.5227 159.814 16.6905C161.158 15.8583 162.766 15.5694 164.314 15.8823C165.862 16.1953 167.233 17.0866 168.15 18.3758C169.068 19.6649 169.462 21.2556 169.253 22.8254C169.045 24.3952 168.249 25.8269 167.028 26.8303C165.806 27.8338 164.25 28.334 162.674 28.2296C161.099 28.1252 159.622 27.424 158.542 26.2681C157.463 25.1122 156.862 23.5881 156.861 22.0044C156.861 21.4504 156.934 20.8989 157.079 20.3643V20.3643Z" fill="#9E616A"/>
<path d="M159.127 13.7874C159.631 13.7723 165.909 14.0955 166.79 14.1085C167.672 14.1216 168.566 14.092 169.421 14.3084C170.275 14.5247 171.107 15.0334 171.472 15.8382C171.837 16.643 171.922 18.641 172.136 19.2232C172.311 19.8205 172.357 20.4484 172.27 21.0649C172.096 23.3475 171.672 25.8049 170.015 27.3791C168.752 28.5789 166.944 29.0622 165.205 29.0552C163.465 29.0482 163.771 28.8878 162.089 28.4425C162.089 28.4425 160.49 23.8448 160.893 23.3925C161.295 22.9402 161.63 22.3614 161.557 21.7595C161.484 21.1576 160.839 20.6183 160.279 20.8475C160.374 20.6062 160.444 20.5602 160.489 20.5724C160.461 20.5039 160.436 20.4338 160.415 20.3627C160.31 20 160.12 19.6676 159.862 19.3928C159.603 19.118 159.283 18.9086 158.929 18.7818C158.57 18.6652 158.185 18.6613 157.824 18.7708C157.464 18.8803 157.145 19.0978 156.911 19.3942C155.07 17.6618 156.212 13.8742 159.127 13.7874Z" fill="#2F2E41"/>
<path d="M61.8682 50.9087C69.932 49.8489 78.9342 48.7686 85.9908 53.7572C88.8329 55.7663 91.0569 58.6723 91.7354 62.1389C92.1644 64.3306 92.0279 66.5821 92.0556 68.8016C92.0804 70.7893 92.2585 72.7727 92.9264 74.6567C94.0557 77.8426 96.2687 80.5482 99.0066 82.4903C101.977 84.5652 105.496 85.7075 109.115 85.7719C117.128 85.9725 124.435 81.6145 129.536 75.6696C135.015 69.285 138.158 61.3669 140.9 53.5089C141.262 52.4727 141.62 51.4353 141.974 50.3967C142.13 49.9425 141.413 49.7475 141.259 50.1987C138.518 58.1869 135.707 66.3379 130.598 73.1651C125.912 79.4265 119.099 84.4041 111.111 84.9794C107.469 85.2417 103.805 84.5223 100.642 82.6625C97.7378 80.9549 95.3047 78.3831 93.9592 75.2701C93.2351 73.504 92.8484 71.6172 92.8192 69.7078C92.7386 67.498 92.9005 65.2766 92.6288 63.0759C92.1933 59.5485 90.4072 56.4713 87.7255 54.1724C85.0163 51.906 81.7643 50.388 78.2909 49.7686C73.9657 48.9512 69.5377 49.2354 65.1943 49.7437C64.0844 49.8736 62.9762 50.0183 61.8682 50.164C61.4012 50.2254 61.3951 50.9709 61.8682 50.9087V50.9087Z" fill="#3F3D56"/>
<path d="M128.164 32.8789C126.751 34.3833 124.697 35.1801 122.643 35.339C121.17 35.4526 119.69 35.2622 118.294 34.7793C116.898 34.2965 115.615 33.5316 114.525 32.5318C113.435 31.5321 112.562 30.3188 111.958 28.9669C111.354 27.6151 111.033 26.1534 111.015 24.6722C110.993 23.009 111.354 21.3533 111.273 19.6901C111.07 15.5818 108.194 11.8483 108.501 7.7449L110.471 8.35804C109.149 7.941 107.828 7.52396 106.506 7.10692C106.053 6.98545 105.618 6.80255 105.214 6.56328C104.061 5.80368 103.722 4.12807 104.276 2.85958C104.833 1.59109 106.117 0.742115 107.471 0.459124C108.392 0.28368 109.339 0.289584 110.258 0.476502C110.698 0.555163 111.133 0.660444 111.56 0.791765C112.806 0.379982 114.128 0.258067 115.428 0.435268C116.728 0.612469 117.97 1.08413 119.061 1.8145C120.387 2.72875 121.431 3.99713 122.076 5.47601C122.488 6.40896 122.728 7.40883 122.786 8.42753C122.935 11.1979 121.756 14.0675 121.925 16.7435C121.961 17.4754 122.124 18.1954 122.407 18.8709C123.868 22.2792 128.459 23.6271 129.609 27.1546C130.25 29.1182 129.577 31.3746 128.164 32.8789Z" fill="#2F2E41"/>
<path d="M129.237 86.1447L127.342 88.115L118.863 81.7199L121.661 78.812L129.237 86.1447Z" fill="#9E616A"/>
<path d="M133.987 88.6944L132.642 90.0925L131.787 90.9812L128.22 94.6894C128.049 94.8672 127.826 94.9855 127.583 95.027C127.341 95.0686 127.091 95.0312 126.871 94.9204C126.651 94.8096 126.472 94.6311 126.36 94.411C126.248 94.1909 126.21 93.9408 126.25 93.6971L127.059 88.7627L125.729 87.4751L128.91 84.5398L133.987 88.6944Z" fill="#2F2E41"/>
<path d="M111.02 89.8979L108.563 91.0902L102.809 82.1506L106.435 80.3911L111.02 89.8979Z" fill="#9E616A"/>
<path d="M114.599 93.9366L112.856 94.7826L111.747 95.3204L107.123 97.5642C106.901 97.6718 106.651 97.7055 106.409 97.6603C106.167 97.6152 105.945 97.4936 105.777 97.3134C105.608 97.1331 105.502 96.9036 105.473 96.6584C105.444 96.4131 105.494 96.1649 105.615 95.9501L108.074 91.6L107.269 89.9307L111.266 88.2786L114.599 93.9366Z" fill="#2F2E41"/>
<path d="M115.028 40.4954C115.028 40.4954 117.235 44.42 118.866 46.5325C120.373 48.4454 120.179 49.4613 119.985 51.8915C119.826 53.6291 120.141 56.9014 118.594 58.3858L117.918 73.5451L126.256 83.1302C126.256 83.1302 122.885 87.9356 122.707 86.1482L110.362 74.6353L103.613 50.0674L104.781 40.9736L115.028 40.4954Z" fill="#2F2E41"/>
<path d="M118.691 45.2149C118.691 45.2149 118.741 49.7208 119.155 52.3602C119.557 54.7646 119.037 57.2324 117.699 59.2679C116.725 60.7141 115.292 62.0622 113.223 62.6156L106.15 74.2546L110.079 85.5309C110.079 85.5309 104.432 88.7936 105.134 87.1413L98.2988 72.4801L104.091 48.087L109.482 40.6824L118.691 45.2149Z" fill="#2F2E41"/>
<path d="M114.534 18.3028L114.502 18.2705L108.733 18.3888L105.091 28.1277C105.383 36.0043 103.953 39.387 103.953 39.387L104.571 41.7381L104.825 42.4285L121.033 49.6524L118.81 32.4669C119.317 29.9354 119.192 27.3174 118.445 24.8461C117.699 22.3749 116.356 20.127 114.534 18.3028Z" fill="#207647"/>
<path d="M89.8068 38.2055C90.0025 38.2652 90.2089 38.2812 90.4114 38.2522C90.6139 38.2233 90.8076 38.1502 90.9788 38.038C91.1501 37.9259 91.2948 37.7774 91.4027 37.6031C91.5105 37.4288 91.579 37.2329 91.6032 37.0292L96.4604 35.964L94.6101 34.1553L90.2813 35.4441C89.9374 35.426 89.5989 35.535 89.3298 35.7505C89.0607 35.966 88.8797 36.2731 88.8212 36.6134C88.7627 36.9538 88.8308 37.3039 89.0124 37.5973C89.1941 37.8908 89.4767 38.1072 89.8068 38.2056L89.8068 38.2055Z" fill="#9E616A"/>
<path d="M92.8166 36.8094L92.582 33.8827L101.413 31.4737L107.984 23.292C108.309 22.8876 108.719 22.5598 109.184 22.3321C109.649 22.1043 110.159 21.9821 110.677 21.9741C111.194 21.966 111.707 22.0724 112.18 22.2857C112.652 22.499 113.071 22.8139 113.408 23.208V23.208C114.016 23.9206 114.318 24.8461 114.246 25.7814C114.175 26.7167 113.737 27.5854 113.028 28.1969L104.072 35.9018L92.8166 36.8094Z" fill="#207647"/>
<path d="M127.181 50.0772C127.26 49.8879 127.297 49.6836 127.288 49.4786C127.28 49.2736 127.227 49.073 127.133 48.8908C127.039 48.7086 126.906 48.5493 126.744 48.4242C126.582 48.299 126.395 48.211 126.195 48.1663L125.627 43.2122L123.646 44.8768L124.49 49.3261C124.437 49.6675 124.511 50.0163 124.698 50.3065C124.885 50.5967 125.171 50.8082 125.503 50.9007C125.835 50.9933 126.189 50.9606 126.498 50.8088C126.808 50.6571 127.051 50.3967 127.181 50.0772V50.0772Z" fill="#9E616A"/>
<path d="M126.1 46.9322L123.173 46.8721L121.671 37.8177L114.215 30.4373C113.847 30.0725 113.563 29.6308 113.384 29.1435C113.205 28.6563 113.135 28.1354 113.179 27.618C113.223 27.1006 113.38 26.5992 113.639 26.1495C113.898 25.6998 114.253 25.3128 114.677 25.016C115.445 24.4808 116.394 24.273 117.314 24.4382C118.235 24.6034 119.053 25.1282 119.588 25.8974L126.331 35.6084L126.1 46.9322Z" fill="#207647"/>
<path d="M105.849 7.20779C106.263 5.67951 107.241 4.36626 108.584 3.53405C109.927 2.70185 111.536 2.41294 113.084 2.72585C114.631 3.03876 116.003 3.93009 116.92 5.21927C117.837 6.50845 118.231 8.09908 118.023 9.66891C117.814 11.2387 117.019 12.6704 115.797 13.6738C114.576 14.6773 113.019 15.1775 111.444 15.0731C109.868 14.9687 108.391 14.2675 107.312 13.1116C106.233 11.9557 105.632 10.4316 105.631 8.84786C105.631 8.2939 105.704 7.74236 105.849 7.20779V7.20779Z" fill="#9E616A"/>
<path d="M105.057 43.4104C103.971 43.4066 102.902 43.1395 101.94 42.632C100.979 42.1245 100.154 41.3916 99.5357 40.4956C99.1929 39.9769 98.8971 39.3336 99.0968 38.7049C99.1506 38.4842 99.2822 38.2904 99.4674 38.1595C99.6526 38.0286 99.8788 37.9694 100.104 37.9928C100.593 38.0615 101.013 38.4363 101.341 38.78C101.784 39.2709 102.191 39.7936 102.558 40.3441C103.139 41.1677 104.27 42.5011 103.396 43.4875C102.66 44.3172 101.423 44.3874 100.433 44.6865C99.363 45.0098 98.2675 45.7349 98.1714 46.9581C98.0779 48.1477 99.2173 48.9502 100.268 49.1226C100.896 49.2123 101.537 49.1463 102.134 48.9301C102.73 48.714 103.265 48.3543 103.691 47.8828C104.525 46.9164 104.98 45.6792 104.971 44.4015C104.97 44.3049 104.931 44.2127 104.863 44.1444C104.795 44.0761 104.703 44.0369 104.606 44.0352C104.51 44.0336 104.417 44.0694 104.347 44.1353C104.276 44.2012 104.234 44.292 104.229 44.3884C104.211 45.5522 103.83 46.7407 102.971 47.5562C102.166 48.3197 100.888 48.6835 99.8395 48.2339C99.3209 48.0114 98.8385 47.5433 98.9188 46.9342C98.9925 46.3752 99.4452 45.9374 99.9183 45.6851C100.988 45.1143 102.273 45.1648 103.317 44.5061C104.312 43.8781 104.709 42.8272 104.257 41.7131C103.972 41.095 103.619 40.5114 103.202 39.9736C102.821 39.4086 102.406 38.8675 101.959 38.3531C101.288 37.6136 100.237 36.8969 99.2265 37.4248C98.0753 38.0265 98.152 39.5354 98.6846 40.5223C99.8992 42.7729 102.54 44.1455 105.044 44.1552C105.141 44.1535 105.233 44.1144 105.301 44.0461C105.369 43.9778 105.408 43.8857 105.409 43.7891C105.411 43.6925 105.375 43.599 105.31 43.5284C105.244 43.4578 105.154 43.4155 105.057 43.4104L105.057 43.4104Z" fill="#2F2E41"/>
<path d="M121.926 16.7434L112.061 14.7203C111.702 12.8212 115.016 10.2619 115.877 7.14156C114.337 6.95538 112.276 6.64508 110.491 6.24046C108.707 5.83335 107.197 5.33439 106.762 4.76592C107.078 3.21777 107.994 1.85893 109.309 0.988021C110.624 0.117114 112.229 -0.194594 113.773 0.121398L114.983 0.369635C115.023 0.377083 115.063 0.387012 115.102 0.396942C116.586 0.729872 117.884 1.62337 118.728 2.89173C119.968 3.57903 121.097 4.45025 122.077 5.47588C122.489 6.40884 122.729 7.40871 122.787 8.42741C122.935 11.1978 121.757 14.0674 121.926 16.7434Z" fill="#2F2E41"/>
<path d="M214 108.705C214 108.743 213.993 108.782 213.978 108.818C213.963 108.854 213.941 108.886 213.914 108.914C213.887 108.941 213.854 108.963 213.818 108.978C213.783 108.993 213.744 109 213.705 109H0.294518C0.216407 109 0.141498 108.969 0.0862654 108.913C0.0310327 108.858 0 108.783 0 108.705C0 108.626 0.0310327 108.551 0.0862654 108.496C0.141498 108.44 0.216407 108.409 0.294518 108.409H213.705C213.744 108.409 213.783 108.417 213.818 108.431C213.854 108.446 213.887 108.468 213.914 108.495C213.941 108.523 213.963 108.556 213.978 108.591C213.993 108.627 214 108.666 214 108.705Z" fill="#CCCCCC"/>
</g>
<defs>
<clipPath id="clip0_477_49">
<rect width="214" height="109" fill="white"/>
</clipPath>
</defs>
</svg>
