<svg width="172" height="135" viewBox="0 0 172 135" fill="none" xmlns="http://www.w3.org/2000/svg">
<g opacity="0.5" clip-path="url(#clip0_477_256)">
<path opacity="0.1" d="M54.3072 4.76408C58.978 0.584365 66.3123 -0.261853 72.9984 0.0592922C93.9817 1.10623 112.923 11.2673 129.307 22.7627C135.239 26.9231 141.079 31.4079 144.928 37.1388C152.772 48.8044 150.441 64.9644 139.544 74.5747C135.835 77.844 131.34 80.3553 126.725 82.5729C118.52 86.5229 109.667 89.6943 100.354 90.6015C93.7144 91.2438 86.9915 90.7219 80.3887 89.8243C61.944 87.3146 43.8387 81.7652 28.6626 72.2721C22.0069 68.1085 15.7307 62.9316 12.9903 56.1956C10.2499 49.4595 12.0027 40.9235 18.7992 36.9364C21.61 35.2874 24.9714 34.5423 28.2608 33.8422C33.1045 32.8129 38.025 31.7981 42.3949 29.7059C46.9104 27.5445 52.2551 23.3648 51.3587 18.5798C50.4015 13.4462 49.6332 8.93897 54.3072 4.76408Z" fill="#034A23"/>
<path opacity="0.1" d="M73.7803 133.369C85.5503 133.369 95.0918 130.372 95.0918 126.676C95.0918 122.98 85.5503 119.983 73.7803 119.983C62.0102 119.983 52.4688 122.98 52.4688 126.676C52.4688 130.372 62.0102 133.369 73.7803 133.369Z" fill="#034A23"/>
<path d="M117.482 57.8447L118.256 99.067L119.899 99.2612L119.28 57.6809L117.482 57.8447Z" fill="#F5C5CC"/>
<path d="M113.508 57.0693L114.281 98.2916L115.925 98.4859L115.305 56.9055L113.508 57.0693Z" fill="#F5C5CC"/>
<path d="M114.479 54.9144L114.559 99.8748L116.239 99.7142L115.599 54.0312L114.479 54.9144Z" fill="#CC929B"/>
<path d="M68.1191 47.4075L68.8282 84.7744L70.4721 84.9479L69.9183 47.2566L68.1191 47.4075Z" fill="#F5C5CC"/>
<path d="M69.0684 46.709L69.8815 85.5997L70.4722 84.9478L69.9183 47.2565L69.0684 46.709Z" fill="#CC929B"/>
<path d="M71.6172 48.3533L72.3263 85.7186L73.9702 85.892L73.4164 48.2024L71.6172 48.3533Z" fill="#F5C5CC"/>
<path d="M72.5664 47.6533L73.3812 86.5441L73.9702 85.8921L73.4164 48.2025L72.5664 47.6533Z" fill="#CC929B"/>
<path d="M75.0352 49.3779L75.7443 86.7447L77.3882 86.9182L76.8343 49.2285L75.0352 49.3779Z" fill="#F5C5CC"/>
<path d="M75.9844 48.6809L76.7991 87.57L77.3882 86.9181L76.8343 49.2285L75.9844 48.6809Z" fill="#CC929B"/>
<path d="M78.3613 49.5865L79.0912 88.2653L80.7351 88.4451L80.1589 49.4324L78.3613 49.5865Z" fill="#F5C5CC"/>
<path d="M79.3086 48.864L80.1458 89.1196L80.7348 88.4452L80.1586 49.4324L79.3086 48.864Z" fill="#CC929B"/>
<path d="M81.9688 49.8884L82.7003 88.5656L84.3442 88.7454L83.7679 49.7327L81.9688 49.8884Z" fill="#F5C5CC"/>
<path d="M82.918 49.1658L83.7551 89.4198L84.3442 88.7454L83.7679 49.7326L82.918 49.1658Z" fill="#CC929B"/>
<path d="M85.5117 51.1522L86.2416 89.831L87.8855 90.0108L87.3109 50.998L85.5117 51.1522Z" fill="#F5C5CC"/>
<path d="M86.459 50.4294L87.2961 90.6851L87.8852 90.0107L87.3105 50.9979L86.459 50.4294Z" fill="#CC929B"/>
<path d="M89.5684 51.9871L90.3175 91.7449L91.9614 91.9296L91.3675 51.8281L89.5684 51.9871Z" fill="#F5C5CC"/>
<path d="M90.5156 51.2451L91.372 92.6231L91.961 91.9295L91.3672 51.828L90.5156 51.2451Z" fill="#CC929B"/>
<path d="M93.0977 52.4095L93.8452 92.1673L95.4907 92.3519L94.8952 52.2505L93.0977 52.4095Z" fill="#F5C5CC"/>
<path d="M94.0449 51.666L94.9013 93.0456L95.4903 92.352L94.8949 52.2505L94.0449 51.666Z" fill="#CC929B"/>
<path d="M96.8359 53.4691L97.5851 93.227L99.229 93.4132L98.6351 53.3118L96.8359 53.4691Z" fill="#F5C5CC"/>
<path d="M97.7852 52.7273L98.6399 94.1069L99.229 93.4132L98.6351 53.3118L97.7852 52.7273Z" fill="#CC929B"/>
<path d="M64.916 47.3417L64.8359 44.9748L65.6683 44.5188L125.364 56.801L125.475 59.8053L64.916 47.3417Z" fill="#F5C5CC"/>
<path d="M65.6681 44.5188L125.583 56.7914L125.522 57.917L64.959 44.9058" fill="#CC929B"/>
<path d="M68.1388 106.246L66.4581 106.86H64.8574L64.7773 43.5071L65.6577 42.2803L66.5077 42.0299L67.5785 41.8677L68.1388 106.246Z" fill="#F5C5CC"/>
<path d="M68.1402 106.246L66.4595 106.86L66.3555 43.6324L66.5091 42.0299L67.58 41.8677L68.1402 106.246Z" fill="#CC929B"/>
<path d="M100.898 54.646L101.648 94.4023L103.291 94.5885L102.698 54.4871L100.898 54.646Z" fill="#F5C5CC"/>
<path d="M101.848 53.9026L102.704 95.2822L103.293 94.5885L102.699 54.4871L101.848 53.9026Z" fill="#CC929B"/>
<path d="M104.992 55.2741L105.756 95.8814L107.4 96.0708L106.79 55.1135L104.992 55.2741Z" fill="#F5C5CC"/>
<path d="M109.207 56.0175L109.98 97.2398L111.624 97.4341L111.006 55.8538L109.207 56.0175Z" fill="#F5C5CC"/>
<path d="M110.154 55.2483L111.036 98.1534L111.624 97.434L111.006 55.8536L110.154 55.2483Z" fill="#CC929B"/>
<path d="M44.8486 94.0941L43.1679 94.2547L43.0895 49.9061L43.0879 49.2943L44.2084 48.4111L44.226 49.6411L44.8486 94.0941Z" fill="#F5C5CC"/>
<path d="M50.7725 91.6051L49.0918 91.7657L49.0133 48.1412L49.0117 46.8053L50.1322 45.9221L50.1578 47.7141L50.7725 91.6051Z" fill="#F5C5CC"/>
<path d="M60.5361 87.5909L58.8554 87.7515L58.7786 44.6778L58.7754 42.7911L59.8959 41.908L59.9311 44.4097L60.5361 87.5909Z" fill="#F5C5CC"/>
<path d="M64.7783 85.9852L63.0976 86.1458L63.0224 44.1239L63.0176 41.1854L64.1381 40.3022L64.1957 44.384L64.7783 85.9852Z" fill="#F5C5CC"/>
<path d="M47.8115 93.6124L46.1308 93.773L46.0508 49.1337V48.8126L47.1713 47.9294L47.1825 48.7757L47.8115 93.6124Z" fill="#F5C5CC"/>
<path d="M56.4541 89.598L54.7734 89.7586L54.695 45.9607L54.6934 44.7982L55.8138 43.915L55.8362 45.5625L56.4541 89.598Z" fill="#F5C5CC"/>
<path d="M53.6533 90.401L51.9726 90.5616L51.8958 47.0287L51.8926 45.6012L53.0131 44.718L53.0387 46.5775L53.6533 90.401Z" fill="#F5C5CC"/>
<path d="M43.057 86.6853L42.6569 87.5283C42.6569 87.5283 41.6164 89.0939 41.7365 91.5025C41.8565 93.9111 40.0605 100.294 40.0605 100.294C40.0605 100.294 41.7012 101.057 42.9418 100.976C44.1823 100.896 46.8635 102.221 46.8635 102.221L52.421 103.95L63.6658 106.6C63.6658 106.6 70.2687 110.293 72.0694 110.293C73.8702 110.293 81.0333 112.741 81.0333 112.741C81.0333 112.741 90.7174 114.869 91.4777 115.672C92.2381 116.475 95.4442 117.555 95.7644 117.599C96.0845 117.642 100.967 118.121 100.967 118.121C100.967 118.121 106.649 119.445 107.449 118.04C107.916 117.25 108.228 116.378 108.37 115.471C108.37 115.471 110.891 116.033 111.571 115.19C112.251 114.347 112.291 112.541 113.092 112.621C113.892 112.701 117.174 113.705 117.534 113.344C117.894 112.982 119.815 108.727 121.175 109.369C122.536 110.012 124.897 111.015 124.897 111.015L123.536 97.1258L122.936 93.3121C122.936 93.3121 101.127 102.224 100.366 102.224C99.606 102.224 43.057 86.6853 43.057 86.6853Z" fill="#034A23"/>
<path d="M122.816 74.5219L122.696 94.1118L100.041 102.826L42.6568 87.5315C42.6568 87.5315 38.7751 82.0319 42.3766 76.8935C42.3766 76.8935 37.7347 70.4706 43.4971 66.2957L43.6396 66.262L65.4265 60.9968L75.1155 62.7728L117.926 70.628C117.926 70.628 122.131 72.1936 122.816 74.5219Z" fill="#034A23"/>
<path opacity="0.1" d="M74.3494 64.6466C73.2689 65.2087 65.4256 67.256 63.8649 68.5004C62.3043 69.7448 51.4996 70.7115 51.4996 70.7115L50.2991 70.9523C50.2991 70.9523 50.3792 70.1495 45.6171 67.8212C44.8563 67.4457 44.1824 66.9146 43.6387 66.262L65.4256 60.9968L75.1145 62.7728C75.1273 63.5419 74.9961 64.3094 74.3494 64.6466Z" fill="black"/>
<path d="M41.4165 56.9021C41.4165 56.9021 41.0163 64.6899 45.7784 67.0182C50.5404 69.3465 50.4652 70.1461 50.4652 70.1461L51.6657 69.9053C51.6657 69.9053 47.5039 65.2487 47.784 64.4458C48.0641 63.6429 44.0624 59.5885 43.4974 59.4279C42.9323 59.2673 41.4165 56.9021 41.4165 56.9021Z" fill="#034A23"/>
<path opacity="0.1" d="M41.5005 57.0195C41.5005 57.0195 41.1003 64.8073 45.8623 67.1356C50.6244 69.4639 50.5443 70.2668 50.5443 70.2668L51.7449 70.0259C51.7449 70.0259 47.5831 65.3693 47.8632 64.5665C48.1433 63.7636 44.1368 59.7091 43.5814 59.5486C43.0259 59.388 41.5005 57.0195 41.5005 57.0195Z" fill="black"/>
<path opacity="0.1" d="M42.6211 60.311C42.6211 60.311 46.4627 66.1318 47.143 66.3325C47.8233 66.5332 43.5367 60.3913 42.6211 60.311Z" fill="black"/>
<path d="M40.8613 55.815C40.8613 55.815 43.3424 53.8079 43.6625 53.4064C43.9827 53.005 47.5042 52.8444 47.6242 52.8444C47.7443 52.8444 50.4254 51.1985 53.4267 50.6767C56.428 50.1548 57.6285 49.914 57.6285 49.914C57.6285 49.914 62.0304 48.0674 62.2705 47.6659C62.5106 47.2645 64.5515 46.8229 67.0725 48.79C69.5936 50.757 75.156 59.5885 75.196 60.5519C75.236 61.5154 75.5962 63.2817 74.5157 63.8437C73.4353 64.4057 65.5919 66.453 64.0312 67.6974C62.4706 68.9419 51.6611 69.9085 51.6611 69.9085L47.5842 65.4494L45.4233 61.9569L41.8217 58.1433L40.8613 55.815Z" fill="#034A23"/>
<path opacity="0.1" d="M47.552 90.4861C47.552 90.4861 46.0585 90.8072 46.9117 91.6631C47.7649 92.5189 47.552 90.4861 47.552 90.4861Z" fill="black"/>
<path opacity="0.1" d="M52.7819 92.1992C52.7819 92.1992 51.1812 94.1261 51.5013 94.6608C51.8215 95.1955 52.7819 92.1992 52.7819 92.1992Z" fill="black"/>
<path opacity="0.1" d="M62.1725 94.6609C62.1725 94.6609 60.5718 96.5878 60.8919 97.1225C61.2121 97.6572 62.1725 94.6609 62.1725 94.6609Z" fill="black"/>
<path opacity="0.1" d="M73.5905 97.8723C73.5905 97.8723 71.9898 99.7992 72.3099 100.334C72.63 100.869 73.5905 97.8723 73.5905 97.8723Z" fill="black"/>
<path opacity="0.1" d="M88.9557 101.726C88.9557 101.726 87.355 103.653 87.6751 104.188C87.9953 104.722 88.9557 101.726 88.9557 101.726Z" fill="black"/>
<path opacity="0.1" d="M57.3698 92.7341C57.3698 92.7341 55.7691 94.661 56.0892 95.1957C56.4093 95.7304 57.3698 92.7341 57.3698 92.7341Z" fill="black"/>
<path opacity="0.1" d="M79.6725 99.478C79.6725 99.478 78.0718 101.405 78.3919 101.94C78.7121 102.474 79.6725 99.478 79.6725 99.478Z" fill="black"/>
<path opacity="0.1" d="M84.3678 100.976C84.3678 100.976 82.7671 102.903 83.0873 103.44C83.4074 103.976 84.3678 100.976 84.3678 100.976Z" fill="black"/>
<path opacity="0.1" d="M66.3346 95.9456C66.3346 95.9456 64.7339 97.8724 65.0541 98.4071C65.3742 98.9418 66.3346 95.9456 66.3346 95.9456Z" fill="black"/>
<path opacity="0.1" d="M106.672 107.614L108.365 115.468C108.365 115.468 108.378 109.968 106.672 107.614Z" fill="black"/>
<path opacity="0.1" d="M111.898 108.791L113.086 112.621C113.086 112.621 112.966 111.147 111.898 108.791Z" fill="black"/>
<path opacity="0.1" d="M117.533 113.34C117.533 113.34 114.999 104.082 114.465 103.439C113.93 102.797 116.008 112.753 117.533 113.34Z" fill="black"/>
<path opacity="0.1" d="M120.544 109.005C120.544 109.005 117.557 103.761 118.73 102.797C119.903 101.834 120.544 109.005 120.544 109.005Z" fill="black"/>
<path opacity="0.1" d="M42.377 76.8904L100.375 89.9514L122.679 83.4209L100.162 89.3091C100.162 89.3091 44.1377 76.3557 42.377 76.8904Z" fill="black"/>
<path d="M44.1289 62.702L44.2089 100.075L45.8496 100.276L45.9297 62.5815L44.1289 62.702Z" fill="#F5C5CC"/>
<path d="M45.0898 62.0195L45.2499 100.918L45.8502 100.276L45.9302 62.5815L45.0898 62.0195Z" fill="#CC929B"/>
<path d="M47.6113 63.7056L47.6914 101.079L49.3321 101.28L49.4121 63.5852L47.6113 63.7056Z" fill="#F5C5CC"/>
<path d="M48.5703 63.0232L48.7304 101.922L49.3306 101.28L49.4107 63.5852L48.5703 63.0232Z" fill="#CC929B"/>
<path d="M51.0117 64.7896L51.0918 102.163L52.7325 102.364L52.8125 64.6692L51.0117 64.7896Z" fill="#F5C5CC"/>
<path d="M51.9727 64.1072L52.1327 103.006L52.733 102.364L52.813 64.6692L51.9727 64.1072Z" fill="#CC929B"/>
<path d="M54.334 65.0545L54.414 103.74L56.0547 103.947L56.1348 64.9292L54.334 65.0545Z" fill="#F5C5CC"/>
<path d="M55.2949 64.3479L55.455 104.612L56.0552 103.947L56.1353 64.9292L55.2949 64.3479Z" fill="#CC929B"/>
<path d="M57.9355 65.4158L58.0156 104.101L59.6563 104.308L59.7363 65.2905L57.9355 65.4158Z" fill="#F5C5CC"/>
<path d="M58.8965 64.7092L59.0566 104.973L59.6568 104.308L59.7368 65.2905L58.8965 64.7092Z" fill="#CC929B"/>
<path d="M61.457 66.7405L61.5371 105.426L63.1778 105.633L63.2578 66.6152L61.457 66.7405Z" fill="#F5C5CC"/>
<path d="M62.418 66.0339L62.578 106.298L63.1783 105.633L63.2583 66.6152L62.418 66.0339Z" fill="#CC929B"/>
<path d="M66.459 66.9172L66.6191 108.305L67.2193 107.621L67.2993 67.5146L66.459 66.9172Z" fill="#CC929B"/>
<path d="M69.0195 68.1246L69.0996 107.889L70.7403 108.102L70.8203 67.9961L69.0195 68.1246Z" fill="#F5C5CC"/>
<path d="M69.9805 67.3989L70.1405 108.787L70.7408 108.103L70.8208 67.9963L69.9805 67.3989Z" fill="#CC929B"/>
<path d="M72.7422 69.2486L72.8222 109.013L74.4629 109.226L74.543 69.1201L72.7422 69.2486Z" fill="#F5C5CC"/>
<path d="M73.7012 68.5229L73.8612 109.911L74.4615 109.227L74.5415 69.1203L73.7012 68.5229Z" fill="#CC929B"/>
<path d="M76.7832 70.493L76.8632 110.257L78.5039 110.471L78.584 70.3645L76.7832 70.493Z" fill="#F5C5CC"/>
<path d="M77.7441 69.7673L77.9042 111.155L78.5045 110.471L78.5845 70.3647L77.7441 69.7673Z" fill="#CC929B"/>
<path d="M80.8652 71.1915L80.9453 111.804L82.586 112.022L82.666 71.0598L80.8652 71.1915Z" fill="#F5C5CC"/>
<path d="M81.8262 70.4497L81.9862 112.721L82.5865 112.022L82.6665 71.0599L81.8262 70.4497Z" fill="#CC929B"/>
<path d="M85.0664 72.0056L85.1464 113.236L86.7871 113.457L86.8672 71.8723L85.0664 72.0056Z" fill="#CC929B"/>
<path d="M89.3477 73.1296L89.4277 114.36L91.0684 114.581L91.1484 72.9963L89.3477 73.1296Z" fill="#F5C5CC"/>
<path d="M90.3086 72.3767L90.4687 115.29L91.0689 114.582L91.149 72.9965L90.3086 72.3767Z" fill="#CC929B"/>
<path d="M93.3105 73.9726L93.3906 115.203L95.0313 115.425L95.1113 73.8394L93.3105 73.9726Z" fill="#CC929B"/>
<path d="M41.9689 107.341L40.2881 107.984H38.6875L38.6074 49.0533L39.4878 47.7688L40.3378 47.507L41.5687 47.1265L41.9689 107.341Z" fill="#F5C5CC"/>
<path d="M41.9684 107.341L40.2876 107.984L40.1836 49.1834L40.3373 47.507L41.5682 47.1265L41.9684 107.341Z" fill="#CC929B"/>
<path d="M40.4482 109.83C41.509 109.83 42.369 108.968 42.369 107.903C42.369 106.839 41.509 105.977 40.4482 105.977C39.3873 105.977 38.5273 106.839 38.5273 107.903C38.5273 108.968 39.3873 109.83 40.4482 109.83Z" fill="#40414D"/>
<path d="M127.926 116.362L126.245 116.976H124.644L124.564 52.1782L125.445 52.3966L126.295 52.1461L127.526 51.7832L127.926 116.362Z" fill="#F5C5CC"/>
<path d="M127.925 116.362L126.245 116.976L126.141 53.7486L126.294 52.1461L127.525 51.7832L127.925 116.362Z" fill="#CC929B"/>
<path d="M104.636 104.21L102.955 104.371L102.878 61.0818L102.875 59.4103L103.995 58.5271L104.027 60.8345L104.636 104.21Z" fill="#F5C5CC"/>
<path d="M110.558 101.721L108.877 101.882L108.802 59.3927L108.797 56.9215L109.917 56.0383L109.959 58.9704L110.558 101.721Z" fill="#F5C5CC"/>
<path d="M120.321 97.7069L118.641 97.8675L118.565 55.4778L118.561 52.9071L119.681 52.0239L119.723 54.9961L120.321 97.7069Z" fill="#F5C5CC"/>
<path d="M122.803 51.3014L122.883 96.2618L124.563 96.1012L123.923 50.4182L122.803 51.3014Z" fill="#F5C5CC"/>
<path d="M107.597 103.728L105.916 103.889L105.839 60.3544L105.836 58.9286L106.956 58.0454L106.984 60.006L107.597 103.728Z" fill="#F5C5CC"/>
<path d="M113.438 100.517L111.758 100.678L111.683 58.3008L111.678 55.7171L112.798 54.834L112.84 57.8335L113.438 100.517Z" fill="#F5C5CC"/>
<path d="M116.692 99.4459L115.012 99.6065L114.936 57.2297V56.9776L114.932 54.6461L116.052 53.7629L116.091 56.5023L116.094 56.7624L116.692 99.4459Z" fill="#F5C5CC"/>
<path d="M101.273 103.916L124.483 94.0137L126.084 94.3878L126.137 98.081L101.701 107.555L101.273 103.916Z" fill="#F5C5CC"/>
<path d="M124.483 94.0137L101.273 103.916L125.998 94.3669" fill="#CC929B"/>
<path d="M41.1406 98.6704L99.6729 116.494L99.5656 119.384L40.9277 101.24L41.1406 98.6704Z" fill="#F5C5CC"/>
<path d="M102.234 126.61L100.554 127.252H98.9531L98.873 61.2568V60.9357L98.9979 60.7526L99.7534 59.6511L100.603 59.3893L101.834 59.0088L101.847 61.2568L102.234 126.61Z" fill="#F5C5CC"/>
<path d="M102.234 126.61L100.553 127.252L100.449 61.0657L100.603 59.3893L101.834 59.0088L102.234 126.61Z" fill="#CC929B"/>
<path opacity="0.1" d="M101.834 59.0088L101.847 61.2568C101.384 61.3247 100.917 61.3687 100.45 61.3885C99.2972 61.4334 98.873 61.2584 98.873 61.2584C98.873 61.2359 98.9179 61.0561 98.9979 60.7558L99.7534 59.6543L100.603 59.3926L101.834 59.0088Z" fill="black"/>
<path opacity="0.1" d="M103.994 58.5271L104.026 60.8345C103.613 60.9309 103.23 61.0133 102.877 61.0818V59.4103L103.994 58.5271Z" fill="black"/>
<path opacity="0.1" d="M106.957 58.0454L106.984 60.006C106.586 60.1329 106.203 60.2485 105.84 60.3544V58.9286L106.957 58.0454Z" fill="black"/>
<path opacity="0.1" d="M109.916 56.0383L109.958 58.9704C109.558 59.1192 109.172 59.26 108.801 59.3927V56.9215L109.916 56.0383Z" fill="black"/>
<path opacity="0.1" d="M112.799 54.834L112.841 57.8335L111.919 58.206L111.684 58.3008V55.7171L112.799 54.834Z" fill="black"/>
<path opacity="0.1" d="M119.724 54.9962L118.566 55.478V52.9088L119.687 52.0256L119.724 54.9962Z" fill="black"/>
<path opacity="0.1" d="M116.094 56.5025L114.939 56.9842V54.6527L116.06 53.7695L116.094 56.5025Z" fill="black"/>
<path d="M128.486 53.2284C128.486 53.2284 125.524 53.2284 124.724 52.9875C123.924 52.7467 122.243 53.7101 111.919 57.885C105.676 60.4108 102.21 60.9969 100.45 61.0659C99.2972 61.1109 98.873 60.9359 98.873 60.9359C98.873 60.9359 100.981 51.2341 107.694 49.4212C108.443 49.2167 109.179 48.9684 109.899 48.6778L110.028 48.628C110.592 48.4089 111.17 48.2292 111.759 48.0901C113.913 47.5939 115.451 46.6449 119.346 46.616C121.762 46.5754 124.12 47.3602 126.033 48.8415C127.368 49.8949 128.519 51.3513 128.486 53.2284Z" fill="#CC929B"/>
<path d="M110.318 48.5718C102.01 52.1654 100.743 58.8822 100.45 61.0659C99.2972 61.1109 98.873 60.9359 98.873 60.9359C98.873 60.9359 100.981 51.2341 107.694 49.4212C108.443 49.2167 109.179 48.9684 109.899 48.6778L110.028 48.628C110.124 48.6135 110.22 48.5943 110.318 48.5718Z" fill="#F5C5CC"/>
<path opacity="0.1" d="M44.2087 48.4111L44.2263 49.6411C43.8214 49.7423 43.4436 49.8306 43.0898 49.9061V49.2943L44.2087 48.4111Z" fill="black"/>
<path opacity="0.1" d="M47.1713 47.9294L47.1825 48.7757C46.7887 48.9063 46.4115 49.0256 46.0508 49.1337V48.8126L47.1713 47.9294Z" fill="black"/>
<path opacity="0.1" d="M50.1326 45.9221L50.1582 47.7141C49.7644 47.8651 49.3829 48.0074 49.0137 48.1412V46.8053L50.1326 45.9221Z" fill="black"/>
<path opacity="0.1" d="M53.0138 44.718L53.0394 46.5775C52.6712 46.7198 52.2903 46.8702 51.8965 47.0287V45.6012L53.0138 44.718Z" fill="black"/>
<path opacity="0.1" d="M55.8142 43.915L55.8366 45.5625C55.4738 45.6846 55.0933 45.8173 54.6953 45.9607V44.7982L55.8142 43.915Z" fill="black"/>
<path opacity="0.1" d="M59.8966 41.908L59.9318 44.4097C59.578 44.4835 59.1955 44.5703 58.7793 44.6778V42.7911L59.8966 41.908Z" fill="black"/>
<path opacity="0.1" d="M64.1948 44.3774C63.8181 44.235 63.4229 44.1474 63.0215 44.1173V41.1788L64.142 40.2957L64.1948 44.3774Z" fill="black"/>
<path d="M68.2201 44.3968C68.2201 44.3968 65.2588 44.3968 64.4585 44.156C63.6581 43.9151 61.9774 42.6305 51.653 46.8054C45.4103 49.3312 41.9448 49.9173 40.1841 49.9864C39.0316 50.0313 38.6074 49.8563 38.6074 49.8563C38.6074 49.8563 40.1969 41.4262 47.2063 40.0035C47.5975 39.9271 47.9839 39.8279 48.3636 39.7065C48.7942 39.5652 49.4729 39.3629 50.3853 39.1525C52.7383 38.6098 56.6391 38.014 61.8238 38.2661C63.6207 38.3337 65.3251 39.0832 66.5922 40.3632C67.1223 40.8894 67.5401 41.5185 67.82 42.212C68.0998 42.9054 68.236 43.6488 68.2201 44.3968Z" fill="#CC929B"/>
<path d="M50.3853 39.1526C42.0777 42.7462 40.477 47.8026 40.1841 49.9864C39.0316 50.0314 38.6074 49.8564 38.6074 49.8564C38.6074 49.8564 40.1969 41.4263 47.2063 40.0036C47.5975 39.9271 47.9839 39.828 48.3636 39.7066C48.7942 39.5604 49.4729 39.3629 50.3853 39.1526Z" fill="#F5C5CC"/>
<path d="M40.9287 62.5818L40.8887 60.2133L41.729 59.7717L99.1936 72.6978L99.0335 75.7086L40.9287 62.5818Z" fill="#F5C5CC"/>
<path d="M41.7292 59.7717L99.1938 72.6978L99.1137 73.8218L41.0137 60.1475" fill="#CC929B"/>
<path d="M126.245 118.903C127.306 118.903 128.166 118.04 128.166 116.976C128.166 115.912 127.306 115.049 126.245 115.049C125.184 115.049 124.324 115.912 124.324 116.976C124.324 118.04 125.184 118.903 126.245 118.903Z" fill="#40414D"/>
<path d="M100.794 129.822C101.855 129.822 102.715 128.959 102.715 127.895C102.715 126.83 101.855 125.968 100.794 125.968C99.733 125.968 98.873 126.83 98.873 127.895C98.873 128.959 99.733 129.822 100.794 129.822Z" fill="#40414D"/>
<path d="M43.1162 88.2861C43.1162 88.2861 41.4082 90.213 40.8752 91.9263C40.3422 93.6396 41.5155 100.063 41.5155 100.063C42.117 98.9939 42.549 97.8379 42.796 96.6359C43.2218 94.6031 43.1162 88.2861 43.1162 88.2861Z" fill="#034A23"/>
<path d="M124.163 104.291C124.163 104.291 125.204 109.589 125.284 110.392C125.364 111.195 122.643 109.991 122.643 109.991L124.163 104.291Z" fill="#034A23"/>
<path d="M92.6304 38.7269H92.6032C92.5966 38.6724 92.5762 38.6204 92.544 38.576C92.4708 38.4902 92.3802 38.4212 92.2782 38.3737L91.5275 37.9546L92.1758 38.1906C92.1454 38.1382 92.1117 38.0878 92.075 38.0397L92.1502 38.0814L92.099 38.0092L92.0301 37.9851C91.6844 37.5788 91.1081 37.4102 90.5495 37.4183H90.5591C90.6311 37.4086 90.7048 37.4022 90.7768 37.3974C90.6166 37.3873 90.4559 37.3921 90.2966 37.4118C90.3145 37.4196 90.3333 37.425 90.3526 37.4279C90.3014 37.4279 90.2502 37.4375 90.1926 37.4439C90.1103 37.4663 90.0235 37.4663 89.9412 37.4439C89.8905 37.4181 89.8466 37.3806 89.813 37.3346C89.7793 37.2886 89.7569 37.2353 89.7476 37.179C89.6675 36.8579 89.794 36.5126 89.8308 36.177C89.8488 36.0195 89.8319 35.8599 89.7812 35.7098C89.7812 35.6776 89.7812 35.6455 89.7812 35.6134C89.7548 35.5424 89.712 35.4786 89.6564 35.4272C89.6007 35.3759 89.5338 35.3385 89.461 35.318C89.4603 35.3303 89.4603 35.3426 89.461 35.3549L89.4338 35.3437C89.4338 35.6311 89.4338 35.9201 89.4338 36.2075C89.1852 36.0109 88.9649 35.7807 88.7791 35.5235C88.746 35.4844 88.7234 35.4374 88.7135 35.387C88.6975 35.2409 88.8832 35.1397 88.8944 34.992C88.8937 34.9445 88.8778 34.8986 88.8489 34.8609C88.8201 34.8233 88.7799 34.7961 88.7343 34.7833L88.7823 34.7656C88.7254 34.7391 88.6624 34.728 88.5999 34.7335C88.4628 34.7648 88.328 34.8056 88.1965 34.8555L88.2381 34.8635C88.2071 34.8738 88.1756 34.8824 88.1437 34.8892C87.7419 34.9727 87.3834 34.6516 87.0936 34.3609L87.0312 34.2983C86.8935 33.0892 86.671 31.7035 86.671 31.7035C86.671 31.7035 86.471 30.1202 86.1908 29.2692C85.9107 28.4181 85.5073 26.9152 85.5073 26.9152C85.5073 26.9152 84.5854 25.0895 84.3869 25.0092C84.3094 24.9704 84.2341 24.9275 84.1612 24.8807C84.0746 24.6077 84.0208 24.3252 84.0011 24.0393C83.9515 22.4432 85.6514 21.3096 85.9075 19.7279C86.1172 18.4434 85.3105 17.1588 85.4273 15.8565C85.4817 15.2865 85.7106 14.7502 85.8339 14.1914C85.9509 13.6493 85.9666 13.0902 85.8803 12.5423C85.8395 12.2477 85.7508 11.9619 85.6178 11.6961C85.8505 11.3945 86.0446 11.0649 86.1956 10.715C86.4549 9.97314 86.1748 9.14458 85.7699 8.46697C84.4685 6.31047 81.8322 4.61322 79.3671 4.39323C78.3731 4.30171 77.3759 4.28404 76.3802 4.26799C75.2374 4.24711 74.0561 4.23427 72.9996 4.67745C70.8995 5.55899 69.9055 7.9146 68.6297 9.81578C67.5759 11.3881 66.2264 12.7392 64.6568 13.7932C63.9189 14.2877 63.0561 14.8144 62.8833 15.6927C62.8668 15.777 62.8567 15.8623 62.8529 15.9481C62.8313 15.8709 62.8136 15.7926 62.8 15.7136C62.6256 16.6305 63.2706 17.4799 63.6004 18.355C63.7726 18.8124 63.872 19.2941 63.8949 19.7825C63.9077 19.5515 63.9077 19.3199 63.8949 19.0889C64.215 20.7556 63.6276 22.5444 63.2642 24.2481C63.237 24.3733 63.2162 24.4986 63.1906 24.6238C62.8924 24.7072 62.6085 24.8355 62.3486 25.0044C61.7786 25.3849 61.1331 25.6369 60.4566 25.743C59.5491 25.886 58.7327 26.3778 58.1805 27.1143C58.078 27.2524 57.9788 27.3471 57.8923 27.3568C57.5322 27.3985 55.5249 33.6865 55.5249 33.6865C55.5249 33.6865 55.1071 36.2766 55.1071 36.8835C55.1071 37.4905 54.3852 41.8741 54.3852 41.8741C54.3852 41.8741 54.1435 42.677 54.2252 43.0094C54.2716 43.1941 54.1611 43.8123 54.0571 44.31C54.0135 44.2918 53.975 44.2632 53.945 44.2265C53.825 43.9841 51.616 44.2265 52.2995 45.8499C52.4695 46.2867 52.7335 46.6804 53.0727 47.0028C52.7685 47.7672 52.5044 48.4785 52.5396 48.5684C52.5396 48.5684 52.5396 49.1481 52.5909 49.8643C52.1219 50.1854 51.7377 50.4744 51.7377 50.4744C51.7041 51.3608 52.2931 51.5021 52.847 51.47C52.9894 51.9838 53.1975 52.3917 53.5033 52.5025C54.5069 52.8686 55.1488 52.7064 55.4705 52.9842C55.7922 53.262 57.5082 53.8015 57.5082 53.8015C58.2369 53.9116 58.9711 53.9819 59.7075 54.0118L60.002 54.1596L59.9668 53.999C60.0613 53.9813 60.018 53.8689 59.8996 53.6779C59.8468 53.4322 59.7795 53.111 59.7043 52.7449L60.1445 52.5844L60.2645 52.7626C60.1045 53.604 60.002 54.1644 60.002 54.1644C60.002 54.1644 59.2017 57.0451 59.5602 57.4915C59.9188 57.9379 59.5602 58.5063 59.5602 58.5063C59.5602 58.5063 59.4802 59.2353 59.6819 59.2353C59.8836 59.2353 60.1221 60.1682 59.922 60.21C59.7219 60.2517 58.8015 61.0209 59.1217 61.183C59.4418 61.3452 59.1217 61.7097 59.1217 62.0758C59.1217 62.3424 59.6115 62.7374 59.8772 62.9317C59.8292 63.1051 59.7795 63.2897 59.7331 63.4712C59.5955 64.0075 59.4882 64.5246 59.5218 64.7124C59.6019 65.1588 59.3217 66.4161 59.4018 66.8223C59.4818 67.2286 59.7635 68.1198 59.5618 68.4859C59.3602 68.852 59.6019 70.0675 59.6019 70.0675L59.9636 73.515C59.9636 73.515 59.7235 74.4897 59.9636 74.7322C60.2037 74.9746 60.4054 77.8168 60.6455 78.1411C60.8856 78.4655 61.249 80.1692 60.9656 80.7376C60.6823 81.306 61.3274 82.4814 61.3274 82.4814C61.3274 82.4814 61.2874 83.8607 61.2874 84.2252C61.2874 84.5897 61.6475 85.1582 61.6475 85.1582C61.6475 85.1582 62.0093 87.1059 61.9677 87.5924C61.9261 88.079 62.2078 88.7694 62.2078 88.7694C62.2078 88.7694 62.4495 90.1889 62.4095 90.5133C62.3694 90.8376 62.7296 91.284 62.7296 91.284C62.7296 91.284 63.1714 92.339 63.0497 92.7854C62.9281 93.2318 63.3299 93.6782 63.3299 93.6782C63.3299 93.6782 63.2898 94.6512 63.2898 94.7733C63.2898 94.8953 64.1334 95.8684 64.1334 95.8684C64.1334 95.8684 63.7716 96.599 63.9733 96.8832C64.175 97.1674 64.1334 98.1806 64.4535 98.5066C64.7737 98.8325 64.6936 100.169 65.0938 100.413C65.494 100.657 65.8557 100.859 65.9358 101.386C66.0158 101.912 66.3375 102.685 66.6993 102.807C66.768 102.854 66.8276 102.913 66.8754 102.982L66.7153 103.664L66.2207 105.728C66.2207 105.728 65.7405 108.729 65.7789 109.175C65.8173 109.621 65.2987 110.068 65.2987 110.068C65.2987 110.068 64.8569 112.664 64.7769 112.989C64.6968 113.313 64.8169 113.922 64.8169 113.922C64.8169 113.922 64.5368 115.463 64.7369 115.545C64.9369 115.627 65.7805 116.478 65.7805 116.478H65.8461L65.7597 116.783L64.3751 121.713C64.3751 121.713 63.0946 123.863 66.0622 124.958C66.1615 125.15 66.2527 125.155 66.1455 125.118C66.2431 125.202 68.2264 126.885 68.3864 127.673C68.5465 128.461 69.9119 129.295 70.3937 129.377C70.8755 129.459 74.0865 132.053 75.2502 129.499C76.4139 126.944 73.2029 125.279 73.2029 125.279L70.7586 123.7C70.7586 123.7 69.5149 121.875 69.318 121.55C69.1211 121.226 68.7562 119.643 68.9979 119.4C69.1211 119.275 69.5069 118.164 69.8559 117.107C69.8879 117.006 69.9215 116.907 69.9535 116.807C70.6354 116.968 71.4069 116.646 71.4069 116.646L73.1949 113.817L73.515 113.321L73.5726 113.437C73.5726 113.437 75.0581 113.559 75.78 113.681C76.0093 113.69 76.2387 113.661 76.4587 113.596C76.4859 113.655 76.5131 113.716 76.5387 113.777C76.7139 114.153 76.8626 114.541 76.9837 114.938C77.1037 115.465 77.2254 117.331 77.2254 117.331C77.2254 117.331 76.4251 120.009 76.2218 120.495C76.0185 120.982 76.4219 125.04 80.3964 123.416C80.3964 123.416 80.8766 122.645 81.3184 122.645C81.7601 122.645 82.8438 121.55 82.4388 120.373C82.0339 119.196 80.3579 115.587 81.5168 113.681C82.4516 112.146 82.3764 110.087 81.1199 109.13C81.067 109.09 81.011 109.055 80.9598 109.019C80.9734 108.815 80.9734 108.61 80.9598 108.406C80.6781 104.512 78.8789 104.308 78.8789 104.308C78.8789 104.308 77.8353 104.066 77.7152 103.666C77.6448 103.431 76.7404 102.221 75.9913 101.236C76.0169 101.195 76.0409 101.153 76.0649 101.111C76.0649 101.097 76.0809 101.082 76.0873 101.068C76.1225 101.002 76.1561 100.934 76.1882 100.864C76.7708 99.5503 76.6203 97.6395 76.5899 97.2975C76.5499 96.8511 76.5899 96.2826 76.5899 95.6339C76.5899 94.9852 77.2302 94.0105 77.1518 93.646C77.0733 93.2815 77.9153 91.7802 77.9153 91.4141C77.9153 91.048 78.5059 88.8561 78.5059 88.8561C78.5059 88.8561 79.6697 86.34 79.9114 85.6094C80.1419 84.9093 84.2524 72.1469 84.5853 71.1129C84.5915 71.09 84.599 71.0675 84.6078 71.0454C84.6078 71.0454 85.9203 66.7372 85.0415 63.908C84.9845 63.7212 84.9156 63.5383 84.8351 63.3604C85.104 63.2303 85.2897 63.1356 85.2897 63.1356C85.2897 63.1356 84.7678 61.5941 85.0079 61.0257C85.248 60.4572 85.088 59.3621 85.088 59.3621C85.088 59.3621 84.1276 58.7937 84.0859 58.5512C84.0443 58.3088 83.6441 57.9828 83.7658 57.6585C83.8875 57.3341 84.5661 57.4979 84.4877 56.7657C84.4093 56.0335 83.5657 55.2643 83.6457 54.8179C83.7258 54.3715 84.0459 53.5606 83.6457 53.0741C83.2456 52.5876 83.0839 51.8168 83.0439 51.2082C83.0327 51.0477 83.0679 50.574 83.1239 49.9494C83.5518 50.2165 83.9937 50.4603 84.4477 50.68C84.4477 50.68 86.1732 50.924 86.2549 50.7619C86.4092 50.5552 86.584 50.3647 86.7767 50.1934C88.944 49.6667 87.9804 45.6974 87.9804 45.6974C87.9804 45.6974 87.9484 45.4067 87.8972 44.9282C87.9516 44.9145 88.0028 44.8899 88.0476 44.856C88.2317 44.7211 88.2765 44.4642 88.3886 44.2619C88.5161 44.0706 88.6654 43.8949 88.8336 43.7384C89.2305 43.3049 89.4658 42.7509 89.6931 42.2065C89.8372 41.8597 89.9845 41.5129 90.1301 41.1644C90.2758 40.816 90.4503 40.4001 90.7704 40.148C91.1386 39.8509 91.638 39.7931 92.107 39.7498C92.0881 39.3895 91.9539 39.0449 91.7244 38.7671C91.8654 38.7238 92.0142 38.7128 92.16 38.7351C92.3057 38.7573 92.4446 38.8121 92.5664 38.8955C92.5729 38.8846 92.5787 38.8734 92.584 38.8618H92.5936C92.6204 38.8222 92.6333 38.7747 92.6304 38.7269ZM58.3549 49.837C58.3645 49.7567 58.3789 49.6764 58.3965 49.5961C58.475 49.5222 58.5694 49.4355 58.6703 49.3552L59.2305 49.4098C59.0928 49.5222 58.9728 49.625 58.8752 49.7085C58.7023 49.6202 58.5134 49.7069 58.3549 49.837ZM59.4754 48.7242C59.5547 48.7184 59.6328 48.7017 59.7075 48.6744C59.8148 48.6744 59.9252 48.6744 60.0372 48.6744H60.1973C59.93 48.8623 59.6595 49.071 59.4194 49.2653L59.4754 48.737V48.7242ZM60.399 40.535C60.399 40.535 60.3622 41.6879 60.4438 42.8472C60.319 42.9355 60.1893 43.0319 60.0613 43.133L60.3446 40.4595L60.399 40.535Z" fill="url(#paint0_linear_477_256)"/>
<path d="M81.3047 122.475C80.8645 122.475 80.3843 123.238 80.3843 123.238C76.4226 124.844 76.0224 120.829 76.2225 120.348C76.4226 119.866 77.223 117.216 77.223 117.216C77.223 117.216 77.1029 115.37 76.9828 114.848C76.8615 114.456 76.7133 114.072 76.5395 113.7C76.2706 113.085 75.9824 112.48 75.9824 112.48C75.9824 112.48 77.7032 108.224 79.9841 108.626C80.3907 108.694 80.775 108.859 81.1046 109.108C82.3579 110.055 82.4332 112.093 81.5 113.604C80.3395 115.49 82.0202 119.063 82.4204 120.227C82.8206 121.391 81.7449 122.475 81.3047 122.475Z" fill="#FDC2CC"/>
<path d="M75.2619 129.26C74.1014 131.789 70.9001 129.219 70.4199 129.139C69.9397 129.059 68.5791 128.256 68.419 127.453C68.2589 126.65 66.2789 125.008 66.1781 124.926C66.2853 124.959 66.1941 124.955 66.0948 124.765C63.1335 123.681 64.4141 121.554 64.4141 121.554L65.7939 116.676L66.1748 115.332L70.4967 115.051C70.4967 115.051 70.2006 116 69.8708 116.997C69.5235 118.042 69.1393 119.142 69.0161 119.266C68.776 119.506 69.1361 121.072 69.3362 121.393C69.5363 121.714 70.7768 123.521 70.7768 123.521L73.2179 125.086C73.2179 125.086 76.4224 126.731 75.2619 129.26Z" fill="#FDC2CC"/>
<path opacity="0.1" d="M70.4997 115.049C70.4997 115.049 70.2036 115.998 69.8738 116.995C69.648 116.93 69.4475 116.797 69.2992 116.614L65.8177 116.695L65.7969 116.674L66.1778 115.33L70.4997 115.049Z" fill="black"/>
<path d="M84.5876 71.4132C84.5876 71.4132 84.5876 71.4357 84.5667 71.479C84.2338 72.5019 80.1361 85.1277 79.9056 85.8246C79.6654 86.5472 78.505 89.0361 78.505 89.0361C78.505 89.0361 77.9047 91.2038 77.9047 91.5651C77.9047 91.9264 77.0643 93.4117 77.1444 93.773C77.2244 94.1342 76.5841 95.0977 76.5841 95.74C76.5841 96.3823 76.5441 96.9443 76.5841 97.3858C76.6145 97.7247 76.7634 99.6162 76.1824 100.918C76.0556 101.222 75.8676 101.495 75.6301 101.721C75.5655 101.78 75.4964 101.834 75.4236 101.882C73.983 102.845 73.863 112.721 73.863 112.721L73.7957 112.827L73.2115 113.745L71.4219 116.539C71.4219 116.539 69.9813 117.141 69.301 116.298L65.8195 116.378C65.8195 116.378 64.9792 115.535 64.7791 115.455C64.579 115.375 64.8591 113.849 64.8591 113.849C64.8591 113.849 64.7391 113.247 64.8191 112.926C64.8991 112.605 65.3393 110.036 65.3393 110.036C65.3393 110.036 65.8595 109.594 65.8195 109.153C65.7795 108.711 66.2597 105.74 66.2597 105.74L66.7527 103.7L66.996 102.693L67.5002 100.605L70.9017 70.4578L75.2235 69.1331L83.5471 69.5345L84.4595 71.1884L84.5876 71.4132Z" fill="#5F5D7E"/>
<path opacity="0.1" d="M72.8607 86.226C72.8206 86.9888 72.6205 88.1529 72.7006 88.8354C72.7806 89.5178 73.0607 92.087 72.9407 92.5687C72.8206 93.0504 73.3809 93.6124 73.581 93.8533C73.781 94.0941 73.661 94.8167 73.701 95.3787C73.741 95.9407 74.2613 96.4626 74.2613 96.4626C74.2613 96.4626 73.661 97.7471 74.1012 97.9479C74.5414 98.1486 75.4618 99.9952 75.4618 99.9952C75.4618 99.9952 75.7707 100.385 76.1805 100.915C76.0238 101.302 75.7606 101.636 75.4217 101.879C73.9811 102.842 73.8611 112.717 73.8611 112.717L73.7939 112.823L72.9007 111.031C72.9007 111.031 67.5784 102.963 67.2182 102.842C67.1315 102.808 67.0544 102.753 66.9941 102.682L67.4984 100.594L70.8998 70.4466L75.2217 69.1218L83.5452 69.5233L79.1625 69.9648C79.1625 69.9648 77.2145 71.3666 77.2017 71.41L73.701 72.8953L73.0607 82.5297C73.0607 82.5297 72.9007 85.4633 72.8607 86.226Z" fill="black"/>
<path opacity="0.1" d="M84.4587 71.1804C84.3483 71.6268 72.8217 70.2892 72.8217 70.2892L72.9018 73.3802L72.2615 83.0146C72.2615 83.0146 72.1014 85.945 72.0614 86.7078C72.0214 87.4705 71.8213 88.6346 71.9014 89.3171C71.9814 89.9995 72.2615 92.5687 72.1415 93.0504C72.0214 93.5321 72.5816 94.0941 72.7817 94.335C72.9818 94.5758 72.8618 95.2984 72.9018 95.8604C72.9418 96.4224 73.462 96.9443 73.462 96.9443C73.462 96.9443 72.8618 98.2288 73.302 98.4296C73.7421 98.6303 74.6625 100.477 74.6625 100.477C74.6625 100.477 75.1027 101.034 75.6229 101.718C75.5583 101.777 75.4893 101.83 75.4165 101.879C73.9758 102.842 73.8558 112.717 73.8558 112.717L73.7886 112.823L73.2107 113.745L72.1014 111.521C72.1014 111.521 67.9957 105.296 66.752 103.7L66.9953 102.693L67.4995 100.605L70.9009 70.4578L75.2228 69.1331L83.5463 69.5345L84.4587 71.1804Z" fill="black"/>
<path opacity="0.1" d="M81.1094 109.101C80.9494 111.975 77.9305 113.382 76.5395 113.7C76.2706 113.085 75.9824 112.48 75.9824 112.48C75.9824 112.48 77.7032 108.224 79.9841 108.626C80.3918 108.691 80.7778 108.854 81.1094 109.101Z" fill="black"/>
<path d="M72.3815 86.2259C72.3415 86.9886 72.1414 88.1528 72.2214 88.8352C72.3014 89.5176 72.5816 92.0868 72.4615 92.5685C72.3415 93.0502 72.9017 93.6122 73.1018 93.8531C73.3019 94.094 73.1818 94.8165 73.2218 95.3785C73.2619 95.9406 73.7821 96.4624 73.7821 96.4624C73.7821 96.4624 73.1818 97.747 73.622 97.9477C74.0622 98.1484 74.9826 99.995 74.9826 99.995C74.9826 99.995 77.5837 103.287 77.7038 103.688C77.8238 104.09 78.8642 104.33 78.8642 104.33C78.8642 104.33 80.665 104.531 80.9451 108.385C81.2253 112.239 76.5032 113.724 75.7829 113.604C75.0626 113.483 73.582 113.363 73.582 113.363L72.4215 111.034C72.4215 111.034 67.0992 102.966 66.7391 102.845C66.3789 102.725 66.0588 101.962 65.9787 101.44C65.8987 100.918 65.5386 100.718 65.1384 100.477C64.7382 100.236 64.8182 98.9111 64.4981 98.59C64.178 98.2689 64.218 97.2653 64.0179 96.9843C63.8178 96.7033 64.178 95.9807 64.178 95.9807C64.178 95.9807 63.3376 95.0173 63.3376 94.8968C63.3376 94.7764 63.3776 93.813 63.3776 93.813C63.3776 93.813 62.9775 93.3714 63.0975 92.9298C63.2176 92.4882 62.7774 91.4445 62.7774 91.4445C62.7774 91.4445 62.4172 91.0029 62.4572 90.6818C62.4972 90.3606 62.2571 88.9556 62.2571 88.9556C62.2571 88.9556 61.977 88.2732 62.017 87.7915C62.0571 87.3098 61.6969 85.3829 61.6969 85.3829C61.6969 85.3829 61.3368 84.8209 61.3368 84.4596C61.3368 84.0983 61.3768 82.7334 61.3768 82.7334C61.3768 82.7334 60.7365 81.5693 61.0166 81.0073C61.2967 80.4453 60.9366 78.7593 60.6965 78.4381C60.4564 78.117 60.2563 75.3069 60.0162 75.0661C59.7761 74.8252 60.0162 73.8618 60.0162 73.8618L59.656 70.4496C59.656 70.4496 59.4159 69.2453 59.616 68.884C59.8161 68.5227 59.536 67.6396 59.4559 67.2382C59.3759 66.8367 59.656 65.5923 59.576 65.1507C59.5424 64.9645 59.6496 64.4538 59.7857 63.9223C59.9746 63.1901 60.2163 62.421 60.2163 62.421C60.2163 62.421 80.7851 60.4941 83.7463 62.5013C84.3866 62.9316 84.782 63.5851 85.0269 64.3495C85.9025 67.1498 84.5931 71.4147 84.5931 71.4147L73.2282 72.9L72.588 82.5343C72.588 82.5343 72.4215 85.4632 72.3815 86.2259Z" fill="#5F5D7E"/>
<path opacity="0.1" d="M69.0996 100.517C69.0996 100.517 72.6611 99.433 73.5015 100.156C74.3418 100.878 69.0996 100.517 69.0996 100.517Z" fill="black"/>
<path opacity="0.1" d="M70.3809 105.093C70.3809 105.093 71.4613 103.929 73.062 104.291C74.001 104.51 74.9861 104.411 75.8632 104.01L70.3809 105.093Z" fill="black"/>
<path opacity="0.1" d="M74.1426 106.418C74.1426 106.418 77.0638 106.017 77.1839 106.378C77.3039 106.739 74.1426 106.418 74.1426 106.418Z" fill="black"/>
<path opacity="0.1" d="M73.3026 108.787C73.3026 108.787 76.544 107.823 76.7041 108.225C76.8642 108.626 73.1426 108.746 73.1426 108.746L73.3026 108.787Z" fill="black"/>
<path opacity="0.1" d="M76.9435 87.1494C76.9435 87.1494 73.9022 89.839 74.3424 90.12C74.7826 90.401 76.9435 87.1494 76.9435 87.1494Z" fill="black"/>
<path opacity="0.1" d="M74.4629 93.813C74.4629 93.813 76.5838 93.813 76.1836 94.2947C75.7835 94.7764 74.4629 93.813 74.4629 93.813Z" fill="black"/>
<path opacity="0.1" d="M75.7433 95.6997C75.7433 95.6997 74.903 96.4223 75.1031 96.5829C75.3031 96.7434 75.7433 95.6997 75.7433 95.6997Z" fill="black"/>
<path opacity="0.1" d="M66.498 112.921C66.498 112.921 69.1392 113.804 69.1792 114.366C69.2192 114.928 66.498 112.921 66.498 112.921Z" fill="black"/>
<path d="M79.3051 28.9819L78.4647 33.9998C78.4647 33.9998 71.1816 37.8535 71.0616 37.8535C70.9415 37.8535 65.7393 36.9704 65.5392 36.9704C65.3391 36.9704 61.9377 26.6536 64.3387 26.0113C64.9886 25.8379 65.9314 25.4204 66.9606 24.9017C69.7362 23.5096 73.1425 21.3948 73.1425 21.3948C73.1425 21.3948 78.2246 20.8328 76.9841 24.3654C76.5039 25.7511 76.7504 26.7595 77.2354 27.4741C77.9973 28.582 79.3051 28.9819 79.3051 28.9819Z" fill="#FDC2CC"/>
<path opacity="0.1" d="M79.3051 28.9818L78.4647 33.9997C78.4647 33.9997 71.1816 37.8534 71.0616 37.8534C70.9415 37.8534 65.7393 36.9703 65.5392 36.9703C65.3391 36.9703 61.9377 26.6535 64.3387 26.0112C64.9886 25.8377 65.9314 25.4203 66.9606 24.9016C67.6153 24.945 68.0603 25.0076 68.0603 25.0076C68.0603 25.0076 69.661 31.1495 69.781 33.0362C69.9011 34.923 74.0629 35.1237 74.343 35.0434C74.6231 34.9631 75.7836 30.3466 75.7836 30.3466C75.7836 30.3466 75.6635 28.7409 76.0237 28.7409C76.3246 28.7409 77.0193 27.7775 77.2354 27.474C77.9973 28.5819 79.3051 28.9818 79.3051 28.9818Z" fill="black"/>
<path opacity="0.1" d="M85.0205 64.3496C84.4635 64.6225 83.1317 65.2456 82.7795 65.1524C82.3394 65.032 81.2589 65.032 81.2589 65.032C81.2589 65.032 80.6186 65.7546 79.9383 65.594C79.258 65.4334 76.5769 65.5539 76.5769 65.5539C76.5769 65.5539 71.7748 65.7546 70.8544 65.4334C69.934 65.1123 66.6526 64.8313 66.6526 64.8313C66.6526 64.8313 62.1707 64.3094 61.4104 63.9883C61.196 63.8944 60.9605 63.8598 60.7283 63.8881C60.4961 63.9163 60.2757 64.0063 60.0898 64.1488C60.0898 64.1488 59.9506 64.0573 59.7793 63.924C59.9682 63.1918 60.2099 62.4227 60.2099 62.4227C60.2099 62.4227 80.7787 60.4958 83.74 62.503C84.3802 62.9317 84.782 63.5852 85.0205 64.3496Z" fill="black"/>
<path d="M68.0586 25.3287C68.0586 25.3287 64.0169 24.7667 62.4162 25.8506C61.8474 26.2274 61.2042 26.4766 60.5306 26.5812C59.6274 26.7216 58.8137 27.208 58.2608 27.938C58.1584 28.0761 58.0591 28.1692 57.9743 28.1789C57.6141 28.219 55.6133 34.4412 55.6133 34.4412L60.4554 41.2254C60.4554 41.2254 60.3353 44.9989 61.0156 45.7215C61.6959 46.444 60.0552 54.7135 60.0552 54.7135C60.0552 54.7135 59.2548 57.5637 59.615 58.0053C59.9751 58.4468 59.615 59.0089 59.615 59.0089C59.615 59.0089 59.535 59.7314 59.735 59.7314C59.9351 59.7314 60.1752 60.6547 59.9751 60.6949C59.7751 60.735 58.8547 61.4977 59.1748 61.6583C59.4949 61.8189 59.1748 62.1802 59.1748 62.5415C59.1748 62.9027 60.0952 63.5049 60.0952 63.5049C60.281 63.3624 60.5015 63.2723 60.7337 63.2441C60.9659 63.2159 61.2014 63.2505 61.4158 63.3443C62.1761 63.6655 66.658 64.1873 66.658 64.1873C66.658 64.1873 69.9394 64.4683 70.8598 64.7895C71.7802 65.1106 76.5823 64.9099 76.5823 64.9099C76.5823 64.9099 79.2634 64.7895 79.9437 64.9501C80.624 65.1106 81.2643 64.388 81.2643 64.388C81.2643 64.388 82.3447 64.388 82.7849 64.5085C83.2251 64.6289 85.266 63.5852 85.266 63.5852C85.266 63.5852 84.7457 62.0597 84.9858 61.4977C85.226 60.9357 85.0659 59.8519 85.0659 59.8519C85.0659 59.8519 84.1055 59.2899 84.0655 59.049C84.0254 58.8081 83.6253 58.487 83.7453 58.1658C83.8654 57.8447 84.5457 58.0053 84.4656 57.2827C84.3856 56.5601 83.5452 55.7974 83.6253 55.3558C83.7053 54.9142 84.0254 54.1114 83.6253 53.6297C83.2251 53.1479 83.065 52.3852 83.025 51.7831C82.985 51.1809 83.6253 45.7215 83.6253 45.7215L82.1446 34.7222L86.6666 32.4742C86.6666 32.4742 86.4665 30.9086 86.1864 30.0656C85.9062 29.2226 85.5061 27.7373 85.5061 27.7373C85.5061 27.7373 84.5857 25.9309 84.3856 25.8506C84.1855 25.7703 82.0646 24.3653 81.5844 24.566C81.1042 24.7667 77.3026 27.6972 77.3026 27.6972C77.3026 27.6972 76.3822 29.062 76.022 29.062C75.6619 29.062 75.7819 30.6678 75.7819 30.6678C75.7819 30.6678 74.6214 35.2842 74.3413 35.3645C74.0612 35.4448 69.8994 35.2441 69.7793 33.3574C69.6593 31.4706 68.0586 25.3287 68.0586 25.3287Z" fill="#D39999"/>
<path d="M61.7842 49.063C61.229 49.1855 60.6637 49.2553 60.0955 49.2717C59.2743 49.2942 58.5524 49.1898 58.3747 48.8928C57.8945 48.0899 57.8945 46.5645 57.8945 46.5645C57.8945 46.5645 60.0651 47.067 61.5633 47.6162L61.8114 47.7093C62.3925 47.9357 62.8342 48.167 62.9319 48.3693C63.0711 48.6407 62.5349 48.8944 61.7842 49.063Z" fill="#FDC2CC"/>
<path opacity="0.1" d="M77.5028 26.7337C81.5473 26.7337 84.826 23.4447 84.826 19.3875C84.826 15.3303 81.5473 12.0413 77.5028 12.0413C73.4584 12.0413 70.1797 15.3303 70.1797 19.3875C70.1797 23.4447 73.4584 26.7337 77.5028 26.7337Z" fill="black"/>
<path d="M77.5028 26.4126C81.5473 26.4126 84.826 23.1236 84.826 19.0664C84.826 15.0092 81.5473 11.7202 77.5028 11.7202C73.4584 11.7202 70.1797 15.0092 70.1797 19.0664C70.1797 23.1236 73.4584 26.4126 77.5028 26.4126Z" fill="#FDC2CC"/>
<path opacity="0.1" d="M61.2969 58.728C61.2969 58.728 63.3778 58.728 64.1781 58.9287C64.9785 59.1295 66.6592 59.1696 66.6592 59.1696C66.6592 59.1696 62.0172 59.009 61.2969 58.728Z" fill="black"/>
<path opacity="0.1" d="M61.377 60.0125C61.377 60.0125 64.0581 60.2132 64.0981 60.6146C64.1381 61.016 61.377 60.0125 61.377 60.0125Z" fill="black"/>
<path opacity="0.1" d="M81.7852 55.075C81.7852 55.075 83.4259 55.6771 83.3858 55.8778C83.3458 56.0785 81.9452 55.5567 81.7852 55.075Z" fill="black"/>
<path d="M56.6543 33.7188L55.6139 34.4413C55.6139 34.4413 55.1737 37.0105 55.1737 37.6126C55.1737 38.2148 54.4534 42.5503 54.4534 42.5503C54.4534 42.5503 54.2133 43.3531 54.2933 43.6743C54.3733 43.9954 53.9732 45.6413 53.9732 45.6413C53.9732 45.6413 52.5326 48.9732 52.6126 49.1739C52.6926 49.3746 59.4555 50.0169 59.4555 50.0169L60.4159 41.0248L56.6543 33.7188Z" fill="#D39999"/>
<path d="M53.6139 48.0898L52.6135 49.1737C52.6135 49.1737 52.5735 52.7063 53.5739 53.0676C54.5743 53.4289 55.2146 53.2683 55.5348 53.5493C55.8549 53.8303 57.5756 54.3522 57.5756 54.3522C57.5756 54.3522 59.4564 54.6332 60.0167 54.5529C60.5769 54.4726 56.7353 51.3816 59.2563 48.7723L53.6139 48.0898Z" fill="#D39999"/>
<path d="M85.2666 30.9087L86.6672 32.4743C86.6672 32.4743 87.2675 36.2076 87.1074 36.7295C86.9474 37.2513 87.9478 46.3237 87.9478 46.3237C87.9478 46.3237 88.9082 50.2577 86.7473 50.7796C86.5554 50.9488 86.3811 51.1371 86.2271 51.3416C86.147 51.5022 84.4263 51.2613 84.4263 51.2613L81.7852 33.8793L85.2666 30.9087Z" fill="#D39999"/>
<path opacity="0.1" d="M66.2189 45.28C66.2189 45.28 71.4611 42.1489 72.4215 41.9883C73.3819 41.8277 79.3445 38.9775 79.3445 38.9775C79.3445 38.9775 82.3057 40.503 82.5859 41.6671C82.866 42.8313 81.3453 47.4879 81.3453 47.4879C81.3453 47.4879 76.4632 50.9001 76.1831 51.6226C75.903 52.3452 71.7012 54.4728 71.7012 54.8341C71.7012 55.1954 65.0584 59.1294 62.1371 55.6771C59.2159 52.2248 59.2559 51.2212 59.2559 51.2212L66.6591 49.4951L67.3794 46.2836L66.2189 45.28Z" fill="black"/>
<path d="M66.2189 44.9587C66.2189 44.9587 71.4611 41.8276 72.4215 41.667C73.3819 41.5064 79.3445 38.6562 79.3445 38.6562C79.3445 38.6562 82.3057 40.1817 82.5859 41.3458C82.866 42.51 81.3453 47.1666 81.3453 47.1666C81.3453 47.1666 76.4632 50.5788 76.1831 51.3014C75.903 52.0239 71.7012 54.1515 71.7012 54.5128C71.7012 54.8741 65.0584 58.8081 62.1371 55.3558C59.2159 51.9035 59.2559 50.8999 59.2559 50.8999L66.6591 49.1738L67.3794 45.9623L66.2189 44.9587Z" fill="#C4C8E2"/>
<path d="M58.1349 46.3639L57.8948 48.3711L55.9915 48.2314L54.1332 48.0933C54.1332 48.0933 53.0527 48.0933 52.3724 46.4876C51.6921 44.8818 53.8931 44.641 54.0131 44.8818C54.1043 45.0633 56.4141 45.8196 57.5346 46.1777L58.1349 46.3639Z" fill="#FDC2CC"/>
<path opacity="0.1" d="M58.1355 46.3638L57.8954 48.3709L55.9922 48.2312C56.3027 47.7688 56.9526 46.9225 57.5368 46.1775L58.1355 46.3638Z" fill="black"/>
<path opacity="0.1" d="M57.8945 46.5645C57.8945 46.5645 60.0651 47.067 61.5633 47.6162C61.4641 47.7768 60.8014 48.8173 60.0955 49.2717C59.2743 49.2942 58.5524 49.1898 58.3747 48.8928C57.8945 48.0899 57.8945 46.5645 57.8945 46.5645Z" fill="black"/>
<path opacity="0.1" d="M61.7842 49.063L61.749 48.7852C61.749 48.7852 61.733 48.7258 61.7186 48.6358C61.6898 48.4528 61.669 48.1445 61.8034 47.9566C61.8819 47.8458 61.8643 47.7671 61.813 47.7109C62.3941 47.9373 62.8359 48.1686 62.9335 48.3709C63.0712 48.6407 62.5349 48.8944 61.7842 49.063Z" fill="black"/>
<path d="M68.5791 47.7495C68.5791 47.7495 66.4054 49.9317 66.2709 50.3989C66.1365 50.8662 62.0291 50.8807 62.0291 50.8807L61.749 48.6326C61.749 48.6326 61.733 48.5732 61.7186 48.4833C61.6897 48.3003 61.6689 47.992 61.8034 47.8041C62.0035 47.5231 61.5761 47.4428 61.5761 47.4428C61.5761 47.4428 60.4684 49.2749 59.5352 49.3295C59.5352 49.3295 58.2419 50.2657 58.2547 50.4535C58.2547 50.4535 57.6272 51.0284 57.6144 51.7237C57.6016 52.4189 56.8013 52.7016 56.2138 52.5008C55.6264 52.3001 54.1729 51.8714 53.7055 51.9388C53.2381 52.0063 51.7591 52.4462 51.8119 51.0685C51.8119 51.0685 53.7327 49.6234 54.213 49.6635C54.6932 49.7037 55.8136 49.1417 55.9737 48.7001C56.1338 48.2585 58.8549 44.8865 58.8549 44.8865C58.8549 44.8865 60.5757 43.2534 61.2688 43.0929C61.2688 43.0929 62.6566 42.009 64.7503 43.6549C64.7503 43.6549 67.6459 45.4469 67.7387 45.6877C67.8124 45.8772 68.6527 46.6865 68.7232 47.2935C68.7394 47.3755 68.7347 47.4603 68.7095 47.54C68.6843 47.6198 68.6395 47.6918 68.5791 47.7495Z" fill="#FDC2CC"/>
<path opacity="0.1" d="M61.7891 44.5574C61.7891 44.5574 62.002 45.789 61.8963 46.2305C61.7907 46.6721 61.5762 47.4348 61.5762 47.4348C61.5762 47.4348 62.8695 45.4004 61.7891 44.5574Z" fill="black"/>
<path opacity="0.1" d="M61.8828 47.5552C61.8828 47.5552 62.5503 46.8181 62.6976 47.006C62.8448 47.1939 61.8828 47.5552 61.8828 47.5552Z" fill="black"/>
<path d="M89.2097 40.0421C89.2097 41.0637 88.8779 42.0574 88.2644 42.8728C87.6509 43.6881 86.7892 44.2807 85.8099 44.5607C85.4003 44.6788 84.9763 44.7393 84.5501 44.7405H84.5261C83.9113 44.7403 83.3025 44.6186 82.7345 44.3824C82.1666 44.1461 81.6505 43.8 81.2159 43.3637C80.7813 42.9274 80.4366 42.4095 80.2015 41.8396C79.9664 41.2697 79.8455 40.6589 79.8457 40.0421C79.845 39.7664 79.8696 39.4912 79.9194 39.22C80.1019 38.1929 80.6207 37.2563 81.3936 36.5583C82.1665 35.8603 83.1495 35.4408 84.1868 35.3663C84.2988 35.3566 84.4125 35.3518 84.5261 35.3518C85.767 35.3514 86.9574 35.8451 87.8356 36.7246C88.7138 37.6041 89.208 38.7973 89.2097 40.0421Z" fill="#F8BDC5"/>
<path d="M91.679 39.4657C91.9077 39.7401 92.0414 40.0816 92.06 40.4387C91.5926 40.4821 91.0996 40.5383 90.7282 40.8321C90.4081 41.0826 90.248 41.4744 90.088 41.8389C89.9418 42.1826 89.7966 42.5262 89.6526 42.8698C89.4253 43.4077 89.1916 43.9569 88.7962 44.3856C88.6285 44.5402 88.4792 44.7137 88.3512 44.9027C88.2408 45.1034 88.1912 45.3571 88.0119 45.492C87.9216 45.5473 87.8192 45.5793 87.7136 45.5852C87.608 45.5911 87.5026 45.5706 87.4068 45.5257C87.2099 45.4518 87.0339 45.3282 86.837 45.2495C86.7105 45.2006 86.5789 45.1662 86.4448 45.1467C85.859 45.06 85.2139 45.1869 84.7161 44.8705C84.6584 44.8321 84.6048 44.788 84.556 44.7389C84.3615 44.5476 84.2208 44.3084 84.1478 44.0452C84.1112 43.9385 84.0981 43.8251 84.1094 43.7128C84.1323 43.6101 84.1775 43.5137 84.2416 43.4305C84.3058 43.3472 84.3874 43.2792 84.4808 43.2311C84.508 43.215 84.5352 43.199 84.564 43.1845C85.0442 42.9324 85.7117 42.873 85.963 42.3817C86.2031 41.916 85.9054 41.3492 85.5404 40.9734C85.3675 40.7968 85.1627 40.5961 85.1867 40.3488C85.2091 40.1304 85.4028 39.9779 85.5644 39.8318C86.0219 39.4167 86.3302 38.8619 86.4416 38.2533C86.4841 38.0653 86.4808 37.8698 86.432 37.6833C86.3822 37.5496 86.3138 37.4236 86.2287 37.3092L85.7101 36.5384C85.55 36.2663 85.3313 36.0337 85.0698 35.8576C84.8537 35.7275 84.6056 35.6826 84.3879 35.5541C84.3051 35.5086 84.2355 35.4422 84.1862 35.3614C84.1588 35.3162 84.1496 35.2622 84.1606 35.2105C84.1878 35.082 84.3207 35.0194 84.4536 34.9825C84.7973 34.8824 85.1568 34.8481 85.5132 34.8813C85.6261 34.9054 85.7428 34.9054 85.8557 34.8813C85.9117 34.8663 85.9605 34.8316 85.9931 34.7836C86.0257 34.7355 86.04 34.6773 86.0334 34.6196C86.4272 34.5168 86.8002 34.8251 87.0883 35.1141C87.3764 35.4032 87.7286 35.7195 88.1351 35.6376C88.2808 35.6087 88.4152 35.5252 88.5625 35.5091C88.7098 35.4931 88.8923 35.5894 88.8826 35.7388C88.873 35.8881 88.6874 35.9844 88.7034 36.129C88.713 36.179 88.7356 36.2255 88.769 36.2638C88.9537 36.519 89.173 36.747 89.4205 36.9415C89.4205 36.6572 89.4205 36.3714 89.4205 36.0872C89.7406 36.1675 89.8575 36.5786 89.8206 36.9109C89.7838 37.2433 89.6606 37.5789 89.7374 37.9033C89.7471 37.9588 89.7694 38.0114 89.8028 38.0568C89.8361 38.1022 89.8795 38.1393 89.9295 38.165C90.0118 38.1874 90.0985 38.1874 90.1808 38.165C90.9155 38.0606 91.7735 38.2565 92.1384 38.9037L91.4982 38.6708L92.2425 39.0787C92.3444 39.1257 92.435 39.1942 92.5082 39.2794C92.5436 39.3227 92.5646 39.3761 92.568 39.432C92.5715 39.488 92.5573 39.5435 92.5274 39.5909C92.4043 39.5078 92.2642 39.4535 92.1174 39.4318C91.9706 39.4101 91.8208 39.4217 91.679 39.4657Z" fill="#585268"/>
<g opacity="0.1">
<path d="M90.269 38.1279C90.3513 38.1502 90.438 38.1502 90.5203 38.1279C90.5924 38.1182 90.6644 38.1118 90.738 38.107C90.5778 38.0968 90.4171 38.1016 90.2578 38.1214L90.269 38.1279Z" fill="black"/>
<path d="M91.8301 38.6387L92.1054 38.7912L92.0542 38.719L91.8301 38.6387Z" fill="black"/>
<path d="M89.7654 36.9043C89.7654 36.718 89.7654 36.5302 89.7654 36.3423C89.7378 36.2724 89.6945 36.2097 89.6391 36.159C89.5836 36.1084 89.5173 36.0711 89.4453 36.05V36.6153C89.5459 36.7182 89.6528 36.8148 89.7654 36.9043Z" fill="black"/>
<path d="M92.1504 39.4094C92.2917 39.4338 92.426 39.4886 92.5442 39.57C92.5723 39.5327 92.5865 39.4867 92.5842 39.4399C92.4435 39.3986 92.2955 39.3881 92.1504 39.4094Z" fill="black"/>
<path d="M87.7602 45.5014C87.5633 45.4275 87.3872 45.3039 87.1903 45.2252C87.0638 45.1763 86.9323 45.1419 86.7981 45.1224C86.2123 45.0357 85.5672 45.1626 85.0694 44.8462C85.0118 44.8078 84.9581 44.7637 84.9093 44.7146C84.7149 44.5233 84.5741 44.2841 84.5012 44.0209C84.4645 43.9142 84.4514 43.8008 84.4627 43.6885C84.4857 43.5858 84.5308 43.4894 84.595 43.4062C84.6591 43.3229 84.7408 43.2549 84.8341 43.2068C84.8613 43.1907 84.8885 43.1747 84.9173 43.1602C85.4055 42.9081 86.065 42.8487 86.3163 42.3574C86.5564 41.8917 86.2587 41.3249 85.8938 40.9491C85.7209 40.7725 85.516 40.5718 85.54 40.3245C85.5624 40.1061 85.7561 39.9536 85.9178 39.8075C86.3752 39.3924 86.6835 38.8376 86.7949 38.229C86.8374 38.041 86.8342 37.8455 86.7853 37.659C86.7355 37.5253 86.6671 37.3993 86.5821 37.2849L86.0634 36.5141C85.9034 36.242 85.6846 36.0094 85.4232 35.8333C85.2071 35.7032 84.959 35.6583 84.7413 35.5298C84.6584 35.4843 84.5889 35.4179 84.5396 35.3371C84.5121 35.2919 84.503 35.2379 84.514 35.1862C84.5412 35.0577 84.682 34.9951 84.8069 34.9582C85.0158 34.8994 85.2305 34.8639 85.4472 34.8522C85.1234 34.833 84.7987 34.8689 84.4867 34.9582C84.3619 34.9951 84.221 35.0577 84.1938 35.1862C84.1828 35.2379 84.192 35.2919 84.2194 35.3371C84.2688 35.4179 84.3383 35.4843 84.4211 35.5298C84.6388 35.6583 84.8869 35.7032 85.103 35.8333C85.3645 36.0094 85.5832 36.242 85.7433 36.5141L86.2619 37.2849C86.347 37.3993 86.4154 37.5253 86.4652 37.659C86.514 37.8455 86.5173 38.041 86.4748 38.229C86.3634 38.8376 86.0551 39.3924 85.5976 39.8075C85.4376 39.9536 85.2423 40.1061 85.2199 40.3245C85.1959 40.5718 85.4007 40.7725 85.5736 40.9491C85.9386 41.3249 86.2363 41.8917 85.9962 42.3574C85.7449 42.8471 85.0854 42.9065 84.5972 43.1602C84.5684 43.1747 84.5412 43.1907 84.514 43.2068C84.4206 43.2549 84.339 43.3229 84.2748 43.4062C84.2107 43.4894 84.1655 43.5858 84.1426 43.6885C84.1313 43.8008 84.1444 43.9142 84.181 44.0209C84.254 44.2841 84.3947 44.5233 84.5892 44.7146C84.638 44.7637 84.6916 44.8078 84.7493 44.8462C85.2471 45.1674 85.8922 45.0357 86.478 45.1224C86.6121 45.1419 86.7437 45.1763 86.8702 45.2252C87.0671 45.3039 87.2431 45.4275 87.44 45.5014C87.583 45.5602 87.7406 45.5737 87.8914 45.5399C87.8468 45.5303 87.8029 45.5174 87.7602 45.5014Z" fill="black"/>
<path d="M88.4804 35.6006C88.5789 35.5753 88.6757 35.5437 88.7702 35.5058C88.7136 35.4781 88.6504 35.4664 88.5877 35.4721C88.4519 35.5045 88.3182 35.5452 88.1875 35.5942C88.2835 35.618 88.3835 35.6202 88.4804 35.6006Z" fill="black"/>
<path d="M85.8589 34.8523C85.9723 34.8737 86.0891 34.871 86.2014 34.8442C86.2571 34.8293 86.3056 34.7948 86.3382 34.7471C86.3707 34.6994 86.3853 34.6416 86.3791 34.5841C86.2741 34.5569 86.1639 34.5569 86.0589 34.5841C86.0655 34.6419 86.0512 34.7001 86.0186 34.7481C85.986 34.7961 85.9372 34.8308 85.8813 34.8459C85.8703 34.8493 85.859 34.852 85.8477 34.8539L85.8589 34.8523Z" fill="black"/>
</g>
<path d="M80.3046 37.4729C79.7076 37.9209 78.7552 38.1152 77.8796 38.1794C77.195 38.2338 76.5073 38.2338 75.8227 38.1794L74.2812 37.5981C74.2812 37.5981 74.4061 37.3492 74.6174 37.0201C75.0384 36.3649 75.8035 35.3903 76.6022 35.4304C77.8028 35.4898 79.0641 35.5492 79.1841 35.5492C79.3042 35.5492 81.6444 36.4693 80.3046 37.4729Z" fill="#FDC2CC"/>
<path d="M76.405 5.331C75.2653 5.31013 74.0888 5.29728 73.0436 5.73725C70.9419 6.60916 69.951 8.93907 68.6801 10.8178C67.6261 12.3746 66.2806 13.7113 64.7184 14.7534C63.9821 15.2351 63.1273 15.765 62.9497 16.6321C62.7608 17.549 63.4139 18.3984 63.75 19.2671C64.4623 21.1153 63.75 23.1626 63.329 25.0991C63.1321 26.0292 63.0053 26.9728 62.9497 27.922C62.9039 28.3615 62.9326 28.8056 63.0345 29.2355C63.3546 30.3691 64.5647 31.188 64.5743 32.3666C64.5743 33.1695 64.0109 33.9274 64.1758 34.7078C64.3887 35.705 65.5956 36.0646 66.596 36.2365C66.8355 36.3025 67.0893 36.2946 67.3243 36.214C67.4844 36.1369 67.6157 35.9892 67.7789 35.9073C68.3344 35.6311 68.9506 36.214 69.5717 36.2027C70.3512 36.1883 70.7898 35.265 70.809 34.483C70.8282 33.701 70.6201 32.8773 70.9003 32.1547C71.2732 31.1913 72.3409 30.7336 73.2421 30.2278C74.2393 29.6674 75.1885 28.8581 75.483 27.7518C75.6671 27.0677 75.5839 26.3436 75.5102 25.6403C75.3982 24.5612 75.3101 23.4773 75.2493 22.3951C75.0893 19.6332 77.3766 17.3322 80.125 17.5474H80.1762C80.9766 17.6132 81.921 17.6903 82.486 17.1058C82.7101 16.873 82.8526 16.5518 83.1263 16.3913C83.6609 16.0862 84.3956 16.5213 84.9335 16.221C85.3544 15.985 85.4441 15.4182 85.3785 14.9365C85.3128 14.4547 85.1447 13.973 85.2344 13.5009C85.3624 12.8314 85.9691 12.3529 86.1948 11.709C86.4541 10.9751 86.174 10.1546 85.7706 9.48984C84.4789 7.35261 81.8489 5.67944 79.3839 5.45464C78.3931 5.3583 77.399 5.34706 76.405 5.331Z" fill="#865A61"/>
<path opacity="0.1" d="M74.6174 37.0151C75.5682 37.211 76.7255 37.6462 77.8796 38.1777C77.195 38.2321 76.5073 38.2321 75.8227 38.1777L74.2812 37.5964C74.2812 37.5964 74.4061 37.3443 74.6174 37.0151Z" fill="black"/>
<path opacity="0.1" d="M86.4469 45.1467C85.8611 45.06 85.216 45.1869 84.7182 44.8705C84.6606 44.8321 84.607 44.788 84.5581 44.7389H84.5341C83.9187 44.7397 83.3092 44.6188 82.7404 44.3832C82.1716 44.1475 81.6548 43.8017 81.2193 43.3655C80.7839 42.9293 80.4384 42.4112 80.2027 41.841C79.967 41.2707 79.8457 40.6594 79.8457 40.0421C79.845 39.7664 79.8696 39.4912 79.9194 39.22C81.5601 40.1401 82.8902 41.0858 83.1463 41.5483C83.5249 42.1569 83.9705 42.7209 84.4749 43.2295C84.9215 43.7112 85.4001 44.1736 85.8099 44.5606C86.0532 44.787 86.2725 44.9877 86.4469 45.1467Z" fill="black"/>
<path d="M86.7073 45.6814C86.7073 45.6814 83.7861 43.1523 82.9857 41.7072C82.1854 40.262 70.9406 34.1201 72.3812 38.7767C73.8218 43.4333 78.784 43.8749 78.784 43.8749C78.784 43.8749 80.3846 45.6814 80.5447 46.5645C80.7048 47.4477 81.265 48.7322 81.265 48.7322L83.9462 49.9365L85.1867 49.6555C85.1867 49.6555 88.1079 48.0498 86.7073 45.6814Z" fill="#FDC2CC"/>
<path opacity="0.1" d="M81.1055 48.5716C81.1055 48.5716 85.8275 51.2612 86.3077 44.9587L87.5082 45.3602L86.3077 49.6154L84.2668 51.1007C84.2668 51.1007 81.4256 49.7759 81.1055 48.5716Z" fill="black"/>
<path d="M81.2656 48.7323C81.2656 48.7323 85.9876 51.4219 86.4679 45.1194L87.6684 45.5208L86.4679 49.776L84.427 51.2613C84.427 51.2613 81.5858 49.9366 81.2656 48.7323Z" fill="#D39999"/>
<path d="M85.4341 16.7944C85.4885 16.2308 85.7174 15.6993 85.8374 15.1453C85.9558 14.6094 85.972 14.0559 85.8854 13.5139C85.8369 13.1224 85.6917 12.7493 85.4629 12.4284C85.3028 12.2277 84.8226 11.7861 84.5425 11.9852C84.3824 12.0992 84.3392 12.7592 84.2752 12.9487C84.0505 13.5851 83.7495 14.1917 83.3788 14.7551C84.1704 15.8509 84.6448 17.1447 84.7497 18.4938C84.8545 19.843 84.5858 21.195 83.9731 22.4006C83.3605 23.6062 82.4277 24.6186 81.2777 25.326C80.1277 26.0334 78.8052 26.4084 77.4562 26.4095C77.2818 26.4095 77.1089 26.4014 76.9376 26.3886C76.7776 26.668 76.6319 26.9506 76.4846 27.2332C76.3107 27.5202 76.1933 27.838 76.1389 28.1693C76.1255 28.4861 76.1739 28.8025 76.2813 29.1007C76.5794 30.0816 76.9909 31.0242 77.5075 31.9091C77.6876 32.1838 77.8353 32.4785 77.9477 32.7874C78.0389 33.0845 78.0549 33.4024 78.1734 33.6882C78.4391 34.3305 79.1338 34.6517 79.774 34.9198C80.1566 35.0804 80.5568 35.241 80.9698 35.2073C81.0084 35.2102 81.0473 35.2049 81.0839 35.1919C81.1204 35.1789 81.1539 35.1583 81.1821 35.1316C81.2103 35.1048 81.2326 35.0724 81.2475 35.0365C81.2625 35.0006 81.2699 34.962 81.2691 34.923C81.2913 34.7548 81.2739 34.5836 81.2183 34.4233C81.1627 34.2629 81.0705 34.1179 80.9489 33.9998C81.492 34.1705 82.0619 34.2386 82.6297 34.2005C82.6805 34.2111 82.7333 34.2069 82.7817 34.1882C82.8302 34.1696 82.8723 34.1374 82.903 34.0954C82.9338 34.0534 82.9518 34.0034 82.955 33.9515C82.9581 33.8995 82.9463 33.8477 82.921 33.8022C82.7736 33.1966 82.5487 32.6126 82.2519 32.0648C81.9606 31.5253 81.5892 30.8975 81.8549 30.3467C82.007 30.0256 82.3271 29.8457 82.6185 29.6546C83.6029 29.0124 84.4752 27.9654 84.3984 26.7884C84.3568 26.1461 84.0335 25.5343 84.0142 24.8872C83.9646 23.3088 85.6582 22.18 85.9143 20.6208C86.1175 19.3459 85.3108 18.0838 85.4341 16.7944Z" fill="#865A61"/>
<g opacity="0.1">
<path d="M64.4873 31.7244C64.4777 30.5458 63.2691 29.7269 62.9474 28.5932C62.8979 28.4144 62.8673 28.2309 62.8562 28.0457C62.8205 28.4446 62.8513 28.8467 62.9474 29.2355C63.2419 30.2712 64.2728 31.0452 64.4569 32.0712C64.4774 31.9568 64.4876 31.8407 64.4873 31.7244Z" fill="black"/>
<path d="M69.4858 35.5604C68.8648 35.5716 68.2485 34.9887 67.6931 35.2649C67.533 35.3468 67.4049 35.4945 67.2385 35.5716C67.0034 35.6523 66.7497 35.6601 66.5101 35.5941C65.5129 35.4223 64.3092 35.0642 64.0931 34.0751C64.0523 34.284 64.0523 34.4988 64.0931 34.7077C64.306 35.7049 65.5129 36.0646 66.5134 36.2364C66.7529 36.3024 67.0066 36.2946 67.2417 36.2139C67.4017 36.1368 67.533 35.9891 67.6963 35.9072C68.2517 35.631 68.868 36.2139 69.489 36.2027C70.2686 36.1882 70.7071 35.2649 70.7264 34.4829C70.7264 34.3224 70.7264 34.1618 70.7152 34.0012C70.6335 34.7431 70.2109 35.5459 69.4858 35.5604Z" fill="black"/>
<path d="M75.4 27.1079C75.1022 28.2142 74.153 29.0235 73.159 29.5839C72.2578 30.0913 71.1902 30.5473 70.8172 31.5108C70.6799 31.9269 70.633 32.3676 70.6796 32.8034C70.6934 32.581 70.7398 32.3619 70.8172 32.1531C71.1902 31.1896 72.2578 30.732 73.159 30.2262C74.1562 29.6658 75.1054 28.8565 75.4 27.7502C75.5016 27.3301 75.5356 26.8964 75.5008 26.4656C75.4883 26.6825 75.4546 26.8976 75.4 27.1079Z" fill="black"/>
<path d="M84.1633 15.6832C83.7775 15.6543 83.3757 15.5643 83.0428 15.7506C82.7627 15.9112 82.6202 16.2323 82.4025 16.4652C81.8375 17.0496 80.9011 16.9726 80.0927 16.9067H80.0415C77.2931 16.6916 75.009 18.9942 75.1658 21.7544C75.1658 21.7753 75.1658 21.7978 75.1658 21.8187C75.204 21.2166 75.3606 20.628 75.6266 20.0869C75.8927 19.5458 76.2628 19.0629 76.7158 18.666C77.1687 18.2691 77.6955 17.966 78.2657 17.7743C78.836 17.5826 79.4384 17.5061 80.0383 17.549H80.0895C80.8899 17.6149 81.8343 17.6919 82.3993 17.1074C82.6234 16.8746 82.7659 16.5535 83.0396 16.3929C83.3597 16.2066 83.7679 16.2966 84.1601 16.3255C84.468 17.0931 84.6439 17.9075 84.6803 18.7341C84.6803 18.6297 84.6883 18.5253 84.6883 18.4129C84.6884 17.4777 84.5102 16.5512 84.1633 15.6832Z" fill="black"/>
<path d="M63.9625 20.6833C64.0105 19.9851 63.9107 19.2847 63.6696 18.6279C63.4167 17.9712 62.9829 17.3273 62.8692 16.6577C62.6948 17.565 63.3399 18.4047 63.6696 19.2702C63.8407 19.7229 63.9395 20.1997 63.9625 20.6833Z" fill="black"/>
<path d="M85.8473 13.8879C85.8327 14.0949 85.8027 14.3005 85.7576 14.5029C85.6376 15.0569 85.4087 15.5884 85.3543 16.152C85.335 16.3528 85.335 16.555 85.3543 16.7558C85.4151 16.2066 85.6344 15.6864 85.7528 15.15C85.8455 14.7362 85.8773 14.311 85.8473 13.8879Z" fill="black"/>
<path d="M85.8288 19.9817C85.5727 21.5409 83.8792 22.6697 83.9288 24.2482C83.9314 24.3336 83.9388 24.4189 83.9512 24.5035C84.1529 23.1209 85.5951 22.0531 85.8288 20.624C85.8685 20.3652 85.8739 20.1023 85.8448 19.842C85.84 19.8886 85.84 19.9352 85.8288 19.9817Z" fill="black"/>
<path d="M86.1192 11.0634C85.968 11.4075 85.7745 11.7311 85.543 12.0269C85.6094 12.1562 85.663 12.2917 85.703 12.4315C85.8719 12.2062 86.0102 11.9594 86.1144 11.6977C86.2147 11.398 86.24 11.0782 86.188 10.7664C86.174 10.8672 86.151 10.9667 86.1192 11.0634Z" fill="black"/>
<path d="M84.292 26.6165C84.1495 27.5992 83.3828 28.455 82.5312 29.0154C82.2399 29.2065 81.9197 29.3928 81.7677 29.7075C81.6624 29.9443 81.647 30.2116 81.7245 30.459C81.7358 30.4214 81.7503 30.3849 81.7677 30.3498C81.9197 30.0286 82.2399 29.8488 82.5312 29.6577C83.5156 29.0154 84.388 27.9685 84.3112 26.7915C84.308 26.7321 84.3 26.6743 84.292 26.6165Z" fill="black"/>
<path d="M81.0923 34.4974C81.0329 34.5429 80.9604 34.5677 80.8858 34.568C80.4728 34.6034 80.0726 34.4412 79.6901 34.2806C79.0498 34.0141 78.3519 33.6897 78.0894 33.049C77.9709 32.7632 77.9549 32.4453 77.8637 32.1482C77.7513 31.8393 77.6036 31.5446 77.4235 31.2699C76.9069 30.385 76.4954 29.4424 76.1974 28.4615C76.1509 28.3132 76.1124 28.1626 76.0821 28.0103C76.0709 28.0632 76.0613 28.1178 76.0549 28.1708C76.0416 28.4876 76.0899 28.804 76.1974 29.1021C76.4954 30.0831 76.9069 31.0256 77.4235 31.9106C77.6036 32.1853 77.7513 32.48 77.8637 32.7889C77.9549 33.086 77.9709 33.4039 78.0894 33.6897C78.3551 34.332 79.0498 34.6532 79.6901 34.9213C80.0726 35.0819 80.4728 35.2425 80.8858 35.2087C80.9245 35.2116 80.9633 35.2064 80.9999 35.1934C81.0365 35.1804 81.0699 35.1598 81.0981 35.133C81.1263 35.1063 81.1486 35.0739 81.1636 35.038C81.1785 35.0021 81.1859 34.9634 81.1851 34.9245C81.2062 34.7624 81.1897 34.5975 81.1371 34.4428C81.1256 34.4636 81.1104 34.4821 81.0923 34.4974Z" fill="black"/>
<path d="M82.7537 33.5115C82.6881 33.5429 82.6166 33.5599 82.544 33.5613C81.9762 33.5994 81.4063 33.5313 80.8633 33.3606C81.0617 33.5531 81.1791 33.8146 81.1914 34.0912C81.6342 34.1959 82.0901 34.2338 82.544 34.2036C82.5948 34.2142 82.6476 34.21 82.6961 34.1914C82.7446 34.1727 82.7867 34.1405 82.8174 34.0985C82.8481 34.0565 82.8661 34.0066 82.8693 33.9546C82.8725 33.9026 82.8607 33.8508 82.8353 33.8054C82.8113 33.7058 82.7825 33.6079 82.7537 33.5115Z" fill="black"/>
</g>
<path opacity="0.1" d="M60.4162 37.0505C60.4162 37.0505 60.2562 40.3423 60.7364 40.5831C61.2166 40.824 60.4162 37.0505 60.4162 37.0505Z" fill="black"/>
<path opacity="0.1" d="M69.5 45.7214C69.6601 45.7214 70.3003 46.0426 70.3804 46.4039C70.4604 46.7652 69.5 45.7214 69.5 45.7214Z" fill="black"/>
<path opacity="0.1" d="M69.0996 46.2434C69.2597 46.2434 69.9 46.5646 69.98 46.9258C70.06 47.2871 69.0996 46.2434 69.0996 46.2434Z" fill="black"/>
<path opacity="0.1" d="M70.5801 47.6885C70.7401 47.6885 71.3804 48.0096 71.4605 48.3709C71.5405 48.7322 70.5801 47.6885 70.5801 47.6885Z" fill="black"/>
<path opacity="0.1" d="M68.5793 47.7496C68.5793 47.7496 66.4056 49.9318 66.2711 50.399C66.1366 50.8663 62.0293 50.8807 62.0293 50.8807L61.7492 48.6327C61.7492 48.6327 61.7332 48.5733 61.7188 48.4834C62.8536 48.1911 66.5336 46.8279 68.7233 47.3112C68.7365 47.3905 68.7303 47.4719 68.7052 47.5482C68.6801 47.6246 68.6369 47.6937 68.5793 47.7496Z" fill="black"/>
<path d="M58.6805 50.5113C58.6805 50.5113 60.7758 48.6518 61.4161 48.692C62.0563 48.7321 69.8597 45.4002 70.3799 49.1336C70.9001 52.8669 60.4156 53.0676 60.4156 53.0676L58.815 53.6697C58.815 53.6697 57.48 50.7521 58.6805 50.5113Z" fill="#FDC2CC"/>
<path d="M58.0683 50.7795C58.0683 50.7795 59.0287 49.442 59.3216 51.0734C59.6145 52.7048 60.0563 54.7136 60.0563 54.7136L57.9082 53.6426L58.0683 50.7795Z" fill="#D39999"/>
<path opacity="0.1" d="M147.003 107.802C150.963 107.802 154.173 107.308 154.173 106.699C154.173 106.09 150.963 105.596 147.003 105.596C143.044 105.596 139.834 106.09 139.834 106.699C139.834 107.308 143.044 107.802 147.003 107.802Z" fill="#034A23"/>
<path opacity="0.1" d="M126.765 128.341C132.954 128.341 137.97 127.569 137.97 126.616C137.97 125.664 132.954 124.892 126.765 124.892C120.577 124.892 115.561 125.664 115.561 126.616C115.561 127.569 120.577 128.341 126.765 128.341Z" fill="#034A23"/>
<path opacity="0.1" d="M157.18 135C165.365 135 172.001 133.978 172.001 132.718C172.001 131.458 165.365 130.437 157.18 130.437C148.995 130.437 142.359 131.458 142.359 132.718C142.359 133.978 148.995 135 157.18 135Z" fill="#034A23"/>
<path opacity="0.1" d="M11.2048 110.68C17.393 110.68 22.4096 109.907 22.4096 108.955C22.4096 108.003 17.393 107.23 11.2048 107.23C5.01656 107.23 0 108.003 0 108.955C0 109.907 5.01656 110.68 11.2048 110.68Z" fill="#034A23"/>
<path d="M141.349 96.1157C141.349 96.1157 140.336 100.853 144.847 101.415L145.127 100.888C145.127 100.888 141.629 97.5898 141.349 96.1157Z" fill="#034A23"/>
<path d="M146.562 100.851L145.513 101.074L145.408 101.098C145.408 101.098 142.61 98.818 142.645 93.7295C143.02 94.4794 143.468 95.1904 143.981 95.8523C145.091 97.3231 146.346 99.2933 146.562 100.851Z" fill="#034A23"/>
<path d="M146.916 101.339C146.834 101.393 146.74 101.428 146.642 101.441C146.544 101.454 146.445 101.444 146.351 101.413C143.657 100.782 144.568 91.9761 144.568 91.9761C144.717 92.0467 144.888 93.1659 145.5 94.6127C146.587 97.1529 147.786 100.702 146.916 101.339Z" fill="#034A23"/>
<path d="M152.892 96.1157C152.892 96.1157 153.068 100.853 148.556 101.415L148.275 100.888C148.275 100.888 152.613 97.5898 152.892 96.1157Z" fill="#034A23"/>
<path d="M151.597 93.7295C151.631 98.818 147.996 101.098 147.996 101.098L147.89 101.074L146.842 100.851C147.048 99.2885 148.313 97.3183 149.421 95.8523C150.048 95.0501 150.78 94.3361 151.597 93.7295Z" fill="#034A23"/>
<path d="M147.875 100.878C147.713 101.076 147.508 101.234 147.275 101.339C147.205 101.372 147.131 101.396 147.056 101.413C146.391 101.574 146.161 101.092 146.199 100.274C146.262 98.8293 147.171 96.3083 147.987 94.4264C148.575 93.0712 149.535 92.0435 149.678 91.9761C149.674 91.9761 149.634 98.8325 147.875 100.878Z" fill="#034A23"/>
<path d="M147.121 88.8882C147.121 88.8882 144.113 99.5888 146.701 101.203C149.29 102.816 147.787 89.8356 147.121 88.8882Z" fill="#034A23"/>
<path opacity="0.1" d="M141.349 96.1157C141.349 96.1157 140.336 100.853 144.847 101.415L145.127 100.888C145.127 100.888 141.629 97.5898 141.349 96.1157Z" fill="black"/>
<path opacity="0.1" d="M146.562 100.851L145.513 101.074L145.408 101.098C145.408 101.098 142.61 98.818 142.645 93.7295C143.02 94.4794 143.468 95.1904 143.981 95.8523C145.091 97.3231 146.346 99.2933 146.562 100.851Z" fill="black"/>
<path opacity="0.1" d="M146.916 101.339C146.834 101.393 146.74 101.428 146.642 101.441C146.544 101.454 146.445 101.444 146.351 101.413C143.657 100.782 144.568 91.9761 144.568 91.9761C144.717 92.0467 144.888 93.1659 145.5 94.6127C146.587 97.1529 147.786 100.702 146.916 101.339Z" fill="black"/>
<path opacity="0.1" d="M152.892 96.1157C152.892 96.1157 153.068 100.853 148.556 101.415L148.275 100.888C148.275 100.888 152.613 97.5898 152.892 96.1157Z" fill="black"/>
<path opacity="0.1" d="M151.597 93.7295C151.631 98.818 147.996 101.098 147.996 101.098L147.89 101.074L146.842 100.851C147.048 99.2885 148.313 97.3183 149.421 95.8523C150.048 95.0501 150.78 94.3361 151.597 93.7295Z" fill="black"/>
<path opacity="0.1" d="M147.875 100.878C147.713 101.076 147.508 101.234 147.275 101.339C147.205 101.372 147.131 101.396 147.056 101.413C146.391 101.574 146.161 101.092 146.199 100.274C146.262 98.8293 147.171 96.3083 147.987 94.4264C148.575 93.0712 149.535 92.0435 149.678 91.9761C149.674 91.9761 149.634 98.8325 147.875 100.878Z" fill="black"/>
<path opacity="0.1" d="M147.121 88.8882C147.121 88.8882 144.113 99.5888 146.701 101.203C149.29 102.816 147.787 89.8356 147.121 88.8882Z" fill="black"/>
<path d="M141.35 96.1157C141.35 96.1157 140.756 100.853 145.267 101.415L145.547 100.888C145.547 100.888 141.63 97.5898 141.35 96.1157Z" fill="#034A23"/>
<path d="M146.987 100.851L145.938 101.074L145.833 101.098C145.833 101.098 142.615 98.818 142.651 93.7295C142.651 93.7295 143.475 94.6159 144.411 95.8523C145.513 97.3231 146.772 99.2933 146.987 100.851Z" fill="#034A23"/>
<path opacity="0.1" d="M146.987 100.851L145.938 101.074C144.944 100.199 144.549 97.9124 144.406 95.8523C145.512 97.3231 146.772 99.2934 146.987 100.851Z" fill="black"/>
<path d="M147.336 101.339C147.253 101.393 147.16 101.428 147.062 101.441C146.964 101.454 146.865 101.444 146.771 101.413C144.077 100.782 144.568 91.9761 144.568 91.9761C144.717 92.0467 145.3 93.1659 145.919 94.6127C147.006 97.1529 148.2 100.702 147.336 101.339Z" fill="#034A23"/>
<path d="M152.891 96.1157C152.891 96.1157 153.486 100.853 148.974 101.415L148.695 100.888C148.695 100.888 152.612 97.5898 152.891 96.1157Z" fill="#034A23"/>
<path d="M151.598 93.7295C151.632 98.818 148.416 101.098 148.416 101.098L148.31 101.074L147.262 100.851C147.47 99.2885 148.733 97.3183 149.84 95.8523C150.774 94.6159 151.598 93.7295 151.598 93.7295Z" fill="#034A23"/>
<path opacity="0.1" d="M149.84 95.8523C149.706 97.7792 149.36 99.8891 148.504 100.878C148.445 100.949 148.38 101.015 148.31 101.074L147.262 100.851C147.467 99.2934 148.733 97.3231 149.84 95.8523Z" fill="black"/>
<path d="M148.293 100.878C148.131 101.076 147.926 101.234 147.693 101.339C147.622 101.371 147.548 101.396 147.472 101.413C146.809 101.574 146.577 101.092 146.615 100.274C146.678 98.8293 147.587 96.3083 148.403 94.4264C148.991 93.0712 149.524 92.0435 149.674 91.9761C149.673 91.9761 150.054 98.8325 148.293 100.878Z" fill="#034A23"/>
<path opacity="0.1" d="M147.336 101.339C147.183 101.339 147.035 101.291 146.91 101.203C145.643 100.411 145.617 97.4388 145.919 94.6191C147.006 97.153 148.2 100.702 147.336 101.339Z" fill="black"/>
<path opacity="0.1" d="M148.295 100.878C148.149 101.199 147.952 101.36 147.694 101.339C147.565 101.322 147.441 101.276 147.333 101.203C147.004 100.975 146.754 100.651 146.617 100.275C146.68 98.8294 147.589 96.3084 148.405 94.4265C148.695 97.0455 148.791 99.8073 148.295 100.878Z" fill="black"/>
<path d="M147.12 88.8882C147.12 88.8882 144.534 99.5888 147.12 101.203C149.707 102.816 147.786 89.8356 147.12 88.8882Z" fill="#034A23"/>
<path d="M152.087 100.677H141.316V102.466H142.959L143 102.677L143.658 106.15H149.92L150.578 102.677L150.618 102.466H152.087V100.677Z" fill="#4B4770"/>
<path opacity="0.1" d="M152.087 100.677H141.316V102.466H142.959L143 102.677L143.658 106.15H149.92L150.578 102.677L150.618 102.466H152.087V100.677Z" fill="black"/>
<path d="M151.178 101.729L150.998 102.677L150.339 106.15H144.077L143.419 102.677L143.238 101.729H151.178Z" fill="#4B4770"/>
<path opacity="0.1" d="M151.178 101.729L150.998 102.677H143.419L143.238 101.729H151.178Z" fill="black"/>
<path d="M152.507 100.677H141.736V102.466H152.507V100.677Z" fill="#4B4770"/>
<path d="M17.4723 90.1071C17.3187 90.3182 17.1958 90.5501 17.1073 90.7959C17.0849 90.8554 17.0625 90.9244 17.0401 90.9902C16.9997 90.971 16.9573 90.9565 16.9136 90.9469C16.7271 90.8992 16.5341 90.8824 16.3422 90.8971C16.3422 90.8232 16.3518 90.7365 16.3534 90.6611C16.3774 89.8148 16.2782 88.6362 15.473 89.1356C14.7015 89.6173 15.2521 90.4202 15.7499 90.934C15.7932 90.979 15.8364 91.0207 15.878 91.0609C15.4234 91.382 15.337 92.1415 15.2617 92.93C15.1865 93.7184 14.519 94.5807 14.0756 95.072C14.0308 95.1218 13.9908 95.1667 13.9508 95.2085C13.7727 95.0656 13.5666 94.9622 13.3459 94.9049C13.1252 94.8476 12.895 94.8378 12.6702 94.8761C12.6526 94.8071 12.6334 94.7348 12.611 94.6577C12.2444 93.3523 11.5017 91.1042 10.5509 90.6225C10.5909 90.5727 10.6325 90.5214 10.6758 90.462C11.0791 89.9321 11.5337 89.1453 10.863 88.9445C10.1924 88.7438 10.1315 89.627 10.1683 90.2885C10.1683 90.3704 10.1812 90.4491 10.1876 90.523C10.054 90.529 9.9231 90.5623 9.80282 90.6208C9.68255 90.6794 9.57544 90.7619 9.48805 90.8634L9.38401 90.7397C8.83978 90.0975 7.84255 89.0762 7.54002 89.8486C7.2599 90.5663 8.13707 91.5009 8.75494 92.042L8.79336 92.0757C8.37878 93.7649 10.1892 95.141 11.164 95.7416L11.2904 95.8203C9.94585 97.4083 9.11509 100.389 9.11509 100.389L12.8815 101.063C12.8815 101.063 15.377 98.9017 15.0568 96.8736H15.0824C17.5779 96.371 18.1446 93.7023 17.7572 92.1191L17.8004 92.0998C18.2547 91.9134 18.6529 91.6119 18.9561 91.2247C19.6524 90.25 18.1894 89.1517 17.4723 90.1071Z" fill="#034A23"/>
<path opacity="0.1" d="M17.4723 90.1071C17.3187 90.3182 17.1958 90.5501 17.1073 90.7959C17.0849 90.8554 17.0625 90.9244 17.0401 90.9902C16.9997 90.971 16.9573 90.9565 16.9136 90.9469C16.7271 90.8992 16.5341 90.8824 16.3422 90.8971C16.3422 90.8232 16.3518 90.7365 16.3534 90.6611C16.3774 89.8148 16.2782 88.6362 15.473 89.1356C14.7015 89.6173 15.2521 90.4202 15.7499 90.934C15.7932 90.979 15.8364 91.0207 15.878 91.0609C15.4234 91.382 15.337 92.1415 15.2617 92.93C15.1865 93.7184 14.519 94.5807 14.0756 95.072C14.0308 95.1218 13.9908 95.1667 13.9508 95.2085C13.7727 95.0656 13.5666 94.9622 13.3459 94.9049C13.1252 94.8476 12.895 94.8378 12.6702 94.8761C12.6526 94.8071 12.6334 94.7348 12.611 94.6577C12.2444 93.3523 11.5017 91.1042 10.5509 90.6225C10.5909 90.5727 10.6325 90.5214 10.6758 90.462C11.0791 89.9321 11.5337 89.1453 10.863 88.9445C10.1924 88.7438 10.1315 89.627 10.1683 90.2885C10.1683 90.3704 10.1812 90.4491 10.1876 90.523C10.054 90.529 9.9231 90.5623 9.80282 90.6208C9.68255 90.6794 9.57544 90.7619 9.48805 90.8634L9.38401 90.7397C8.83978 90.0975 7.84255 89.0762 7.54002 89.8486C7.2599 90.5663 8.13707 91.5009 8.75494 92.042L8.79336 92.0757C8.37878 93.7649 10.1892 95.141 11.164 95.7416L11.2904 95.8203C9.94585 97.4083 9.11509 100.389 9.11509 100.389L12.8815 101.063C12.8815 101.063 15.377 98.9017 15.0568 96.8736H15.0824C17.5779 96.371 18.1446 93.7023 17.7572 92.1191L17.8004 92.0998C18.2547 91.9134 18.6529 91.6119 18.9561 91.2247C19.6524 90.25 18.1894 89.1517 17.4723 90.1071Z" fill="black"/>
<path d="M9.97748 91.1957L9.53729 92.4803C9.53729 92.4803 9.29239 92.3069 8.98345 92.0339C8.36559 91.4927 7.48842 90.5582 7.76854 89.8405C8.07107 89.0681 9.06829 90.0877 9.61252 90.7316C9.83182 90.9966 9.97748 91.1957 9.97748 91.1957Z" fill="#034A23"/>
<path d="M10.9059 90.462C10.772 90.6381 10.6288 90.807 10.4769 90.9678C10.4394 90.7429 10.4132 90.5162 10.3985 90.2886C10.3617 89.627 10.4321 88.7487 11.0932 88.9446C11.7543 89.1405 11.3093 89.9289 10.9059 90.462Z" fill="#034A23"/>
<path d="M16.584 90.6609C16.5712 91.0864 16.5296 91.4268 16.5296 91.4268C16.3355 91.2754 16.1521 91.1107 15.9806 90.9339C15.4828 90.4168 14.9321 89.6172 15.7037 89.1354C16.5088 88.6361 16.6081 89.8195 16.584 90.6609Z" fill="#034A23"/>
<path d="M19.1847 91.2197C18.8816 91.6069 18.4833 91.9085 18.029 92.0948C17.9032 92.1505 17.7738 92.1977 17.6417 92.2362L17.123 91.5055C17.178 91.2642 17.2496 91.0271 17.3375 90.7958C17.426 90.55 17.5489 90.3181 17.7025 90.107C18.4196 89.1515 19.8826 90.2499 19.1847 91.2197Z" fill="#034A23"/>
<path opacity="0.1" d="M9.61149 90.7397C9.83078 90.9967 9.97645 91.1958 9.97645 91.1958L9.53626 92.4804C9.53626 92.4804 9.29135 92.3069 8.98242 92.034C9.05106 91.62 9.22162 91.2298 9.47863 90.8987C9.52185 90.8473 9.56827 90.7911 9.61149 90.7397Z" fill="black"/>
<path opacity="0.1" d="M10.9059 90.462C10.7719 90.6381 10.6287 90.807 10.4769 90.9678C10.4394 90.7429 10.4132 90.5162 10.3984 90.2886C10.5815 90.2916 10.759 90.3523 10.9059 90.462Z" fill="black"/>
<path d="M13.0711 95.5889L11.9746 96.0706C11.9746 96.0706 11.7361 95.955 11.392 95.7399C10.2411 95.0301 7.92812 93.2429 9.47118 91.1362C11.0142 89.0295 12.3156 92.8078 12.8326 94.656C12.9879 95.21 13.0711 95.5889 13.0711 95.5889Z" fill="#034A23"/>
<path opacity="0.1" d="M15.9805 90.9341C16.1399 90.7698 16.3556 90.6722 16.5839 90.6611C16.5711 91.0867 16.5295 91.4271 16.5295 91.4271C16.3354 91.2756 16.152 91.1109 15.9805 90.9341Z" fill="black"/>
<path opacity="0.1" d="M18.029 92.0949C17.9032 92.1506 17.7738 92.1978 17.6417 92.2362L17.123 91.5056C17.178 91.2643 17.2496 91.0272 17.3375 90.7959C17.6721 90.9918 17.9186 91.4799 18.029 92.0949Z" fill="black"/>
<path d="M15.3107 96.8687L15.1266 96.9008C11.4562 97.4596 13.9165 95.4733 13.9165 95.4733C13.9165 95.4733 14.0765 95.3127 14.3054 95.0719C14.7488 94.5805 15.4147 93.723 15.4915 92.9298C15.6068 91.7368 15.7397 90.6176 17.1435 90.9467C18.5216 91.2647 18.7858 96.1702 15.3107 96.8687Z" fill="#034A23"/>
<path d="M15.2411 106.036H8.22852V107.886H15.2411V106.036Z" fill="#D4DFEC"/>
<path d="M16.2776 100.022H7.11523V106.477H16.2776V100.022Z" fill="#D4DFEC"/>
<path opacity="0.1" d="M15.2411 106.036H8.22852V107.886H15.2411V106.036Z" fill="black"/>
<path opacity="0.1" d="M16.2776 100.022H7.11523V106.477H16.2776V100.022Z" fill="black"/>
<path d="M15.7021 106.036H8.68945V107.886H15.7021V106.036Z" fill="#D4DFEC"/>
<path opacity="0.1" d="M12.8332 94.6577C12.9933 95.2101 13.0717 95.589 13.0717 95.589L11.9752 96.0708C11.9752 96.0708 11.7367 95.9551 11.3926 95.74C11.8216 95.1972 12.305 94.7846 12.8332 94.6577Z" fill="black"/>
<path opacity="0.1" d="M15.3107 96.8688L15.1266 96.9009C11.4562 97.4597 13.9165 95.4735 13.9165 95.4735C13.9165 95.4735 14.0765 95.3129 14.3054 95.072C14.9905 95.6212 15.2739 96.2426 15.3107 96.8688Z" fill="black"/>
<path d="M9.34375 100.389C9.34375 100.389 11.399 93.0023 14.2819 95.2824C17.1647 97.5625 13.1102 101.063 13.1102 101.063L9.34375 100.389Z" fill="#034A23"/>
<path opacity="0.1" d="M10.3809 92.5269C10.5082 92.5269 10.6114 92.4234 10.6114 92.2957C10.6114 92.168 10.5082 92.0645 10.3809 92.0645C10.2536 92.0645 10.1504 92.168 10.1504 92.2957C10.1504 92.4234 10.2536 92.5269 10.3809 92.5269Z" fill="black"/>
<path opacity="0.1" d="M10.3614 93.606C10.4887 93.606 10.5919 93.5025 10.5919 93.3748C10.5919 93.2471 10.4887 93.1436 10.3614 93.1436C10.2341 93.1436 10.1309 93.2471 10.1309 93.3748C10.1309 93.5025 10.2341 93.606 10.3614 93.606Z" fill="black"/>
<path opacity="0.1" d="M17.0469 92.7388C17.1742 92.7388 17.2774 92.6353 17.2774 92.5076C17.2774 92.3799 17.1742 92.2764 17.0469 92.2764C16.9196 92.2764 16.8164 92.3799 16.8164 92.5076C16.8164 92.6353 16.9196 92.7388 17.0469 92.7388Z" fill="black"/>
<path opacity="0.1" d="M11.668 98.2691C11.7953 98.2691 11.8985 98.1656 11.8985 98.0379C11.8985 97.9102 11.7953 97.8066 11.668 97.8066C11.5407 97.8066 11.4375 97.9102 11.4375 98.0379C11.4375 98.1656 11.5407 98.2691 11.668 98.2691Z" fill="black"/>
<path opacity="0.1" d="M16.5664 94.5308C16.6937 94.5308 16.7969 94.4273 16.7969 94.2996C16.7969 94.1719 16.6937 94.0684 16.5664 94.0684C16.4391 94.0684 16.3359 94.1719 16.3359 94.2996C16.3359 94.4273 16.4391 94.5308 16.5664 94.5308Z" fill="black"/>
<path opacity="0.1" d="M14.1856 96.9202C14.3129 96.9202 14.4161 96.8167 14.4161 96.689C14.4161 96.5613 14.3129 96.4578 14.1856 96.4578C14.0583 96.4578 13.9551 96.5613 13.9551 96.689C13.9551 96.8167 14.0583 96.9202 14.1856 96.9202Z" fill="black"/>
<path opacity="0.1" d="M11.168 92.9893C11.2953 92.9893 11.3985 92.8858 11.3985 92.7581C11.3985 92.6304 11.2953 92.5269 11.168 92.5269C11.0407 92.5269 10.9375 92.6304 10.9375 92.7581C10.9375 92.8858 11.0407 92.9893 11.168 92.9893Z" fill="black"/>
<path opacity="0.1" d="M16.4141 93.4324C16.5414 93.4324 16.6446 93.3289 16.6446 93.2012C16.6446 93.0735 16.5414 92.97 16.4141 92.97C16.2868 92.97 16.1836 93.0735 16.1836 93.2012C16.1836 93.3289 16.2868 93.4324 16.4141 93.4324Z" fill="black"/>
<path opacity="0.1" d="M15.625 95.2244C15.7523 95.2244 15.8555 95.1209 15.8555 94.9932C15.8555 94.8655 15.7523 94.762 15.625 94.762C15.4977 94.762 15.3945 94.8655 15.3945 94.9932C15.3945 95.1209 15.4977 95.2244 15.625 95.2244Z" fill="black"/>
<path opacity="0.1" d="M13.2051 98.0955C13.3324 98.0955 13.4356 97.992 13.4356 97.8643C13.4356 97.7366 13.3324 97.6331 13.2051 97.6331C13.0778 97.6331 12.9746 97.7366 12.9746 97.8643C12.9746 97.992 13.0778 98.0955 13.2051 98.0955Z" fill="black"/>
<path opacity="0.1" d="M12.7071 96.9588C12.8344 96.9588 12.9376 96.8553 12.9376 96.7276C12.9376 96.5999 12.8344 96.4963 12.7071 96.4963C12.5798 96.4963 12.4766 96.5999 12.4766 96.7276C12.4766 96.8553 12.5798 96.9588 12.7071 96.9588Z" fill="black"/>
<path opacity="0.1" d="M11.5137 94.396C11.641 94.396 11.7442 94.2925 11.7442 94.1648C11.7442 94.0371 11.641 93.9336 11.5137 93.9336C11.3864 93.9336 11.2832 94.0371 11.2832 94.1648C11.2832 94.2925 11.3864 94.396 11.5137 94.396Z" fill="black"/>
<path opacity="0.1" d="M15.7021 106.036H8.68945V106.712H15.7021V106.036Z" fill="black"/>
<path d="M16.7385 100.022H7.57617V106.477H16.7385V100.022Z" fill="#D4DFEC"/>
<path opacity="0.1" d="M13.5137 99.136C13.641 99.136 13.7442 99.0325 13.7442 98.9048C13.7442 98.7771 13.641 98.6736 13.5137 98.6736C13.3864 98.6736 13.2832 98.7771 13.2832 98.9048C13.2832 99.0325 13.3864 99.136 13.5137 99.136Z" fill="black"/>
<path opacity="0.1" d="M12.1309 99.4251C12.2582 99.4251 12.3614 99.3216 12.3614 99.1939C12.3614 99.0662 12.2582 98.9626 12.1309 98.9626C12.0036 98.9626 11.9004 99.0662 11.9004 99.1939C11.9004 99.3216 12.0036 99.4251 12.1309 99.4251Z" fill="black"/>
</g>
<defs>
<linearGradient id="paint0_linear_477_256" x1="72.1816" y1="130.624" x2="72.1816" y2="4.25354" gradientUnits="userSpaceOnUse">
<stop stop-color="#808080" stop-opacity="0.25"/>
<stop offset="0.54" stop-color="#808080" stop-opacity="0.12"/>
<stop offset="1" stop-color="#808080" stop-opacity="0.1"/>
</linearGradient>
<clipPath id="clip0_477_256">
<rect width="172" height="135" fill="white"/>
</clipPath>
</defs>
</svg>
